<mxfile host="app.diagrams.net" modified="2022-04-09T00:18:37.690Z" agent="5.0 (Macintosh; Intel Mac OS X 10_15_7) AppleWebKit/537.36 (KHTML, like Gecko) Chrome/100.0.4896.75 Safari/537.36" etag="RSN9e_CbDPWG2CCLNvla" version="17.4.1" type="github">
  <diagram id="Gc4cEWgxLJItNTfWJg6A" name="Page-1">
    <mxGraphModel dx="946" dy="614" grid="1" gridSize="10" guides="1" tooltips="1" connect="1" arrows="1" fold="1" page="1" pageScale="1" pageWidth="827" pageHeight="1169" math="0" shadow="0">
      <root>
        <mxCell id="0" />
        <mxCell id="1" parent="0" />
        <mxCell id="mRLStcjiZI1eSVTFfSAN-1" value="" style="whiteSpace=wrap;html=1;aspect=fixed;" vertex="1" parent="1">
          <mxGeometry x="120" y="30" width="520" height="520" as="geometry" />
        </mxCell>
        <mxCell id="mRLStcjiZI1eSVTFfSAN-2" value="" style="rounded=1;whiteSpace=wrap;html=1;" vertex="1" parent="1">
          <mxGeometry x="145" y="360" width="405" height="60" as="geometry" />
        </mxCell>
        <mxCell id="mRLStcjiZI1eSVTFfSAN-3" value="" style="rounded=1;whiteSpace=wrap;html=1;" vertex="1" parent="1">
          <mxGeometry x="145" y="450" width="415" height="60" as="geometry" />
        </mxCell>
        <mxCell id="mRLStcjiZI1eSVTFfSAN-4" value="" style="rounded=0;whiteSpace=wrap;html=1;rotation=90;" vertex="1" parent="1">
          <mxGeometry x="50.63" y="180.63" width="266.25" height="72.5" as="geometry" />
        </mxCell>
        <mxCell id="mRLStcjiZI1eSVTFfSAN-5" value="call stack" style="text;html=1;strokeColor=none;fillColor=none;align=center;verticalAlign=middle;whiteSpace=wrap;rounded=0;" vertex="1" parent="1">
          <mxGeometry x="153.76" y="40" width="60" height="30" as="geometry" />
        </mxCell>
        <mxCell id="mRLStcjiZI1eSVTFfSAN-6" value="Micro task&lt;br&gt;queue" style="text;html=1;strokeColor=none;fillColor=none;align=center;verticalAlign=middle;whiteSpace=wrap;rounded=0;" vertex="1" parent="1">
          <mxGeometry x="550" y="370" width="80" height="30" as="geometry" />
        </mxCell>
        <mxCell id="mRLStcjiZI1eSVTFfSAN-7" value="Macro task&lt;br&gt;queue" style="text;html=1;strokeColor=none;fillColor=none;align=center;verticalAlign=middle;whiteSpace=wrap;rounded=0;" vertex="1" parent="1">
          <mxGeometry x="560" y="450" width="80" height="50" as="geometry" />
        </mxCell>
        <mxCell id="mRLStcjiZI1eSVTFfSAN-8" value="" style="shape=image;verticalLabelPosition=bottom;labelBackgroundColor=default;verticalAlign=top;aspect=fixed;imageAspect=0;image=data:image/png,iVBORw0KGgoAAAANSUhEUgAABFUAAAJACAYAAABMqFnZAAAMa2lDQ1BJQ0MgUHJvZmlsZQAASImVVwdYU8kWnltSSWgBBKSE3gSRGkBKCC2A9CLYCEkgocSYEFTsZVHBtYsI2NBVEcW2AmLHriyKvS8WVJR1URcbKm9CArruK987+ebeP2fO/KdkJvceALQ+8KTSPFQbgHxJgSwhPJg5Oi2dSXoKEPghAwCceXy5lB0XFw0xGLj/Xd7dgLZQrjoruf45/19FVyCU8wFAxkKcKZDz8yE+DgBexZfKCgAgKvVWkwukSjwbYj0ZDBDiVUqcrcLblThThQ/32yQlcCC+DACZxuPJsgHQvAf1zEJ+NuTR/Ayxq0QglgCgNQziAL6IJ4BYGfuw/PyJSlwOsT20l0IM4wGszO84s//GnznIz+NlD2JVXv1CDhHLpXm8qf9naf635OcpBnzYwkETySISlPnDGt7KnRilxDSIuySZMbHKWkP8QSxQ1R0AlCpSRCSr7FETvpwD6wcMIHYV8EKiIDaBOEySFxOt1mdmicO4EMPdgk4RF3CTIDaEeKFQHpqottkom5ig9oXWZ8k4bLX+HE/W71fp64EiN5mt5n8jEnLV/JhmkSgpFWIqxNaF4pQYiDUhdpHnJkapbUYWiTgxAzYyRYIyfmuIE4SS8GAVP1aYJQtLUNuX5MsH8sU2isTcGDXeVyBKilDVBzvF5/XHD3PBLgsl7OQBHqF8dPRALgJhSKgqd+y5UJKcqOb5IC0ITlCtxanSvDi1PW4pzAtX6i0h9pAXJqrX4ikFcHOq+PEsaUFckipOvCiHFxmnigdfBqIBB4QAJlDAkQkmghwgbu1q6ILfVDNhgAdkIBsIgbNaM7AitX9GAq+JoAj8AZEQyAfXBffPCkEh1H8Z1KquziCrf7awf0UueApxPogCefC7on+VZNBbCngCNeJ/eOfBwYfx5sGhnP/3+gHtNw0baqLVGsWAR6bWgCUxlBhCjCCGER1wYzwA98Oj4TUIDjechfsM5PHNnvCU0EZ4RLhOaCfcniCeK/shylGgHfKHqWuR+X0tcFvI6YkH4/6QHTLjBrgxcMY9oB82Hgg9e0ItRx23sirMH7j/lsF3v4bajuJKQSlDKEEU+x9Xajpqeg6yKGv9fX1UsWYO1pszOPOjf8531RfAe9SPlthCbD92FjuBnccOYw2AiR3DGrEW7IgSD+6uJ/27a8BbQn88uZBH/A9/PLVPZSXlrrWuna6fVXMFwikFyoPHmSidKhNniwqYbPh0EDK5Er7LMKabq5sbAMpnjerv6218/zMEMWj5ppv3OwD+x/r6+g5900UeA2CvNzz+B7/p7FkA6GgAcO4gXyErVOlw5YUA/yW04EkzAmbACtjDfNyAF/ADQSAURIJYkATSwHhYZRHc5zIwGUwHc0AxKAXLwGpQATaAzWA72AX2gQZwGJwAZ8BFcBlcB3fh7ukAL0E3eAd6EQQhIXSEgRgh5ogN4oS4ISwkAAlFopEEJA3JQLIRCaJApiPzkFJkBVKBbEJqkL3IQeQEch5pQ24jD5FO5A3yCcVQGqqHmqK26HCUhbLRKDQJHYdmo5PQInQ+ugQtR6vRnWg9egK9iF5H29GXaA8GMA3MALPAnDEWxsFisXQsC5NhM7ESrAyrxuqwJvg7X8XasS7sI07EGTgTd4Y7OAJPxvn4JHwmvhivwLfj9fgp/Cr+EO/GvxLoBBOCE8GXwCWMJmQTJhOKCWWErYQDhNPwLHUQ3hGJRAOiHdEbnsU0Yg5xGnExcR1xN/E4sY34mNhDIpGMSE4kf1IsiUcqIBWT1pJ2ko6RrpA6SB/IGmRzshs5jJxOlpDnksvIO8hHyVfIz8i9FG2KDcWXEksRUKZSllK2UJoolygdlF6qDtWO6k9NouZQ51DLqXXU09R71LcaGhqWGj4a8Rpijdka5Rp7NM5pPNT4SNOlOdI4tLE0BW0JbRvtOO027S2dTrelB9HT6QX0JfQa+kn6A/oHTYamiyZXU6A5S7NSs17ziuYrLYqWjRZba7xWkVaZ1n6tS1pd2hRtW22ONk97pnal9kHtm9o9OgydETqxOvk6i3V26JzXea5L0rXVDdUV6M7X3ax7UvcxA2NYMTgMPmMeYwvjNKNDj6hnp8fVy9Er1dul16rXra+r76Gfoj9Fv1L/iH67AWZga8A1yDNYarDP4IbBpyGmQ9hDhEMWDakbcmXIe8OhhkGGQsMSw92G1w0/GTGNQo1yjZYbNRjdN8aNHY3jjScbrzc+bdw1VG+o31D+0JKh+4beMUFNHE0STKaZbDZpMekxNTMNN5WarjU9adplZmAWZJZjtsrsqFmnOcM8wFxsvsr8mPkLpj6TzcxjljNPMbstTCwiLBQWmyxaLXot7SyTLeda7ra8b0W1YlllWa2yarbqtja3HmU93brW+o4NxYZlI7JZY3PW5r2tnW2q7QLbBtvndoZ2XLsiu1q7e/Z0+0D7SfbV9tcciA4sh1yHdQ6XHVFHT0eRY6XjJSfUyctJ7LTOqW0YYZjPMMmw6mE3nWnObOdC51rnhy4GLtEuc10aXF4Ntx6ePnz58LPDv7p6uua5bnG9O0J3ROSIuSOaRrxxc3Tju1W6XXOnu4e5z3JvdH/t4eQh9FjvccuT4TnKc4Fns+cXL28vmVedV6e3tXeGd5X3TZYeK461mHXOh+AT7DPL57DPR18v3wLffb5/+jn75frt8Hs+0m6kcOSWkY/9Lf15/pv82wOYARkBGwPaAy0CeYHVgY+CrIIEQVuDnrEd2DnsnexXwa7BsuADwe85vpwZnOMhWEh4SElIa6huaHJoReiDMMuw7LDasO5wz/Bp4ccjCBFREcsjbnJNuXxuDbc70jtyRuSpKFpUYlRF1KNox2hZdNModFTkqJWj7sXYxEhiGmJBLDd2Zez9OLu4SXGH4onxcfGV8U8TRiRMTzibyEickLgj8V1ScNLSpLvJ9smK5OYUrZSxKTUp71NDUlekto8ePnrG6ItpxmnitMZ0UnpK+tb0njGhY1aP6RjrObZ47I1xduOmjDs/3nh83vgjE7Qm8CbszyBkpGbsyPjMi+VV83oyuZlVmd18Dn8N/6UgSLBK0Cn0F64QPsvyz1qR9TzbP3tldqcoUFQm6hJzxBXi1zkRORty3ufG5m7L7ctLzdudT87PyD8o0ZXkSk5NNJs4ZWKb1ElaLG2f5Dtp9aRuWZRsqxyRj5M3FujBl/oWhb3iJ8XDwoDCysIPk1Mm75+iM0UypWWq49RFU58VhRX9Mg2fxp/WPN1i+pzpD2ewZ2yaiczMnNk8y2rW/Fkds8Nnb59DnZM757e5rnNXzP1rXuq8pvmm82fPf/xT+E+1xZrFsuKbC/wWbFiILxQvbF3kvmjtoq8lgpILpa6lZaWfF/MXX/h5xM/lP/ctyVrSutRr6fplxGWSZTeWBy7fvkJnRdGKxytHraxfxVxVsuqv1RNWny/zKNuwhrpGsaa9PLq8ca312mVrP1eIKq5XBlfurjKpWlT1fp1g3ZX1QevrNphuKN3waaN4461N4Zvqq22ryzYTNxdufrolZcvZX1i/1Gw13lq69cs2ybb27QnbT9V419TsMNmxtBatVdR27hy78/KukF2Ndc51m3Yb7C7dA/Yo9rzYm7H3xr6ofc37WfvrfrX5teoA40BJPVI/tb67QdTQ3pjW2HYw8mBzk1/TgUMuh7YdtjhceUT/yNKj1KPzj/YdKzrWc1x6vOtE9onHzROa754cffLaqfhTraejTp87E3bm5Fn22WPn/M8dPu97/uAF1oWGi14X61s8Ww785vnbgVav1vpL3pcaL/tcbmob2Xb0SuCVE1dDrp65xr128XrM9bYbyTdu3Rx7s/2W4Nbz23m3X98pvNN7d/Y9wr2S+9r3yx6YPKj+3eH33e1e7UcehjxseZT46O5j/uOXT+RPPnfMf0p/WvbM/FnNc7fnhzvDOi+/GPOi46X0ZW9X8R86f1S9sn/1659Bf7Z0j+7ueC173fdm8Vujt9v+8viruSeu58G7/He970s+GH3Y/pH18eyn1E/Peid/Jn0u/+Lwpelr1Nd7ffl9fVKejNf/KoDBgWZlAfBmGwD0NAAYsG+jjlH1gv2CqPrXfgT+E1b1i/3iBUAdfH+P74JvNzcB2LMFtl+QXwv2qnF0AJJ8AOruPjjUIs9yd1Nx0WCfQnjQ1/cW9myklQB8WdbX11vd1/dlMwwW9o7HJaoeVClE2DNsDP2SmZ8J/o2o+tPvcvzxDpQReIAf7/8CO8iQnBceu8oAAACWZVhJZk1NACoAAAAIAAUBEgADAAAAAQABAAABGgAFAAAAAQAAAEoBGwAFAAAAAQAAAFIBKAADAAAAAQACAACHaQAEAAAAAQAAAFoAAAAAAAAAkAAAAAEAAACQAAAAAQADkoYABwAAABIAAACEoAIABAAAAAEAAARVoAMABAAAAAEAAAJAAAAAAEFTQ0lJAAAAU2NyZWVuc2hvdGOemhYAAAAJcEhZcwAAFiUAABYlAUlSJPAAAALdaVRYdFhNTDpjb20uYWRvYmUueG1wAAAAAAA8eDp4bXBtZXRhIHhtbG5zOng9ImFkb2JlOm5zOm1ldGEvIiB4OnhtcHRrPSJYTVAgQ29yZSA2LjAuMCI+CiAgIDxyZGY6UkRGIHhtbG5zOnJkZj0iaHR0cDovL3d3dy53My5vcmcvMTk5OS8wMi8yMi1yZGYtc3ludGF4LW5zIyI+CiAgICAgIDxyZGY6RGVzY3JpcHRpb24gcmRmOmFib3V0PSIiCiAgICAgICAgICAgIHhtbG5zOmV4aWY9Imh0dHA6Ly9ucy5hZG9iZS5jb20vZXhpZi8xLjAvIgogICAgICAgICAgICB4bWxuczp0aWZmPSJodHRwOi8vbnMuYWRvYmUuY29tL3RpZmYvMS4wLyI+CiAgICAgICAgIDxleGlmOlVzZXJDb21tZW50PlNjcmVlbnNob3Q8L2V4aWY6VXNlckNvbW1lbnQ+CiAgICAgICAgIDxleGlmOlBpeGVsWERpbWVuc2lvbj4yODgwPC9leGlmOlBpeGVsWERpbWVuc2lvbj4KICAgICAgICAgPGV4aWY6UGl4ZWxZRGltZW5zaW9uPjE4MDA8L2V4aWY6UGl4ZWxZRGltZW5zaW9uPgogICAgICAgICA8dGlmZjpSZXNvbHV0aW9uVW5pdD4yPC90aWZmOlJlc29sdXRpb25Vbml0PgogICAgICAgICA8dGlmZjpYUmVzb2x1dGlvbj4xNDQvMTwvdGlmZjpYUmVzb2x1dGlvbj4KICAgICAgICAgPHRpZmY6WVJlc29sdXRpb24+MTQ0LzE8L3RpZmY6WVJlc29sdXRpb24+CiAgICAgICAgIDx0aWZmOk9yaWVudGF0aW9uPjE8L3RpZmY6T3JpZW50YXRpb24+CiAgICAgIDwvcmRmOkRlc2NyaXB0aW9uPgogICA8L3JkZjpSREY+CjwveDp4bXBtZXRhPgqLxgFpAABAAElEQVR4AezdB3gcx3nw8ZfovRcSjQDYe++kqN5lS3KRS+Ke2FacOLbj2LET17gljstny4nlxHG3JbnFVi8UiyiSYhN7BwgQhUTvRGH55l1g7xbAoR0Oh8PhP89zum0zO/vb4wn73pQpM5duvi4kBBDwSqCtqdbKF5OQ6lV+MiGAQG+Bq12d0nG5WaZMmSLXr/O/p946rCHQXyAqNklCQkP772ALAggggAACCPhFIMQvZ+EkCCCAAAIIIIAAAggggAACCCCAQJAJEFQJshvK5SCAAAIIIIAAAggggAACCCCAgH8ECKr4x5mzIIAAAggggAACCCCAAAIIIIBAkAkQVAmyG8rlIIAAAggggAACCCCAAAIIIICAfwQIqvjHmbMggAACCCCAAAIIIIAAAggggECQCRBUCbIbyuUggAACCCCAAAIIIIAAAggggIB/BKZkFS5kzkr/WHMWBBBAAAEEEEAAAQQQQAABBBAIIgFaqgTRzeRSEEAAAQQQQAABBBBAAAEEEEDAfwIEVfxnzZkQQAABBBBAAAEEEEAAAQQQQCCIBAiqBNHN5FIQQAABBBBAAAEEEEAAAQQQQMB/AgRV/GfNmRBAAAEEEEAAAQQQQAABBBBAIIgECKoE0c3kUhBAAAEEEEAAAQQQQAABBBBAwH8CBFX8Z82ZEEAAAQQQQAABBBBAAAEEEEAgiAQIqgTRzeRSEEAAAQQQQAABBBBAAAEEEEDAfwIEVfxnzZkQQAABBBBAAAEEEEAAAQQQQCCIBAiqBNHN5FIQQAABBBBAAAEEEEAAAQQQQMB/AgRV/GfNmRBAAAEEEEAAAQQQQAABBBBAIIgECKoE0c3kUhBAAAEEEEAAAQQQQAABBBBAwH8CBFX8Z82ZEEAAAQQQQAABBBBAAAEEEEAgiAQIqgTRzeRSEEAAAQQQQAABBBBAAAEEEEDAfwIEVfxnzZkQQAABBBBAAAEEEEAAAQQQQCCIBAiqBNHN5FIQQAABBBBAAAEEEEAAAQQQQMB/AgRV/GfNmRBAAAEEEEAAAQQQQAABBBBAIIgECKoE0c3kUhBAAAEEEEAAAQQQQAABBBBAwH8CBFX8Z82ZEEAAAQQQQAABBBBAAAEEEEAgiAQIqgTRzeRSEEAAAQQQQAABBBBAAAEEEEDAfwIEVfxnzZkQQAABBBBAAAEEEEAAAQQQQCCIBAiqBNHN5FIQQAABBBBAAAEEEEAAAQQQQMB/AgRV/GfNmRBAAAEEEEAAAQQQQAABBBBAIIgECKoE0c3kUhBAAAEEEEAAAQQQQAABBBBAwH8CBFX8Z82ZEEAAAQQQQAABBBBAAAEEEEAgiATCguhauBQEEJhAAmFhYZKbm2vVuKKiQjo6OryqvTflhIaGSl5ennW+yspKaW9v9+rcEyVTVFSUzJo1S+Lj4yUhPkF0/bnnn5PLly9PlEugnggggAACCCCAAAIIBKQAQZWAvC1UCoHgF7j5ppvl3nvulbq6OvnyV77s9QV7U87Vq1flgTc+IPn5+fLqrlflN4/9xuvzB3rGu++6W2668SaJjIzsVdVt27cRVOklwgoCCCCAAAIIIIAAAiMXIKgycjNyBKDA2ve8T8Kjo6X50kV5/fe/C8AaUiWnQEJCgtx2623WJm0xoUEOb9Joynn62afl4Q89LGvXrJXt27dLRWWFN1UI6DyzZ8+WO++406rj9evX5dSpU1YQS1vmBHvrnIC+MVQOAQQQQAABBBBAIGgEAiaokpiYJOmpmRIaFmrh1tRUSW1dTdBAB8OFhEVEyBTTbUJT1zC6DYRFRsntn/6nUV162esH5fD//XHIMjLMw2NkXJwJrEQNeSwHjExgSkiIhPW0crh25Ypc7eoaWQEejr7n7nuslhO1tTWy57U9Ho4Y3qbRlHPy5EkpKi6SwoJCeeCBB+SRHzwyvJNOoKM2rt/oqu2jP3pUjh0/5lpnAQEEEEAAAQQQQAABBEYvMK5BlSlTpkhSUopMzZhm+vhH97qa8PCIXuusjL+AtgaZtnChiPnF+4mP/u2QFZoSMkViU1OHPG6wAzRQQhpfgaTsHLn1k/9oVeLY00/J8WefGVWFUlPTrNYhWsjWbdvk2rVrXpXni3K2bNkihe8vlDmz58iMGTPl3LmzXtUlUDOlpKRYVWtrayOgEqg3iXohgAACCCCAAAIITGiBcQuqpKamS6YJpkRG9O7nP6E1qXwvAW3VcH737l7b7JWI2FjJWrTIWu1oaZHKo0ftXb3ea4rO9VofaKXy2FEJN4NvNldVDXQI2wNEYMP69aIBVQ2m7D+w3+ta+aIcbbmhAYeYmBjZtGFj0AVVkpKSLN+mpiavncmIAAIIIIAAAggggAACAwuMW1AlJytPQky3Ak06nkJ1zSXrQUsDLaTgENBuInt/9QuPF6OtH+ygSqvpAjLQcR4ze9i495eez+PhUDaNo4DOuqNjmGg6cfKEtJiAmjfJV+Xod8+BgwdkowmoLFmyROLj4qW5pdmbKgVkngjTZU9TZ1dnQNaPSiGAAAIIIIAAAgggMNEFuqMa43QVV650mcEhy+TYiUNSebFcdJ2EAALBK7Bo4SKJ6+nSpcEMb5OvytHz2/XQQM2q1au8rRL5EEAAAQQQQAABBBBAYBIKjFtLlfKKUqmrr/V6PIVgv1c6OGjeihWSMj1fYlNSJSI2RrSbzOXGJqk9Xyza3aWztXVYDMl5eZKaXyDaOiQuPV1aa2qkobxMLp44YbrLXPJYRmh4uOSvWdNrX0zP+AymSZHM2OgeANN5UMnevXKlo8O5yefLoebX9+xFiz2W29HaIpfMAKQDJZ0hSF01VR47JnFp6TJ91WqJiIu18hWb6XW1hU36rFmSu2yF5VVXcl5Ob3lJOk03kcGS3ifNp86JWVnW/VHnmnPnpPrc8MfqSMrOlvSZsyTRvGv9tCVPQ3m5VU79hdLBqiDpZlyQ2LQ065iSva/J9QHGK9FWQhExsXK1s1Mu9AlupBXOMPV3txiLSe4el0MLTcmb7vHeN126JNVnzgxaN905d+5c1zFFRcWu5ZEu+KocPW9JSYn1PaQt5+bOnis6zoo/0luXvlN2Fm+T8sYyf5yOcyCAAAIIIIAAAggggMAYCIxbUKWmtnoMLic4ikwrLJTVf/Eu18Nx36vSgIY+LL/8nW9bAZa+++11DYwseeBN/R6C02fOtA7R4MGhP/xOzr3yip3F9R5mxrpZ/ta3udb7Lgy0TwMVYx1UiTTjsax593v6Vsla14DTYEGVqPgE13Wd2bbV2GySkJ4ZjbJMK4qEqVPlwoEDsvlv/lY0sKUpc84c85orL3/326LjxHhKMzbdIEvuf0DU3Jlyli2zVtVYrQebOUfHGZl7+x2y4K67XefWzPb90gGCT774ghx96skBgyWFGzZI3sru1hZlr79u7kW7szqu5QV332uCP9kmSNfYL6iSa4JOM831eEo6ULE1WHGfncW7dw0rqDKz57On3X505h9vk6/K0fN3mX8H5RXlkpuTKwUFBVa3RG8Hzx3J9dw2+y65Z/79cqbmlGw9+6K8VrpLOq/4NiCpnykSAggggAACCCCAAAIIjJ3AuAVVxu6SJnbJ0YmJsu79fyVR8fHWhdQWF0ttcZHVSiLaDDoZl54hGnTRh/eQ8IFvn5az+SN/J/GZmVY5lxsbpPrsWWmrq7PK0CmII8zgnBociTWtIQ7/8Q+94K5dvSIVRw732pZiWrvY9eq7zz7waufYd+HSwEbfVhGpxsQOjth1Gep91uYbpezgQWmpqTatctZKVEKCFWSZvmqVNF2sNNd/xGp5oi03UqZPt1qPXDLjgDiTPrTq/cpe3N1yRgNKVWdOm/wXJdqUp3m15YgGwpJzc2TLt781YEBEZ1eygzBajrZuaaqolPipmVYLFG1lM/e22yXJPPzv+M9HnNXw6XKjaRXjvL96Xm05o6nZtEjx1LqpoaxsyDokGI8M8/nVVFo6eIubwQrzVTnOc2hrFQ2qRJqpo/W9pLTEubvX8ozUWdb4T702DnOlrq1W9KXpmly33melzRF9/cWK98qr53dYAZbS+vPWvtH8R69FX5paW4bXqm005yMvAggggAACCCCAAAKTUWDgp/LJqBEA11xoBsy0AxcHHn/MtCLZ0a9WOnNO4foN0tV2ud8+e8PiN97vCqhYrST++Hurq4e9X4Mua9/7Puuhf/aNN0mp6bajXVXs1NXeLjt/9Ki9ar1v/OsPuaZU7ruv14FjvNLe3Cxbv/fdXmd5w1e/LiOdflm7P+363/+xytGA06YPP2wtT5kSYlqlfEe6Ll+WkLAwue9fv2oFoKbOm2dawfQOquSvXecKqGg3nz0//6kVuLIrp/mXPqithTZZXbn0/ez2bfZu17sGX+yAyuWGBtn+yPel6dJF136dmvqGhz9idUfSekybv0Aqzcw1Y5GKXt0p+rJTcm6ea0rl0v37vJ5SOS21u1uSllvfUG8XP+J3X5XjPHF9vbs+6aaL3GBBlU/f8nmJCPNu1rI/H/u9/PbQr61Tf/rJj8qGgs2yseBGmZaQJdHhMXLLrDusV3HtOdl67kXZff4Vab/iubWRs/6elvNMtz87Oa/P3sY7AggggAACCCCAAAIIjF5gXAeqHX31g6+EZPMruSbtJuJ8sHVeqY6lcvKF53sFQZz7U00XBrsLiLa2OPD4b3oFVPRY7fax68c/Fg2eaDeXJQ8+6CxiUixXn3WPAVJTVCTavUZTfdkFK6Ciy9oqxg42xWd0t7LQ7Zp0CudF995nLbeZh/JXHv2vXgEV3aH5Dz7xuOi4LJoW3nOvaMuPvmnB3Xe7NmlgxhlQ0R2ttbXmfnUHgHR9vuN4XZ8IyR6gVuvaOszxgDxdl6/KcZbd2uZuyeEs33mMr5fr2+rkyWN/EA2ufPn5z1otVC53dQdKC1JnyHtXf1C+++CP5H1rPiQFqTNHdHqdIvq+e7o/m5pxrwmGkRBAAAEEEEAAAQQQQMD3ArRU8b3pqEoMMw/qmrR7j3bdaaqsHHF5c265zZXnkGmhMlBqb2oUHcxUx8/QAU51AFgduHSypHYTWLKTjj1y1QRA1P1yg3u77u9o7p72t28wJH/tWons6aZ14rlnXYEYu0z7/boJ1px66SVZ9773WwGV1Px8a5Bge7+WkTF7jrXaXFXVr2uTfZwGd+pMtxQdLFZfOuhwS/XEGZvIGaxoG2LQX/uaPb37qhxn2W2t7kGIneU7j7GX/33rVyTEtGbyJtW2er5fZ2tOi75+uf9/ZUXuatlUeJPMz1wkUWFRsnnGLdZLuwRtO/eS1UWordMdBNJ65JnWRPNMC6Yw0zIq1bRqmmPGAbKmhzatup559hk5Z7qSkRBAAAEEEEAAAQQQQMD3AgRVfG86qhJ1LA97YNJF971BDjz2mGlV0jCiMhOnTbWO10CBzkSjLys5xqycIt0r9iZtrZKUlT3owLcjqsQEOPhKV+8AkgaUNKjSN7B0tec4bZniTAlT3TPkhJmxK3KWdg9K20NrHWo7O7sm6Zgo2vXITrH2rEpmQ9Wpk/Zmj+9Vp05ZARXdqV2CJlJQRacsttNoBoL1VTl2XfTdWR+dBWiwdLrKfe8GO86bfZ1XO2WX6fKjr5SYVNlYeKPVPSgzfqrkJefLX658vzy07C/lZ3t/JDuKtrpOMd2M+XPP3fdY61YQz3xOduzcIcePH5erV6+6jmMBAQQQQAABBBBAAAEEfCtAUMW3nqMuTafu1UFT9eFeZ6PRsTO0O4qO11FXUmIGmz0j7U1NA55HB2uN7Rm7IiwyymodMeDBfXbozDc6e85kSX1n4rHX7SCK7XC1q3vGH/V0Jmd3oCUPDL/7lDo7k2uqarNRx4sZLGm3LTs5pzq2twXyu874YyftnuJt8lU5zvM76zOarknOMke7rAPa/uno76zXkqzl8oG1D0tCVKJEhEZIZrw7oKfnuWjG39llZmAKN98bU02wT1uq6LTTOjbMn/70Jznj6Oo22nqRHwEEEEAAAQQQQAABBNwCBFXcFgGx1FJTYwYp/Z6seudfWLP0aAsSu7uHVlB/ha4xTfkPPvGENFZW9KuzPqDbUwHrQKuNI+g+1DGKcS76VWQibLjWPYaKXVW11WS/29vNdD3WYt/paXUmJjtZY7LYK0O8t5p77EzO4MhgATPN097sDqg5W7g4ywvUZV8FQ3xVjtMp1gz+bCdn+fa28XjXz9uCqYutliraJUiDKXbq6DP18pkzZ0Rfdpo3d568593vkemmm9iHP/Rh+drXvybVNZ67Htl5eEcAAQQQQAABBBBAAIGRCxBUGbnZmOfQB/Rnv/KvogPOZi1YJKmFBdbMMdoKRR+0dHrbW/7hk2Z63v+QvlPZ6lS8dmqurpKXv/Mte5V3Hwto9yqRRKvU7T/4fr9uQ8M93dVO9z3T2YIGS6Hh7gfrKxNs/JsGM6uRnRLiE+zFEb/7qhzniXWaZjsNNTPR8pxVZkwVd1cmO99w3iubyqW88cKgh05LyDbdfjbLhvzNkhyT4jpWAyl7SnZaA9qeq3UHUFwHOBZOmFmqnnvhObn/Dfdb46xsNFN6/6HPtOmOw1lEAAEEEEAAAQQQQAABLwUGf4LzslCyjV7g+rVrVpcf7fajKcwMIjvNdAdaYMZN0G4n2j1oyf0PyLbvf6/XybSlg87oo+N/RI3iwbVXoax4FNBBZeMzMq19Og22ztDjTWqtq3Nl06muB0tRCfGu3W2OfK6Nw1yIGEX3m2Geot9h2lKiyXw+NYCRm5vbb/9wN/iqHOf5dKBXTTq2SonpZjdY+vD6j/pkSmXnOWIjYmXN9A3WGCozUmc5d8n5uiJ5+ewLstsEVNp7ZgfqdcAAK/v27bOCKro7Lc09nfUAh7MZAQQQQAABBBBAAAEEvBAgqOIF2nhk0VYJFw7sl0tmINM7/umzEmUeTFMLCsU0XXFNBWzXq8U87Cfn5ZmgSrzVFUgDNL5I13u6wVhleTivL84xkcrQoIqdohOTvA6qOIMjzvFV7LKd77Ep7odjZzDGPsbZhSsiNka6W9PYe7vftXvYUMEbZw7n56dvFyjnccNZPmeChMuWLbNmqLFmp2kZfAyZgcr0VTlavg5Mawd5Lpjxizocrb0GOr8vtusMQoumLbVapWjrl7CQcFexOrXyrvM7rFYpJfXejXOkAawuMzW7jrPibInjOgkLCCCAAAIIIIAAAgggMGoBgiqjJvRvAZ1m3BMdsDZr0SLRriKh5mUPsGrXpKa4yAqq6P6Cteuk6NWd9q5RvV9u7BnPwwRUNGAz1PgfozrZBMhca7ppyc23WDWdsXGT1BR1tyoaadU1OGLNPGRaI+ngxDogrqdgSEhomJlhaKlVvAY6NHjWNzlniopJThZnwMY+Nm3GDNe4O/a2wd516m07aTBvNEkHTNWgiqb8/Hw5cvSIV8X5qhw9+bRp0yTC2GtyjktibfDwn39+5pPOCZ48HDHwptZO92C9//6G70larHtcHs2l0ypvPfui7Cl9VTr7jJsycKkD79GZfzSoMtpg2MBnYA8CCCCAAAIIIIAAApNbYPC5Qye3zbhcfWJW9qDn1W4/yT1dJ5qrLvULqGjmE88+K51tbVY58++8S5zT+XoqXLuC6DgtQ6W2Onf3lozZc4Y6POj3lx8+ZHXR0gvNXbFC0gpNy6FBko6JM23hwn5HaEDl3M5XrO06NfOszZv7HaMbCtavd93L83v2SEer+wHdztBWV28vyvSVq1zL9oI+XM+7/U57dVjvOiORHbhLnzVrRAGZvic4cPCAdF3psjYvXry47+5hr/uqHD3hksVLXOfdu3eva3mghUvNlXLRy1dzh7tlTkJkd1cvDbQ8f+pp+cxTH5cvP/9ZM1Xyyz4JqAxUf7YjgAACCCCAAAIIIICA7wTGraWKPtxlpPeeWjYu1j1ehC5nZvSeNrSq+mL/mVl8ZxEQJW384IfMmCiXpWjnTrl44rjVpcTufhGfmSlLH3iTRCclWXWtPHrUY531YfvYU0/Ksre81Tr2zs/+ixwyg1RqeXbrEm1xkGCmXtUHbw0IVBw5Yk3X7LHAno2af+F9b7B+9V725reYB/xYq9VMZ2t3AEcPazHjZtj1Hawsb/dpaw3t1tI32b/Ea+DCU2uKDjOd71jU68ATj8tt//gpK9Bw49/9vZx88QU5b6a21fFVdBYhHdtGx13JMgGEgnXrrWr/+bP/1Lf6csrkm7Fho4SaFhML773PKk8DLR0moBEZGyfT16yRxW+838qn13Hi+Wf7laEbKo8dFZ31KTw62jqfdlEqNvW5YsbZ0c/PYjNwabppqaJBt5GMq3Lx+DHJXrLUupYNH/hrOffKDmmrr5drpiWEJv3M2p8ta8MA/2kz5z148KCsXrValpryHjd+2kVlpMlX5eh5V61caZ2+yLQ8qrxYOdKqeH38qeoTsrN4u+y7sFu6ro7cYDgn1pYqmkJCvBtYdzjn4BgEEEAAAQQQQAABBCazwLgGVbKm5QxoH28GWdWXM2lQZTKkxGlZokELTfrQetnMmqIPyc6H4NriYjn65JMDcuhDb0RcnGmVcIcJQsRaUzTrwfrAreOw6MP+SFNDebkJ9rwi2tVF67L0wTf3K+Kpz/+L9bDdb4ePNmjXlc0f+dsBS0s2A47e969f7bf/qS98zmNXmH4HjnBDY0W57PrfH8uKh95mtSJRb31pyw4NZESablLOpK0+PCXdvvdXv5SV73inNSixDkisLw0GOVsaXbtyRQ488diA47fo7E9nd2y36qBjpyx54EHrpfm0O5gGenb9+H9EWzA5P0+e6uTcdvhP/yeZc+daXZO0tU3fFjfnd+829f+FM8uAyztNwFCDKpGmVc4i043twIEDAx472A5flFNoxiVKTU2zTvOK+Wz7M33z5a+M+ekaTdctnS463nwXkBBAAAEEEEAAAQQQQMD3AnT/8b3pqEo8u22rGZujyNWqQltexKamuh6AtYXB0Sf/LNt/8IgJuFwZ8Fz68Hz8maflpW/+m9SeL3aVp8EZZ0ClxUy7rK0rBmr50PcEBx5/TF559L+sVi9W96MJNq1v3+vxxXr5odflua/+qzWQsN1NRrtpOQMqGhzRFiN7f/HzAU+pAxG/+O/fkPrSUtcxzoBKY0WFvPQf35TiXbtc+z0tHDWtlPTemwiKa7cGVHR8lf2//pVofUeaWqqr5ekvfkFOv7zFap1ktUpxlD+S8orN59Eeu2STCdB5m3xRjk41rElnFDr4+kFvqxKw+RrqG6y66UC16WnpAVtPKoYAAggggAACCCCAwEQVmJJVuND95DVRryII662DlSZMnWrN0qIP1u3NTaZ1Qp1oEMR+cB/JZetDtXZDSTSDck4JmWIesOultb5uTFpvjKRewXasdkOKNdPXateqSNNCoM20MmozzhqUGEn3Iw186fg6cenpVquUhvKy7lZGIwDTbkNJOdkmuJMgtWbwYm+nfB7BKYd9aE5OjnzyE2bAV+P1iAkQnjp9ath5nQeOppxM0x3qM5/+jFWH//6f/5bDRw47iw6K5RtuuEHe3NOirMp0BdthWrDVmeBae0e7FJvWbldMCyYSAggggAACCCCAAAIIeC9AUMV7O3IigMAoBN5pujqtWb3Gerj/9ne/7XVJ3pbznne9R5YvXy46k9D3vv89r88fyBl1uuhPfOwTrimjnXX9/Bc/L/VmXBwSAggggAACCCCAAAIIeC8QGp+c8QXvs5MTAQQQ8E6gxEwN3m7GnampqZGKygqvBqzVM3tTTqjpVpduWgGdPXdWXtrykrSaqcqDMVlj6JhuZ2VlpqWTGedHx1hR807TbW+X2d5hxuAhIYAAAggggAACCCCAgPcCtFTx3o6cCCCAAAIIIIAAAggggAACCCAwiQUYqHYS33wuHQEEEEAAAQQQQAABBBBAAAEEvBcgqOK9HTkRQAABBBBAAAEEEEAAAQQQQGASCxBUmcQ3n0tHAAEEEEAAAQQQQAABBBBAAAHvBQiqeG9HTgQQQAABBBBAAAEEEEAAAQQQmMQCBFUm8c3n0hFAAAEEEEAAAQQQQAABBBBAwHsBgire25ETAQQQQAABBBBAAAEEEEAAAQQmsQBBlUl887l0BBBAAAEEEEAAAQQQQAABBBDwXoCgivd25EQAAQQQQAABBBBAAAEEEEAAgUksQFAlAG5+YV626IuEAAIIIIAAAggggAACCCCAAAITR4CgysS5V9QUAQQQQAABBBBAAAEEEEAAAQQCSICgSgDdDKqCAAIIIIAAAggggAACCCCAAAITR4CgysS5V9QUAQQQQAABBBBAAAEEEEAAAQQCSICgSgDdDKqCAAIIIIAAAggggAACCCCAAAITR4CgysS5V9QUAQQQQAABBBBAAAEEEEAAAQQCSICgSgDdDKqCAAIIIIAAAggggAACCCCAAAITRyBs4lSVmiKAAAKBLxAWFia5ublWRSsqKqSjoyPwK00NEUDArwKhoaGSl5dnnbOyslLa29v9en5OhgACCCCAAAK+EyCo4jtLSkIAAQTk5ptulnvvuVfq6urky1/5MiIIIIBAP4GrV6/KA298QPLz8+XVXa/Kbx77Tb9j2IAAAggggAACE0MgIIIqISEhEhERKaEhodLR2S5XrlyZGHrUEgEfCjzxb/eafwOee+Q99OknpevKNR+ezX9FrX/HZyS9YJHHE+769delquiQx30TcWNCQoLcduttVtWfe/450QenkabFq3PlpjfMs7I11l2Wn3xrx0iL8PnxSakx8sB7VljlHn7tguzfcd7n56BABLwR+MCnNktkVLhUljbI7/93nzdFeJ3n7ocWy6xFU638xw+Uywu/Pzaisp5+9ml5+EMPy9o1a2X79u1SUVkxovwcjAACCCCAAAKBITBuQZXYmFhJTk6TpMRkCQ8P76Vx9eoVaWxqNH9glElXV2evfawgEKwCmamxJqgyxePlTZniebvHgwNsY1RcssQmZXisVWh4hMftE3XjPXffI5GRkVJbWyN7Xtvj1WXExEXI1JxEK29kpHdf0REmX0ho92emva3Lq3o4M2l5s3seHivMwyvJtwJhYSESFhFqFdrZcUWuXb3u2xMEcWlZeUkSHRshV7pGHsAcLUuiCTba/1bLi+tHXNzJkyelqLhICgsK5YEHHpBHfvDIiMsgAwIIIIAAAgiMv4B3f7GPst7ZWbmSkd79646nokJDwyQlOdUKuJSVl0ptXbWnw9iGQFAJPPy1l8QZOvmrBxfJinmZE/4a9//f9yU8Os51HbkLN8m8zW9xrQfLQmpqmvWLs17P1m3b5Nq18WtZ9PYPr5W5S6fJdfNs/pn3PhEsxEF7HetunSl3v22JdX2Pfm2rFJ/i/3lBe7P7XNiWLVuk8P2FMmf2HJkxY6acO3e2zxGsIoAAAggggECgC4xLUCXEdPOxU0tLs7S2tZhB2i6b7g1dEhkRJakpaRJjWrJot6DcnOlmX5s5ptXOwjsCQSlw9GxNr+tqbA6OAU4bL5X0uq7kaTN6rQfLyob160VbFGkwZf+B/cFyWdZ1dLRfkWP7y63lS2WNQXVtXAwC4ylw7PgxaWtrM3/zxMimDRsJqoznzeDcCCCAAAIIeCkwLkEV/fm0vqFOLlVVyuXLbb2q3ixNUlNbJXm5BVZwRR9S8vIK5cTJI72OYwUBBBAIFAGdyUPHRdB04uQJaWlpCZSq+aQejXVt8ovvveqTsigEAQTcAjru0oGDB2SjCagsWbJE4uPipdn82ERCAAEEEEAAgYkj4HlUzDGuf3nFBTlfcq5fQMV52nLT7cce5DEqMkrCwnqPu+I8lmUEEEBgPAUWLVwkcXHdXZz0AYmEAAIIDFfA/s7Q4Oyq1auGm43jEEAAAQQQQCBABMalpcq160OPNXD12lWrS1BsbPeDSkx0jDQ10+x8vD83SfGRsnJ+phRkJ1qvxNhIqaxpleKKRnnu1fNS03B5yCquWjBV5uanyCwzwGByQpQUlTfKWTP45WvHKuVSbe+WS30Lu2NdvkRHhUmD6Rqzdd8FCTcDPC6ZnS5L52TIoplpUt/ULqdK6uWPL5+Vy2bAx+GkZXMzZMOSLJmaFitpSdGmq1mX1Da2y7myBnnl9XIprxpeq4PRXNdw6jnSY+Kiw0XrNCsvWWYa61DT6uv0hXo5fb5eth8ok6vXJuZgmNEJqZI1Z7UkZRVK0tQC6WhrlobKc1JXdloqTu0VayCRYWBlzlgqGTOWSFrePOm83CxVxUel0uRvqa0wsxUtlJjE7sF1Sw69PGSZc+fOdZ2xqKjYteyPhbDwUFmxMb/XqZLSYqx1Hd94zU2eu1sd3FUinaZbj6eUnB4reTNSPe2SqvImqbww8GC1GVkJUjAn3cq7d3uRLN+QL/PM+C7ahej4gQo5uq/M2rfc1HmOGfw23AzQevZ4lex68cyQty6nIFlyTb10cNLUzDipq2oVHTj3zJGLUn1x+L/uz1qQKdmmrGm5SRKXGCXapUmv6czRS9IwxHeQzs6kdW5r6ZQTr3uerSXUfC8tXZtnXWddtfl+7DNGipahg6vaKW+m23r+sixRw77p3IkqqRnBNfbNP9J1vYbZC6dKZnaCZJhXsvl+bDLf77WXWuTI3jJrtp2hylTfgrnpxjmx+34ZC52l5/zpGik330PDSaGhITJveZbkFaZIVn6yuectxrNGTh2qlLbWkQ1kH2W+E2cuzLQ+P1q3KWZgcK1Pufl/hs7eM14DBJeUlFjdBrXL89zZc0XHWSEhgAACCCCAwMQRGJegynB5rusoiz1Jgyyk8RW4bc10+fhfrpAEx8OA1mhpzwPUB9+0WH774mn5f78+6LGi+pD/T+9bLTeuzO21f7kJamhqvdwlX//JXtnyWmmv/c6VD79liaQnR1uBk50m4PGtT9wodn77uNvWTpd7NhbIP353h1RUDxwQSTEBnS8/vMFVfzu/8/3v3r5MHnn8dfnVMyedm3st++K6ehXog5VlJsj0ub9eKxkp3Q/XdpFrF0+zFg+fqZbP/+cuqaofPIhl5wuU9+z562Td2z4tEY6Bb7VueYtvsKpYcXKP6DTNHW1NA1Z5ypQQWX7fh2XOpgd7HTN96c3S1dEmL/3XJ2TuDW+R3IUbrf2lh7eah333d1GvTD0rM2fOtJa024/O/OPPFGmCjPe/e/mApxxo30nzUDpQUKVgdpq85a9Weyxz61MnBw2qFMxJc9VHAx+b7pztKmfZ+uny6x/sth6wb3/TQtf2eSaQkJoRK3/+5euubc4FDWLc8/Yl/QJEGrxZYQ7UmV+e/NUh2fPyOWe2fsv6UP2m96+UhStzeu0rNA/+mjrMd9Dv/3e/6LTRAyWtR4L5DqowD+IDBVW0vm/+QHeLg9d3lfYLqtz8xvlWsMLTOTY6vJz7H3/0Nb8FVbJN8OItpv6ZPbNQOeuhyzfdN09KztTIj76+zbQo7f8jiXbbvem+uXLL/QvM2GgmsteT7GCb/nPaZj5HL/z+qAkmDPxvS2fC+ouPrLcCM3YZM+ZlyKrNhVJd2SyPfu1le/OQ7xrceeivV0tin+/EOYu7B83XQM9v/mu36DTm/k5dXV1SXlFuxpDLlYKCAms8ufEc6Nrf18/5EEAAAQQQmOgCARtU0T/KdLBaTfpA08ZAteP6WfvCB9eJBivs+6GtQbR1SZP5pbDA/IqprSG0lcfiWd0PJ30rG2seZn78hTskO6O75VGt+cXzoPn1tto81M8tSLHy6TFf/vB6yTa/kv/8qRN9i+i1rlMPf/FD662AyoniOjlTWi+JphWNzpajQQ5tSfP371wu//id7b3y2Sv6h/4XzbnsgJAGX3YdrpQ600Il3gSNcszD4ILCVKslTfQg09r6+rrs+o3m/R13zpWH37rEGjRVH14OnqqyfLRVj7YQmm+uS+/TT750h7zvC8/LxdrW0ZzOb3lnr3+jrHzg76zz6XdCzfljUnvhpOiUzRmFiyTGTNucNXeN3PWxH8oz3/mwdLR6bk2x/h3/JBpA0aRBlKpzh6SpqlSSs2dZ5dz0ga9JW8PwAyMJCeaX/PTuwGBp6cABQeuEY/CfK1euWS1AnEXnzUyROBM01KStQzylwaagbTb/DopOumegiYgMlRzz73Skad0tM2Tn82dEWz2sNg/COs2zBjU06HDK/HurKGmwWnRoy5g1N8+Q5353tF+gJ8F8r3zgU5slfVq8dfqm+stWkKLetChJM/9O9SFbW31o8EgDM08/dthjNSPN98LffvFWSen5DmpuMNdovoO0vBwTRJg+K030mLc/vFZSTH00eDRWSVudaIsPO2nwSVuEaNKHe20F0zfpuDb+SOtumSn3vmOpa0ruGlPPCtOqpM60SEw1djqFsN4L9dL7aYYE6ZfUcNGq7sCVThGtLXUuljWZFjjxVismDW7deO9cyZqeJP/7Hzv65dcNei8e/pdbrACcrteb8xedqJYuE0DToJ8GfN7/yc3WZ0v3D5Y23TVH7nrrItd3YvHJKhMYbLTyagAp17SCyTdl/t2Xbpfvff6FIVsrDXYub/dpaxUNquiU7PpeUtp7gG9vyyUfAggggAACCIy9QMAGVeLMYG3aFFaTzg401C/FY081ec+gLVTsgIp27/nCD3fJQfNHqTNpkOJtt8+R9UuznJtdy2+5dbYroHLA5P3Ud7dLm6PrwdpF0+QrH9kgURFh8p77FsifTbcB7eIzUJppmm7nZsbLv/xgp2zZ6/5VOSs9Th759M1WC431i02T8anxUuqhyby25LBbuLy4p9Rc06v9uh5oEOKW1XnmoWHgX1J9fV0DXe9wt+ebbgMfMq15NCiprVC+9MPdVlDFmf+ejYXyqfeuksS4SNGWOJ/5/ivO3QG5HB4VI4vvfJ9Vt6tmlrBXf/VVuXBku6uuoeGRsvEvPyfZ89ZawZX5N75VDj71qGu/vZCaO9cVUGltqJKXH/1Haap2f36mzVklN7z7iybA0t3yxM432HuamUrZTvUNw+vSYB/v6f3U4Yvys+/stHZ1dnrunuPMp60rfv7/uo+3t7/77ze6plTuu88+ZrB37QajLztpd5SPffUOe3XY7y/98bgrOKH13HzPXIkwQUpt5fCTb3V/7k4crJCHP3eLaDePGabVWt/WH3c9tNgVUNGWKE/9+pB0dbqf5DXoog/x+lC84Y7ZctC0DNEuHX3ThttmugIqRSao8bPv7rS6JNnHzTZdkf7ib9dbAZ+b3jBP9m4vltZBvoPsfN68//kXvVvzaWsee0rl501gqW93IW/O4U0eDW7d/bbFVrBEg3VP/+aQ6ZZ1tl9Rc5dMc7VG6rtT74MdUNFWHz/+5napqmhyHabneP8/3GAFS9R8jmk9pwG2vmmdCbJpsEmTtqr6pRkoWetkJ20xtNHc76GSfnbvfHN3QEXr89ije6TYETDU/Cs25cuD71kp2jJGA0rDHZR5+9On5PVXuwOpDaMMetXXu7870tPTCaoMdWPZjwACCCCAQAAJdEctAqhCWhV9IMye5u4icvGS519aA6zaQVkdbaXxNw8tta5Nx+D4m6+91C+goju1Cfevnj0pn/5//R/QtTXH2+6YY5Wh45z0Dajojt1HKuWHvztiHRNlzvnOu+dZy4P95/EXTvcKqOix2uLk18+dsrKZj5E11oqnMmZPT3Zt/t1Lnsdy6DJ/wD/76nl5YY/nXwzH6rpcFfNi4e/evly0FY/eq89+f2e/gIoW+dQrRfLY891Gm1fkiAaYAj3N2figq8vP8Zd/3SugonW/2tUhO376eVfrlFmmVUtUXFK/y1pwyztc23b/5hu9Aiq6Q8dUOb71Mdcxw1mwB6jVY1tbR9/qR3+R18CCvs6ZsUYmctKWIHY6bwIpdjpnWhzYScezuNrzsJzW0xrF3qdjjSxdl2etavDljz890Cugojt0nI9f/WCX1XVHg7v3moftvklbPdgP4Npyom9ARY8/bcZlee633d9BGvjZfHf3d1bfsoJ5/d63LxUdo0fTH36y32NARfdpkOPbn3nOdd90m51uNV1+7PS4CWA4Ayq6vd6Mq/LLR3bZh8itD8x3LdsLWgcNkGnSYNyvzPHOgIpu1+BamWmlOFTS4Iu2qNHxUn75/Vf7BVQ0//4d502LqtNWUQtWZPfqbjRY+ToujP1v1VMgb7C8ffe1OlrjOr9T+h7HOgIIIIAAAggEnkBABlWyTEAl2gxMq6muvkaam92/cgUeYXDX6FbTSkXHMNH01I4iKRti0NaWts5+IGtMKxTtUqPpeTM4prOFivPgZ3cWS6dp2q3p9p6uRs79fZd1/BZP6dBp9wObXfe+x8VGuWeT0lYv3qSxui5v6qJ59DrWmIElNem4NMeLaq1lT//55dMnXC1z9DoCPeUvu8Wq4vVr1+Tca097rO61q1ekaO9z1r6wiCjJWbCh13Ha2iVn/nprW3N1mVwqOtRrv71ilaH9poaZnA9AbW3+6aIxzKqN+2HatcZOrU0d9qLV5cZe0Yfdyz3fG9otxJmcgQ1tNTFQ0q48B17tDn7mm3FWtHuRM+mAuPbAsDrGiQ6a6ykd3Flijc+i+5b0BHM8HReM27RVyHwzIKwmHa/k9R7Pga5VDfuOhxKXECkz5ncHaXVQXWcXMmc5GoCwAyLarUy7cTmTDiSsZWnS8W2cLZOcx+0zrYkGSzoYrbaG0aTlXCgaOAizzbQ6sf/Z23kGK9vX+9pa3d8dzu8UX5+H8hBAAAEEEEDA9wJhvi9ydCUmJ6Wa8QkyrUIuX26TC2WeWwmM7izkHq7AdMcvx8/tOj/cbL2Om2ZmjbDTvuMX7cV+7zo+y2kzNsrCGWmSmhhtzeyjrUU8JR3UdqCZhpzbBwqqFFU0uop9yLSiOXbOzCZhfjEfSRqL6xrJ+fseW2jGkbFTh+kecZNjQGBttWMl14KY7lXt1pgxzlY7dv5Ae49J7v5O0K46bQ3uoFnfel48c0Dm3fiQtTk2ufthyj7GWu+5fiugYj9B2Qf0vLfWX5TWxmqJNWO0DCfpNKh2YnBJW6L73fkw3OnostPVp1uTfVxUdO//JWX0fKb1AX6qmfFHX5rsj7O13HNPtYWjJm2tog/TpefcQUV7NiTdf/aYu1uTrjuTziaj47xoC5l48x0UZroA9m0h4Tw+mJbtMWv0mg7tLu0XMBnOteoMQXbSGZ0GS2ePVbnG6dF8OnaLnZJ7Zq/SdR1HZaA0VEsue5waza9jCC3sGedF1+3PkP250W3a3UuDOTq7lL+T87vD7vrs7zpwPgQQQAABBBDwTqD3X7DeleGzXPFxCTI9r8Aqr7OrU84VnzF/2Hl+qPbZSSloUIFcMyaJnSpMs21v0tTU7lZHmlenKh4s1ZpfnDXp81GmmaVhoJYxVYP0X9eAgp10jBZPafv+Mik2UznrgLY5ZvBFHUT3gvllVVu5HDUBliNna+S8YxwAT2WMxXV5Os9wtznv1b03FIq+hpMKPEzfOpx8/jomMjbJdEno/tW6vXngX5q1Ppeb3Q/SsT2BGLuezvX2psHLaW+uH3ZQRWf8sVNMjPuzbm+bzO86qKidrjj+XdpBFNe+ru7v+UhHCzIdYyWl5yFdZzh659+ssw8f8l2nAHYGVZwP+zoI72DJ3q/fQYnmu8s5oOxg+Sb6vjTHd71OA+1NSnJ812vrocFSs+m2ZSdn0Eu3JTmCM81NA5dj3yu7nL7vzmtaeUOB6Gs4yRmMGc7xvjjG+d3hi26EvqgTZSCAAAIIIIDA8AQ8P3EOL69Pj4qJjjVTCc60xlO5aprxnys6bUb579+VxKcnpbAhBXQwWE06RkeNoyn/kBkdB2Smun+91Nl1Bku1je4/tKeaP6wHCqp0DtCCZbCynfuumGlAP/6tbfLp9652dZnRoIS+7GBESWWTGeflsGwzARhPaSyuy9N5hrvNvld6/LmyBjNFtecuDn3La2p1d8vouy8Q1mOT3S1GLg8VVGlytzZyBlH0OmIS012X097iPs610bEw0MxBjkNciwRVXBT9Fq6b7w07OQcb79tIyN7X09jEyqKtFXQsDE3tpmXapTJ36zJr4yD/aWvp/ZlOckyj2zLEd5DzQV2DBJMmqOLogqPj+niTegVVRuTs/n+EnjcxpbvLqS63OLqN6bozaQsmDdD17e5lH2MPdKvrF83nR8dnGU7SFkv+TrGxbgPnd4q/68H5EEAAAQQQQGDkAgERVImMjJIZhbPNAJuhVssUbaHS3u5+uB75ZZHDVwL2+Cc6+GlEeIi0O35tHu452s3AkHaK6BkE0V7v+x4Z7v5I6qC2Y5m0tcvH/2Or5GclykYza5FOr7zITDWsUzJrmj4tQb76kY3y7z/bJ398+Wy/qgTadbW2ux8Y/vOJw2aK6OAY4PlKpzsQFxrWPTZPv5vRsyEs3L3/Smfv75DOy82ubOFR7gcY10bHQnjk8FucNDQ0uHImxCe4llkYnYBz3BMdn+O/vvKy1wXq4LR2sgditdf7voc7vqO6OtwtbfoeF2zrTm9tGeRN6nR4hZv/XwyWnIGQLsf90TydjjFvBitHu+7odN0DJWc5zz5+xOMsQwPl9fd2nZrdTr6YRcwui3cEEEAAAQQQGHuBgf8aGftzW2eIiIiQmTPmmL7rYWaQuOtSfP6smUHD3ZzeT9XgNAMIaJcYO2nLEW/SRcevnqlJUYMWkZro3n+x1j1w36CZRrnzvBlf5Rdm4NZ/+PZ2uesjv5ePfH2L7D3uHnfhw2aKYp0FqW8KtOty3quUBLdj33pPtPW2eve9iE5IHbT6UfEprv2tjny60bkeneA+zpXBseAsx7HZ42J1TbU0NXUPpp2bm+vxGDaOXEBbjNgtC+JG+Xmud3yXxA/xHRTn+A6qr/WuxUZMz8DcI7/q8cuhgSs7ObtL2duG897g8Io3U10Plno79/6ub3Dcr8HufWx8hDWGzkDnqb7kvqa4xO4uhAMdO97b83K7Z7nSLs8lJSXjXR3OjwACCCCAAAIjEOj/pDiCzKM9NCwsXGYWzjEtICKsgMr5kiJpah5+E+/Rnp/8QwuUOv4oLcxJGnKcEU8lOoMjzsFdPR07Lb07cKMD1NY5ugJ5OnYstulsFgdPVcmhb1bLv3/sBllrZsbRliuFOYlmMFv3eB167rG+LmfLEw3q2DMjDXTdpY6HooEG6B0o72DbP/LwRyQrO7vXIY8//pi8fuj1XtuGu9LV4X6ACosY/MFLy7xipkvW7jg6torVpUf7iPTtP9Jz8riUaa5qOIMoutG5npiZ7zqu74LOHBST5O4q1He/p/Vz587JsmXLJDXVDHAaFy/NLe6HOU/Hj/U256wsg3CNdTVGXX71xRYzmGmy6AO4PS2uN4U2OAK7QwUMUnq+g3SAWk9dhdpaOiXBzIhmzybkqT46FstIUt/7NZK8vjq2xljbaWque9Bre9tw3utr3P+2nYPNesprO+s+5/3RdWcQzNmlSPc501D3ssbMYmSnxJ5Z7Oz1QHrXgWntgOyFsgvS0dG7+1og1ZW6IIAAAggggEB/gXFrqRIaGmYCKrNFu/5oKi07Lw2Ngw8e2b/6bBlrgaNnql2n+Iu751kDyLo2DHOh2DHTzu1r8wfMNTsv2epyowdo65EBnpsHzO/LHdfMyV87etFVZGyfqV51x1hfV3mV+1fy4bQS0tmL7NmS7tlUaM2e5LqAUSxEx0RLnOnv73xpyzJvU0utu1tSXErmsIppvNT9y622VMksXDJgnunLbnbts/PYGy431Yq9LXPGUolLmWrv6vWet/gG06XA3Y2o184BVs6cPePak5+f71oer4XmnoCkBlQG+6V/vOo33POWmgGjNeksPCs2Fgw3W7/jqhyDTi8dZKrkrOlJYs+CU23yePoOauwZW0pbYthjvvQ94Yy5GX03DbruHMcl3tFSZtBMPt6pY47Y3aSWb8g3sx+NvLWbjsViD0I8b1mWDNSNSLvsLFyZY12BTqntnPlHN+qUy3ZatHrg1l+LB9mn+cvNd6I9e9PKTQWDdhWyzzce79OmTRNttavpzBn3d8l41IVzIoAAAggggMDIBcYlqKK/yswonCXR0d2/5pWVl0hdXfcfzyO/BHKMpYB2g9l9pNI6xZzpyfKmW2YPeLoQ8wS3YUlWv/0HT1bJqfPdATNr3JKZaf2O0Ye/v7xnnmv7r5895Voei4V8M+NNmJldZLC0eJa7nmccf+Tbecb6upxBm3uG8UBZa2bT+OUzJ6zqZZlf2992x1y7qgO+6/1IjPNvs/jm6jK5fq17rIr85bfJFPN9MFQ6se0J1yE6ZbKnPEnTCiV73lrrOD1H+Yldrjz2wvGXf929aD5wy+79kHko7h0cioxJkPk3vd0+fNjvBw4eMAGt7jFtFi9ePOx8Y3Wgs8XAjPkje8Afqzp5U+6WP52Qyz2Dht7yxvkSGz/4Z1W73RTM7d/KqOhktZSf7x6cuMB85qebKZP7Jv0O2nyP+9/MjmdP9z3EWre7uGigZ1FPYMB5oLZgWXfrTOemIZfrHbPtzJg/vEDjkIWO8AB1Vm9NOt7JPe9YOmgQYvaiqf32a0Blz5ZzVhkRpnXd+ttmWct9/7PKzMJj38sDO89bUxk7j9GgStGJKmuT3q8s8/+evkmDhcs2TO+7ude6zkC0/enu/5ckm+/ETXcO/P8vO6OeLyZuZEFVO6+370sWuwPFe/fu9bYY8iGAAAIIIIDAOAmExidnfMHf556eVygJ8d3Nizs6TL9509Q1zjSZH+wl5g/ezk7/j8jvD5vkxO4B6uob3U2V/XHe4Z7jRHGdvPHGmWYg4SmybvE00Qf2skst0mT+CNdfcpPMg44O8PqFD66TZXMz5U/buv+odpavUynftrb7D+Bb1uSZ/M1W9xmdhUe7/HzsnStc+3VsEB0c1tOvxBoo0FYjWt7/be1/Hj2nDoZrB2iKzK+vWz3M3vORh5bJJ961QhLMH8/Npjl/q5kV4or5xVSTBhk+8MAiue+GGda6Xv/jz3sO8vjquqwT9fmPGt+8Ktf4Rsn8wlTR8Wg0EJRhZjLJNtNAJydESnWfGZmOmy5Kd64vkLiYcFlpHs5m5iWJdgtqNvdKuxiEmwdBHYD35lV58pn3rxFtffTUK8XS2Ge2FGdVNqzfIIkJ3f9e7e2HDh+SisoKe3VE71dNd56YxDRJyZkt0WYMlPT8heZeX5eoeNPNIzXLerXWmwcqxwdAgyTZ89eJtlSJT8sWDaDUl5+RzrZma7rlaXNXy+b3/quERXQ/dO//0yPSUNH/86EtVfJNaxYNniRmTpe06QvkmpltbMqUEMmau0pWv/njVvl6/oiY7pmvjr7481518XSxXV1dkpGeIdmmm1R6Wrps3bZ1XKeD1wE6V99UaM2mNmNehvVrvQ7qGWGmGI81n2996Yw6DmLXZUWYQUo1OKGtDOyXdsFYsSnfOqbCPPBWlpjuWI79+hBut1DQ7jpzzcDPml7+8wnj2/3vSoMNG27vfsg+8lqZOFuPrLtlpvWQrQ/Txw+4P1dapg5+OmfJNIky/+51StxWMxuMdsuxW1Voi4rcGSlyyxvmy5vev0qizLTMR/eVWed3/kcfsJes7R63YvGaXGtWHx2746r5DtIH7vveuUyW9uzX8UX++NMDHn0ut3W5pubVAI5eh5YTYv5tTjeB2Hd9dIO1bLfS0BYgx/aXO6vSb1kDGis25kukucZp5t9stHm/atzUVe+F3i9dvzrKWc/6nbjPhjLzXaetP2LM+aaaLo8aOKk2XWi0y5M6aaBE63fHWxbJ3Q8tlq1PnnTdX7uoytJG0fupU2JbAT1z+6vNTGp6HzWQsvbmGXKvCdjo51E/G7/8wS5pN6Z9k876s2z9dKt15OLVOVJ5oVEazeDimrLzU+RdH9sgzq5Beg/27zhv0JGYugAAQABJREFU7Xf+54L5TtRyosx34kzznTgtN0mqzf1t7/lO1OCYtk5atCpH3mw+PxpY03L0mv2V3vH2t4tOqVxUVCQvvvSiv07LeRBAAAEEEEDARwJhPipnRMXoGCp20u4/06Zm26sDvl+8VCEt4zxOwYCVC/IdGuT47PdfkU+Z6Yd1INm7NhRYL+1q0mYezBIdvx5rAMJTeuX1cvn1syfl7XfOtQZ9/fLDG6yH/BaTP8E8NNhJgwRf+tFua5+9bazedTDXd90z33rpw2V1Q5sJHIWIbtdfrTVpsOFffrCze8XDf8fyurQL0jd/tl++/tFN1rgu95vAlr7sdO5Cg7zrc8/aq9a7zs70ye9sl3/5qzUyy3Sn2rw8x3ppQKW+qV1SzP3Th5nxToef/6lkFC6WhIw8mTprufVy1um3n7tfnLP16L7dj/+73PDuL5mgyzTJXbjRenVebpHwyGjTciXUlf3s7iel5PUtrnXngraQ2fLDf5DN7/+qJE0t8Hju3Y99Q7IXbLDO48w71PLOnTtl9arVpkujCTIuWiQHDhwYKsuY7a80n409LxdZD7AazNCH2L7pG594ygoG9N2++e65cvMb3K3G+u5fb1ph6MuZtNvHv/3D085NPlvebVo+xJgBSW+6b57VguDNH1hlla0P4vpR1kDEcNKJ1ytEW59oawUNDrzjb9ZZ3zM6GK5zfJQm8x30+KOvDfgdVHKmRvSlARQNErz7YxtdgQXtDtTa3CE//fYr8vDnbhlOtaxjNHj09G8OyUMfWmMNvLrR1FFfzvTEj16TAztLnJt8vqxBm599d6e89a9Xm7FsUqzXBz9zkxX01CCHtg4Z6uujxXzP/PZ/9sqb3rfScr71gQWiL3WxW6doxbVbzv/97IA4W+k4L+j0kYuyzbQy2Xz3HOv+vPcTm6w8Wkc7YKVBOw3SOO+fswxdVlu9H3pNGhBasCLbeul3ogbodADb8fxOLCwoNGMxdbeKfGXnK32rzzoCCCCAAAIITACBcWmpkpqS7uo/PFyjltbmoA2qBHpLFb1HF0zLkqd2FEmaGUcgJzPOajGhLVeizMOJJg1K7DHdhH7y52NS4WjKbu3s+c9rxy7K6dJ6WTYnQ2LMr8n6h2yk+SVWk/6Bu/NQhXziW9usViw9Wfq9+aqlip4vxjyM6fVo6w19UNAWMDHm13dd1hY0T71SJF96dLdUOga57Fchs8EX1+WpXN120cym8eLuUqs1kLZS0QCU/QCgQZI/eJjqWbc/uaPYMp1lfpVVY81jm2u5OujtrsOV8nMz69Gh09UDPkDqsb5uqaJl6nTHRXuftbrfhISGm5Yj8b264hx/+TfmV/nevxS3t9RL0b7nJN4EVRIycs01hUioCdDquyYdzHbPE98Uq4uPpyYY1lHmIau9Vc4ffNEKxoSYsVOizAC4Vzouy6Uz++XYll+aczwvhStuk/j0HOvYY1t+1ZNz8DedWnnmjJndg9XGx8uePXsGzzDGe08dqrS6vGhLBw3QaSsVbT1gp53Pm6nrTUChb9KWLdoFYiRJAxxaniZftlSx61Bsuu+cOFgp08yYJzqWiX6edWpk5/TIOi7H3m1Fsvulc6IBAE/pzNFLUmFa2WgLk8ie7yB7al/9TjhpzH7yrVf6jfHRt6wj+8olMydB0qd2t2aaYr4LTaXkoglm/fo/d1v5b+zpSjSclipa/qXyJjlqWrRoixxtuaUtKOy66f7jB8qt1hq6PJZJW2hoS40r5jsiywRmtQ7Wd3XPd6OeW1sUvfD7o1JW3N2lqm999Fq0dU7ujFRrUF/dr4EsO6mJOp8+7B63yt7nfD977JJokKvQ3C+91yHGWV00ULLjmdPy/O+OWi1LtI4DtVTR8vTzsG/7eevfgbZU6X1N5t6ZpNd7ytRn21Mn5fzpmkG/E60MPvrPfffdJ1lZWaKziD3x2yese++joikGAQQQQAABBPwkMCWrcGF322w/nZDT9BcozOtuqVNUOngT8f45x2eLjp2iXXYKshOth3wNOpSa5t3aFWa4KdU8GOkDv3ZhKTJ/gBeXm0ESzR+1/k4aGNLrSE+OMQGWKGk13SZ0qmTtnqTdm0aaAuW6nPXWOhWaMWR0sNt683BxyTShv3CxSbRVy0RNOhaKzuCTNK3ABFNM94vKImlrdA+qPJLr0tl+NIBz3Uxlaqe7PvZDSc6aaboYnZVnvvNBe/OQ7zk5OfLJT3zSegh95AePyKnTnruNDVkQBwwooA/Vaaa7Rqb5d6sP2fowrS1l9H0kSadW1gfsOPMdpEEAfemD9UiSzj6jrR/MV6IUn6r2a5eRkdRzNMdq96qM7ATRa9UAR11Vy5BBJ+f5rC5NZjahVNNlsc7cJw3IeOru48zTd1l90023xez8ZKk15y83wRztjuRt0nuvnx/tPqStVRrMd6J2+dJgjT9TZmamfObTn7G+L/77f/5bDh857M/Tcy4EEEAAAQQQ8JEAQRUfQY6mmIkWVBnNtZIXgUAX0IDNg5//nUREx0np4e3yys+/OKIqv/Md75Q1q9dIcXGxfPu73x5RXg5GAIHJI/Ced71Hli9fLjp72Pe+/73Jc+FcKQIIIIAAAkEm4G6PG2QXxuUggAAC3ggUmBmJNKCi6eLpfSMu4s9P/llqa2utfDr4ZFvbyFpQjPiEZEAAgQknEBoaag32ffGZi3Lw9YMTrv5UGAEEEEAAAQTcArRUcVuM2xItVcaNnhNPQoEVb3jYjMUSKefMmC61pd1TyNoMeYtvkNVv+rg184/OFPT0tz7Qq1uQfRzvCCCAAAIIIIAAAggggIAK0FKFzwECCEwqgbCoGJmx6i6ZufZea4Dappoy0WmeE9JzJTK2e+poHcx23x++S0BlUn0yuFgEEEAAAQQQQAABBEYuQFBl5GbkQACBCSzQWFks7S0NEhWXJGFmOuaU7Fm9rqbi5Gvy2m+/5fXAt70KYwUBBBBAAAEEEEAAAQSCWoDuPwFwe+n+EwA3gSpMOoGEjDwzPXOWRMUnmznBRRqrS6XpUql0Xm6edBZcMAIIIIAAAggggAACCHgnQEsV79zIhQACE1ygqcoEUcyLhAACCCCAAAIIIIAAAgh4KxDibUbyIYAAAggggAACCCCAAAIIIIAAApNZgKDKZL77XDsCCCCAAAIIIIAAAggggAACCHgtQFDFazoyIoAAAggggAACCCCAAAIIIIDAZBYgqDKZ7z7XjgACCCCAAAIIIIAAAggggAACXgswUK3XdL7LWFRa7rvCKAkBBBBAAAEEEEAAAQQQQAABBPwiQEsVvzBzEgQQQAABBBBAAAEEEEAAAQQQCDYBgirBdke5HgQQQAABBBBAAAEEEEAAAQQQ8IsAQRW/MHMSBBBAAAEEEEAAAQQQQAABBBAINgGCKsF2R7keBBBAAAEEEEAAAQQQQAABBBDwiwBBFb8wcxIEEEAAAQQQQAABBBBAAAEEEAg2AYIqwXZHuR4EEEAAAQQQQAABBBBAAAEEEPCLAFMq+4V5+Ce5cfONEhcXJ83NzdbrQtkFqa6uHn4BfY7MycmR8PBwaahvkPqG+j57WUUAAQQQQAABBBBAAAEEEEAAAW8FCKp4KzdG+VauWCl5eXmu0q9fvy7HTxyXX/zyF9La2uraPtyF5cuWy6233CqXLl2Sr33ja3Lt2rXhZuU4BBBAAAEEEEAAAQQQQAABBBAYRCA0PjnjC4Ps98uu8LBwiYyMksiISBETRJjMD/7aqqSmukbq6uokMTFRIiIiJCM9Q6KiouTY8WMjvh9l5WWyaeMmqyxt/VJaWjriMsiAAAIIIIAAAggggAACCCCAAAL9BaZkFS683n/z2G7RQEFqSrrExsZJTEyshIaE9jqhBlWamhql4mKZdHS099o3mVaio6Lln//5nyU+Lt4KNH38Hz7uVcDp3nvuldtvu11aTEuXL3/5S3K5/fJkYuRaEUAAAQQQQAABBBBAAAEEEBgTgXEZqDYmJk6mZmaZYEFCv4CKXmVISIgkJSXLvDkLJSNj6phc+EQoVIMfR44csaqqJokJiV5Ve+u2rVYwJi42VjZv3uxVGWRCAAEEEEAAAQQQQAABBBBAAIHeAuMSVLGr0G5aoVRVX5IL5SVSdP6MnD13SkovFJtWKg3WIVOmTJHsabmSEO9dMME+z0R+b2pqclU/KTnJtTyShZaWFmtcFs2zft16K2g1kvwciwACCCCAAAIIIIAAAggggAAC/QXGJajS1moe8k8ekRPmVV5RKjU1VdLY2CDNLU1SW1cj54rPSFm5e+yPnJzp/Ws+SbZ0dXW5rjQiPMK1PNKFvfv2WlmSkpJk4YKFI83O8QgggAACCCCAAAIIIIAAAggg0EdgXIIqnV2dQ46VUl1zSTo6O6zq6gC2YaFMVNTn3o1o9ejRo2IHaNatWzeivByMAAIIIIAAAggggAACCCCAAAL9BcYlqNK/Gp63tF92D6gaZQZtJXkvoAGVC2UXrAJmzZxFFyDvKcmJAAIIIIAAAggggAACCCCAgCUQ0EEVnV7YTl1X3N1g7G2T4f26mWLaTlNCptiLXr2XlJRY+XT2pby8PK/KIBMCCCCAAAIIIIAAAggggAACCHQLBGxQJS42XqKjY6xadppuQPqajKnVTINsp4SEBHvRq/fzJedd+WbOmOlaZgEBBBBAAAEEEEAAAQQQQAABBEYuEHBBlbCwcMlIz5TCgpmis/9oSw0dtNbZYmPklzlxc9Q31LsqPz1vdAP2NtR3z6qkBaalpbnKZQEBBBBAAAEEEEAAAQQQQAABBEYuMO6jv2prlBmFs62ah4aE9hrrQ6dcLjPTLTc3u6cVHvklTuwc586dk/r6eklOTpa1a9fKntf2SGlpqVcX5Wz1Eh8X71UZZEIAAQQQQAABBBBAAAEEEEAAgW6B0PjkjC+MJ4aO75GRPlU0oKItU+zU3t4upWXF0tLSbG+alO/Xrl2TouIiyZqWJakpqbJ2zVprPJTc3FyZPn26pCSnSEVFxfBsDO+tt9xqHdvW1ia79+weXj6OQgABBBBAAAEEEEAAAQQQQACBfgLj3lJFZ6W5VFVpVSw0NFQiI6IkNjZOoqKiZPbMedLY2CDnS8+JBhcma9KWKd/6zrckOztbNqzfIKtWrpKFCxZaHGfOnpG9+/YOi8ZpGBIacD2/hnUNHIQAAggggAACCCCAAAIIIIBAoAgEQFClUyoqy3p56Kw/2Vl5kpyUIomJSVKQP1POFZ3udcxkWklMTJR777nXCqaEhISIjrNy+sxp04qnxQSkLg2bIiYm1nVsa4t7AFzXRhYQQAABBBBAAAEEEEAAAQQQQGDYAuMeVPFUU229UlJaJNo1KDYmThLiEyXevJqbGz0dHtTbtEvU+9/3Ack3XX00vfjSi/LkU0961XInNrZ7NiUtRwMyJAQQQAABBBBAAAEEEEAAAQQQ8F4gYPuA6Gw/1dVVritLSkx2LU+mhYL8AldApfh8sfzpz3/yKqCiZs4pmZ2zCk0mT64VAQQQQAABBBBAAAEEEEAAAV8JBGxQRS+wvb3NdZ2RkZGu5cm04Jz6eP/+/aO69LzcPFd+HfyWhAACCCCAAAIIIIAAAggggAAC3gsEdFAlzIytYqfrk3SgWmfrkpraGpvDq3edLUiTNaNQEUEVrxDJhAACCCCAAAIIIIAAAggggECPQEAHVeLjElw3qu2yu9WKa+MkWHBOM331ylWvr1jLmZ7XHVS5UHZBOjo6vC6LjAgggAACCCCAAAIIIIAAAgggIDIuQZW01HTR6ZMHSzpAbUb6VNchrW3MVuPC8GJh1sxZEhPTPVDta6+95kUJZEEAAQQQQAABBBBAAAEEEEAAAafAuMz+k5uTb02Z3NBQJ82tzdJpWk10dnbIFDNdcGREpCQlJUtKcprYrTQazBTCTU0NznpPmmWdQtlO2m3H27Ry5Uora2dnp+zdt9fbYsiHAAIIIIAAAggggAACCCCAAAI9AuMSVNFza7AgJSXNeg12Ny6bbj+lZcWDHRLU++Lj4l3X19DoXWAp3IxNs3TJUqucffv3mQGA211lsoAAAggggAACCCCAAAIIIIAAAt4JjEtQpaKyTHS8lNjYOCu44qnqnV2dcvFiudTV14pOrzxZU2FhoevSGxq8C6qsWrlKoqKi5OrVq7JlyxZXeSwggAACCCCAAAIIIIAAAggggID3AuMSVLlUVSn60u49UZHRorP8hIeZqph17QrUYboCdZmgymRMubm5EmeCTfEJ8bJk8RLJycmxGM6ePWtMukZMomPX3H7b7Va+Ha/skKrqqhGXQQYEEEAAAQQQQAABBBBAAAEEEOgvMC5BFbsa2gLlcruZ1YfeKDaJPPSWhyQvL8+1rgs6U8/v//j7XtuGu7J2zVrTxSpF2tra5Nnnnh1uNo5DAAEEEEAAAQQQQAABBBBAAIEhBMY1qDJE3Sbl7nozKG9YeJi0NLdIU3OTXLhwQXbv3m2CT5e98tAuP08/87SUlJZYgRWvCiETAggggAACCCCAAAIIIIAAAgj0E5iSVbhw8g5Y0o+DDQgggAACCCCAAAIIIIAAAggggMDwBNzz9Q7veI5CAAEEEEAAAQQQQAABBBBAAAEEEDACBFX4GCCAAAIIIIAAAggggAACCCCAAAJeCBBU8QKNLAgggAACCCCAAAIIIIAAAggggABBFT4DCCCAAAIIIIAAAggggAACCCCAgBcCBFW8QCMLAggggAACCCCAAAIIIIAAAgggQFCFzwACCCCAAAIIIIAAAggggAACCCDghQBBFS/QyIIAAggggAACCCCAAAIIIIAAAggQVOEzgAACCCCAAAIIIIAAAggggAACCHghQFDFCzSyIIAAAggggAACCCCAAAIIIIAAAgRV+AwggAACCCCAAAIIIIAAAggggAACXggQVPECjSwIIIAAAggggAACCCCAAAIIIIAAQRU+AwgggAACCCCAAAIIIIAAAggggIAXAgRVvEAjCwIIIIAAAggggAACCCCAAAIIIEBQhc8AAggggAACCCCAAAIIIIAAAggg4IUAQRUv0MiCAAIIIIAAAggggAACCCCAAAIIEFThM4AAAggggAACCCCAAAIIIIAAAgh4IUBQxQs0siCAAAIIIIAAAggggAACCCCAAAIEVfgMIIAAAggggAACCCCAAAIIIIAAAl4IhHmRZ0yzhIaGyqwZc0XfNTW3NEvpheIxPSeFI4AAAggggAACCCCAAAIIIIAAAiMVCLigSta0HImOjnFdR3h4u2uZBQQQQAABBBBAAAEEEEAAAQQQQCBQBAKq+09sbJykpWYEig31QAABBBBAAAEEEEAAAQQQQAABBAYUCJigypQpUyQvJ9+qaE1ttbvC192LLCGAAAIIIIAAAggggAACCCCAAAKBIhAwQZXMjGkSFRUtLa3NUl9fEyg+1AMBBBBAAAEEEEAAAQQQQAABBBDwKBAQQZXIyCiZmpkl169fl7LyUqFxisd7xUYEEEAAAQQQQAABBBBAAAEEEAgggYAIqmi3H+3+U1NbJZcvtwUQD1VBAAEEEEAAAQQQQAABBBBAAAEEPAuMe1AlNSVd4uLi5cqVLqm8WO65lmxFAAEEEEAAAQQQQAABBBBAAAEEAkxgXIMqYWHhkp2VY5GUV5bJ1atXA4yH6iCAAAIIIIAAAggggAACCCCAAAKeBcY1qJKTnSehoWHS2tYidXUMTuv5FrEVAQQQQAABBBBAAAEEEEAAAQQCUWDcgioJCUmSnJRimZSVlQSiDXVCAAEEEEAAAQQQQAABBBBAAAEEBhQYl6BKSEio5GZPtyqlg9O2MTjtgDeIHQgggAACCCCAAAIIIIAAAgggEJgC4xJUmTY1WyIiIszgtFekopLBaQPzo0GtEEAAAQQQQAABBBBAAAEEEEBgMAG/B1ViYmIlIz3TqlOFNTjtlcHqxz4EEEAAAQQQQAABBBBAAAEEEEAgIAXC/F2rRDOWiqbr169LXGycxJpX3xQe5q5WdHS05OUWWIe0tjZLLQPa9uViHQEEEEAAAQQQQAABBBBAAAEExkHAHb3w88mnTJkiKSlpQ541PDxCUnuOM1kIqgwpxgEIIIAAAggggAACCCCAAAIIIOAPAb8HVTq7Os0Uyq2DXltoSIhERUVbx1y9elXaO9qt5Y6OjkHzsRMBBBBAAAEEEEAAAQQQQAABBBDwl8CUrMKF1/11suGeR7sEzZ45zzq8qalRzhWfHm5WjkMAAQQQQAABBBBAAAEEEEAAAQT8IuD3gWr9clWcBAEEEEAAAQQQQAABBBBAAAEEEBhjAYIqYwxM8QgggAACCCCAAAIIIIAAAgggEJwCBFWC875yVQgggAACCCCAAAIIIIAAAgggMMYCBFXGGJjiEUAAAQQQQAABBBBAAAEEEEAgOAUCcqDa4KTmqhBAAAEEEEAAAQQQQAABBBBAIJgEaKkSTHeTa0EAAQQQQAABBBBAAAEEEEAAAb8JEFTxGzUnQgABBBBAAAEEEEAAAQQQQACBYBIgqBJMd5NrQQABBBBAAAEEEEAAAQQQQAABvwkQVPEbNSdCAAEEEEAAAQQQQAABBBBAAIFgEiCoEkx3k2tBAAEEEEAAAQQQQAABBBBAAAG/CRBU8Rs1J0IAAQQQQAABBBBAAAEEEEAAgWASIKgSTHeTa0EAAQQQQAABBBBAAAEEEEAAAb8JEFTxGzUnQgABBBBAAAEEEEAAAQQQQACBYBIgqBJMd5NrQQABBBBAAAEEEEAAAQQQQAABvwkQVPEbNSdCAAEEEEAAAQQQQAABBBBAAIFgEiCoEkx3k2tBAAEEEEAAAQQQQAABBBBAAAG/CRBU8Rs1J0IAAQQQQAABBBBAAAEEEEAAgWASIKgSTHeTa0EAAQQQQAABBBBAAAEEEEAAAb8JEFTxGzUnQgABBBBAAAEEEEAAAQQQQACBYBIgqBJMd5NrQQABBBBAAAEEEEAAAQQQQAABvwkQVPEbNSdCAAEEEEAAAQQQQAABBBBAAIFgEiCoEkx3k2tBAAEEEEAAAQQQQAABBBBAAAG/CRBU8Rs1J0IAAQQQQAABBBBAAAEEEEAAgWASCAumi+FaEEAAAQQQQAABBIJTIDc3V8LCwqSurk4aGxu9vkhfleN1BciIAAIBL5CTkyPh4eHSUN8g9Q31AV/f0VQwJCREZs2cJcnJyRIXFyexsbFy4OABuXDhwmiKnVR5CapMqtvNxSKAAAIIIIAAAhNPoLCgUP7+o38v169fl69+/ateB1V8Vc7EE6TGCCAwEoHly5bLrbfcKpcuXZKvfeNrcu3atZFknzDHLl2yVB64/wEroOKsdGVlJUEVJ8gQywRVhgDy9+7bZt8ld817g8fTbjnznDx5/I8e97ERgcEE3jZ7pixMS7EO+cLuvXLl2vXBDmffJBZ4Q2G+vHlWoUeBJ4tL5PHT5zzuYyMCCIy/wIYlWfKmW2dbFfnh7w7LqfN1418pH9RgypQp8uADD1ol7T+w33rI8aZYX5XjzbmDPc+n/utxSZ2a7fEyn/rJI7Ltj7/yuI+NgSewYM0NUrBgiVWxLY//VNpamgKvkn6o0UtbXpJNGzdJZmambFi/QXa8ssMPZ/XvKbRFytvf9naJjo62TqwtUyoqK6S1tVUqL1b6tzIT/GzjFlSZN3eRhJj/SQ4nnTpzQq5c6RrOoRP+mOjwGEmNTfN4HTERsR63+2tjZFikhIZ0f2TaOlv9dVrO4wOBwsQEWZGRbpU0RfTf3cQKqqyfNlX+atG8EUnsKK+UHx87OaI8HCwSEx4m6T3/c+3rEWeawZIQ8IfAh9+yRG5elefhVNelrqldKqtbpcK8Xt53Qc6UBnezbA8IA27KTI2VNQunWvsfe+7UgMdNtB0rlq+QvLw865fiZ559xuvq+6ocrysQpBmj4+JlWv7MAa+uvOj0gPvYEXgCOTPnSNq0HOnq7JTLrc2BV8ER1Cg0NExCe/52udLZMaLWJhpY2LZ9m9x+2+1y1113y759++Ry++URnD3wD9XWOHZAZcuWLfLHP/Hjvbd3bdyCKhERESaoMrxxcvWXhcmSXineKicuHXVdblpcunxo/Udd6+O58PCGj8nS7BXmcfy6vOdXbx3PqnDuSSYQHRYqU2NiRnTVieY7hjRygRdLy+Rwda0rY2ZMtPzjymWudRYQ8IdAUnykZKV7/iEhKz1OFs7o/vHhXffOlxf3lMgPHj8kVfVt/qga5/CzgP4NeM/dd1tnPXr0qFRXV3tVA1+V49XJgzxTV0eHfPUD3S2J7Eu9/4Mfl/mrNpruWtfkgvlxlDRxBFIys6zK1l2qsLrbTZya96/pipvulPlrNlk7fv+Df5OmevffN/2P7r9l67atVhegONOiY/PmzfLsc8/2P2gCb0lJ6W7Frpfw2t7XJvCVjH/Vxy2oYl96V1eXNDUPPtjYtWtX7cOD/r2urVb0ZadWWoTYFLyPQuCUGWTLbhl2zfRHn8iprKVVjptBCodKx2r59XooI0/7ay63i77s1Gy+o0kIjKfA7sOVUnKxu/m5PhinJUXLzNwkyZsaL/qby21rp0uuWf7rL78gVyd518aK6hbZtr/Mul3aoicY0ty5cyU1tTuI9to+7//o91U5wWDq62u40tUpVWXnexWbNi3XWq+6UCIdl2nd3AsngFfCIyKl9PRxq4aXSosDuKbDq1pKT5c0Dfw1Nwz9t2PfUltaWuT4ieOycMFCWb9uvTz/wvMjau3St7xAW09OSnZVqal5cnbzcgGMcmHcgyrtphlV6YWJ/492lPeB7AiMqcDvzhaNafn+LPxwTa187/Uj/jwl50IAgXEUeObVYtMapbRfDW5fN10+/Z7VEhkRKnPzU+Td9y2QH/+fu6VnvwyTYMPuI5Wir2BKG9dvtC6nra1Njh075vWl+aocryswiTJqd6D07O7ue6Wnvb9nk4gsYC61y3SR2fnkEwFTn9FURIPwvmh1s3ffXiuokpSUZL0fPnJ4NNUKqLzhEe5u3Z2muxfJe4Hh9b/xvnxyIoAAAggggAACPhd4fleJ/OgP7gCrBllIwSWQkJAgCxYssC5KH2SuXvWu5bKvygku3bG7mtyZ80wrsu6u+wRVxs6ZkgcXiEtKkYioKOsg7crkbdJuh9qzQtO6deu8LYZ8QS4w7i1Vgtw3IC6vIGWGzEibJdOTCyQzfqpUtVySkvrzcrTydals8vwlEx4aLpsKb+pV/7RY90CnN8+6vdc+e+XV4u3SfmXsmhzfOT3XDJYbYnVP2HPxkjWg5srMdFmUlirxZiAq7eaiXUMOVNXYVRr0vcD8wTY/tbvp2+7KS1Lb3i4RoSFyS26OLDZlZpgBOxtN5PZ8U7M8fb6kV7eIvgUvz0iTWSaKXZgYL0mRkVae4sYmqy5Vlwce2OqW3GyJCguTc42N0tzZJXfl54nWS6/juZIL1jmz42Ll1rwcmWfmjy9tbrHqonUaKK2Z+v/ZuwrwOK6re21ZzCxZaMkyMzMGHXCYmzRpmqZNIU3hT9K0gbZJ2xTSppQ0bZiZHTIzMwktSxYzS7bz3/NWbzW7ml3tSitLtu/9vtXMvHnvzZszo915Z869N5YQh8TMVnEAV6SkdNUGsx/p4uQEFdMkhuNrHOeUclXNLVTU0EibS0rpMGPuSm+BHAB1YnQ0pXPQ3CH88eLnrWzGJ6u6ljYUFdMJN8bk6tiN9ZKDg9R9grLc2lra78Q9yJvvMeANl6k2Pt8vOM6IGWbxgQE0LTaGkkOCKZJ/uIP4HAvZPQnXBp+drKoxa4cxTIiOIlzXapak4n5dyll3xnKGJlzflQXH1L0MzC5ISea6kXwfthGC7+K+t7cwXx+aPTheFeN6ZFbXKJwncXDiMZER1MITEfxvbCstU+Oyb9/b2xlhoTQyIpz/N0JoMJ9zEQd/y+HrjvHAnetstFmp88jP249qm2tp69GNNGigNw2LGUEjYkZRRtRwqmmu4e/pHFqR+YXL36n4jh4ZO5qS+bs+MSyZ6lvqKJ+/6w+XHaRDpRY5txHr5PBUGho1TBVtyd9IdS2uS38RVH1mqkVBkFuZQ7kVWcauT9n6R2ty6PvXTlDHS+BYKz7eXtTa1nniHRrkSwunWtwRkBHnQG6lch2aPjaeFk1JpniO39J2/CQVlNTRp+ty1X5HJwH3oxncDi5IaYmhVNvQSln51XTwSCVtYpWIo6+yKaNiKTE2mKrYLWfLvmK6irP0TBweQ3lFtfTFxiO0P6eCgvy96dL56TR5ZCxV17fQii1Hae3OQkdDoVFpkYTzNrPtB/k3rcb13+OgAB+6eO4QSh0cQnFRjOWggap9Gceq2bKvhLYdKDHF1uzYUA6NTo+kYcnh6pwLS+sp82iVwie/2PFvl31fwzKG0UD+Pobl5HRfcempfhCMNW205X7bu3E11VSUko+vH01aeCFljJtM4THxHNiznorzc2jNB69RdVnn72t9jkGh4TRswjRKGTGGkoaNomZuV5SXTbvXL6cjB11XXAUEh9KURUuUMgRv5QOCQ6ie3RwwtsxdW+nAlnXU2tL1fRAaGUNTFi+hpIyRFBoRrVwlSlhJvn/zWsrdv0sP26Vl8vAx1nqukirj5ywmYFJfU0W71n5lbe9oZdS0uRQeHat271j1ucMMNd4cXy1jwnRKGT6asR5LXvy8VXwkh7L2bKNda7501H2vlWeMn0IDOXhqE2fU0W42uG7pYydRaGQ0wf0GbioI7pvHuDt6hsAAYxJTKToxhaIHJ1Eg3wfVfM0ri4/R4V2b6YQLrrthjF9s0hDTcz154ri6f0x3Oijs6Xh0t1phgmxSUYMTGZcYam5sUPdG8ZFsKsg+RF+bpDdOHjaaoJLSFh4Tp1fJLyCIhk+aYd3WKyVH8/j/tFhvmi5BqBwtOEpIx54xNEN9J52K9MrICFtYW0AHiveqeJamg5PCfoOAkCr95lJ4fiA+Xj50/aRbyJ4AGc4P7XP5cG0n2uiV7c/R8szPOx3cb5Af3TL1253KdYGjfTsLt7k8AdB9ubP87vgx5MMPWLt4slra2ES/nzODgg3SNRAssGVMRvydXUS6mqhPZCLk22MsWWUwGQ7ivn49c2qn7Ccz42Pp6ox0uuOrlYpMMI4ZE9+7J46nOYM7vryxH6QMrPH4cfrrjt20mifEZvat0SMp3M+X9x+jURwwKsrfwqqDpJnJWW8e2biVfjd7hrV8PE+w5yfG0z2r16sJvFmfd44b5TCw67pjxdTm6Knf0Bl+1H7AeJ/PRJaOx2LYrVZvGJFBW5hY+dWGLfa7bLZBev1s8vhOuE5hQgK2r6KSfrd1h1PSyqbDbmzgfgFxkcTkShNfk++vWEvHeHJvZreNHkGXpVseNP6z90CnhxpkwfnzvFmqL/v2o5nE0Aay5Pd8XrUmkkoQhPMTByuC56IhKUw4WWIGgAgB5j9YuZbuHDua9D2NPhdx/Ue3bKe1fA2NFhsQQN/nawV78eBhAoH0k0njrW8KUT43IZ5u/XqE+r/A/8epMB8vL7qD/79wfkYbC4xYGd7KD0VP79lPH3Oq5rPNrplwI4UHRFAeExL43vzZwl/QCCZEjAbSAuT2X1b9nsqYDHdmizPOp+sm3cyksI9NtWnJlrdq+J7H9z2+97WF+Ydbv+eb25ppfd5qvavL5fCYkda2/1r31z4jVeqY0Khh8gGkycCBAzi4bRDlHescpy0uMoB+dvMUdV7PfbiPMLH/3Q/n0qQRlu8gfcLInHPl4gz69X820rL1ebrYupwzIYEeuH06BQfa4rxwioWw2bD7GLfdpMZkbdS+csm8dDpnejJlH62myxdl0FQmWWDT+JgXz02j2x7+jO6+YZIibNqb0Pmsvnngn+tpJWc5MrPLFgyli5gIMbN7/rSKSRHz3x37+pctHErIuARSx8yuPW84Nbccp8V3vmW221oGV6wfXjeR0J/RJgzHb/MQRcr89dUd9N4K10i4oekd/Rw50v3vCU/1M/PCy2ne0uvVqR3avpFGTplFN/38txQYEmo8XRrNgTHnLb2O7r9qvsqgYrOTN0AgXHv3LykgKMRmF4iCRVffTKvefZU+evZJQqwSRwZyYMnN36M5l1xNvv6BptXmXHKtIlgeuO4c0/0oRD8XfuNOPu43rQSWsfI5195GGz59h9799+Om52Ksq9eTmcCAneDf2mMuZv6ZsvgiGjtzATXUVndJqkQwefWtX/2Rx+6tCKh1H5vflyDBbrnvMYpLSddDU8uM8VNp7qXX0sFtG+jVPz+sCCibCr204esXQLMvvlr1nrNnBx3LzaI5vJ06apzNEWOTh9BQJulCIqJMiR9c79kXXUkaZ904OpF/WMcTjZw6i9Z8+AaVFTj/nwEOuFfNrKKo0GVSxVPjwTjwv4T/MWBgZhhvA78YW/nOi1RWaOsWOnPJFeQfGGTWTKWI1mmijRW+fO3ZLkkV1Mf3D0gVJFpBJrK8vDxjN72yPnbwBLppym3qZfiq7K9oTfYKfuFS7dFjaUWZRzs9Szvre1JlAKfwDAgkf/6iwYVtYTYd6arOlhTKvXXf4WH53sUPUnxIgjpEVWMlHSrbT+UNZRQXHM9vM8dQoE+QeiiOCYql13a8aDOU4yeP0/aCLTZl6fxGM9TP8uBgv09XbDvh+AFA1/HEMpqJh0dnT1ckCBQHB6uqmHTwV2/0Q/gLDxPWcF9femij7Tk4O3YIEyr3TZ1IaI83A0Xsv13c0ETIfgJFwiB+YMck0WgB/DDy5IK5aj/KK1nBsYcJn3JWvAzjt/OjePKIOvdNnURxgQfpjcPZxuY26/MSBis1AVQR0+JilNIAqo5/L57HSoOT9FZmDqsh+G0rK1swxnNZSfHc/kM2feiNg5XVinTS2ynBwRTKagZ37BsjhinVDNrUM0sPJU8JExNemLiwegVjg9LCzw4T+2NcOTSNvsUkBf6/oWhBTBQoeAYxOQYFw/DwMAIR8Y+FcxWRAPKjN6yZ1RogJJ6YP5tVPIPoXr7WIKagvDHadMZeEypQhbxrEo8GaiaQMzCoi/Lq6qiISTlcfxBkOKdUVq+AGPv7wjl037pNDgkwqJLKWMn0+uEsSuE2M5TKCPfVHPJlbD/Ny1ckEIgJbF/BeNqTKsbxQzkDXEFYAOsjtfWsDApWKh0Qkj+aOI4CmRTq7Tg7UO48xv+jGieowPaUV6r7EmqV8Uy0gRAFGYT/r2eYvOoN8w8NpQBDdHt3j1GBBycXSEh3+9X1kQXvu7N/pAiV3IpsVqfkUrAvK+jixhDUIAmhSXTT5FuZWPmdbmKzxP/VD+f+lCYlTlPlUAoig9yxmgLC78Cw6BEUzd/xINdTIobQbz5/gE5yNg5YVvlh9V2HPqBmdIdUwe+BtsNlvXPtdP/Olt6spghmhYU2qEBcMSOhUlHdpNQiIGaSWEkCYiDQhFwA2XLPTZNV9/iN2JNVrhQt4cF+BNIgJoLVO+MG03MPn0+3PvQZVde1mA4lnRUuwZWN9MLH+yltcCjNmZhAAX6D6H8Pnk9+fOz3V2ZTExMYly1M5+1BdP0Fwx2SKgjgu/1gqfU40eH+6hysBS6sTB0dRz/9xmT1HX2cf2s2cGDgXCamWttO0uCoQKVcGTkkkvx8nT8yQsHzt58vpJR4C1FQVtVEOw+VUnFFI48piCax+iaEySiQWwkxQfSP13d2Obr0dMtkuIUVfcUltmRyl40NFTzVT+LQEapXBF6FouNmnrAP4P9hpJ7FG/Q2fobFZDAwJIzqOMsIyo0GAuPqH9xPM86/TBU31rNac/c2Kj2aR1ANjJo2RxEtC664kds208fP/cPY3Gb9mh/8gqafv9TSDyd82LtpNVWVFitiBIoBvLXHm3r7iaexk4H8m/Lth/9KIyZbyFeQIFClHDm0V8WiGDtzPg3y9qFZS65k4qGMPnv5aWNzh+vJrLyBFeVldcLAUaMSVveAVAF2+IBccWTn3/QdRahg//vP/MW0GsiLy7/zEzX+k/z7n7lri1J/QLEwbMJUVkAkqfO+5f7H6Mmf3t7p5Ylppz0sjIgbbO2hmvG8gM8DSgxYI19DYAyiLZjJFCi0Gli1Y29Qlsy//AalSMI+kB+4xkjqgeDAMUkpiow595pb6d2n/qiUU/Z96G0omPIP7debrLrypbhUy/9cBSteXDFPjgeqrdlLriIffp6H4f+n/Fg+lfM5BjIuYbHxFMH3dCA/N0FJYzQofMoKbEmWuBQmQfhZBPd1YfZhY3XrenlRgXXd2UrekTzrbpC0zkgVzL0CfcyJTmsnDlbwG15QbTkPrVLCPO3q8TfQFeOupZ0F22hl9pe0h70N9H4HXblUDNdIGNQ4ElPFJcgcVnL+C+mwmed2BPM/yfAMy5evsdempkbKL8ijRpZ7ibmPwHUTv2ElVPCG8tUdL1Dr8Y4HPDxs3zXnHvXAff6Ii/lheo2SiesjNbU10V9X/0FvquWP599rTalsv8+m4inYwKQeWWz+sn2Xcs3Qh8SEFqoOvKnH5BhqEUwsXbHrh2cosgIuN3h7DoWJNvQLksE+c87S9FQroQL1zMOsKoEKQhtUBg9Mm6wmw+gffde02D5k6bogLv5v7UblqvFWZja9vuRcRTyAAPjN5k1WlyZMRKHwmMyKBkekCtQRRrufSR0oFVw1uL9cM8zyw3qU3VFAPmB89gbVDFySHBkm1Le2EyrIKPOHbTsV6WSsf15yEv1w4liF/R1jRvG5bjPu7rQOwuAGxrIr+5jdteyxhkvOv3fvU8QC+rl11HCCEkUbiIB7WOEBA9HxJ76/HLk2wZ3mg5w8pUCyJ2aYK6alrHT5zthRSp1z/bCh9Efuy5GB7AERBvvLvNk0IiJMET+vMdHyfDtxVs33DRQ0IGyglDG7HmiP/VDG3M9EDtyrtMHN7Tczp6l+oTBadiSfGto67lVdz1NLEGmaUIESBTjDDUkbsAaJCULtcsZq+dFCyjGMV9fr6TJ5ylQat9QygelOX2//+Ef88NYx7u704awNXHDiQgbTP9b+mTbnb7BWBRFy/zkPUURAFI1PmMTf54NN3TXnpS2yEiqHSw/QUxueVOS57ghuRTdO/qYiVdIjMwiKli8Of6p2N3J2uYKafEoKSyHsc8fSI4eq6hUN5TYZ69zpwxN1J7D7DBQqMGS7gWqlK5vLJEZ6YhjtzS6nXz+9kQrYNUUbSJprzhtO9Y2233cgWb59+VhVDW5CDz21wYboABHz6+/NptnjByty5cYLR9I/3tipu+20fOCf62hftuW36ekHzlWuMiBWXvhoPz319m5VH+fzPVaPjGJCA6459Y2dfzte/uQA4aPtClbA/IQJEnfs1ktHW15qtZ6g7z72FcE9yt6QaenqczuINPv92L7rmglWQgVKlCdf20HN3Kc2kC6//t4sGpcRTdcxxoiJk5nfedKo62MZFWVR8NWwe2xPJhCe6AfkY0LacDW8Js4Ics2PfskT4Vp6+x+/p51rv7T5nhg5lb/HTVwNFrMaRBMq21d9RkjxCncXbcHhkfSdXz9JIG8WXXULbf3qY4J7gr1NnH+elVDZvnKZUlsgwKjRMCmHIiaACQpHdsWdP7USKgVZB+lf93/PhswYPCSD7n7ieeXidM61t9KGT97uMiUt1BVhUbHqkK66/qCyMdMMJsPZe7abDjs2KZWmnnOx2rdnw0rK2Wv7vIMdaWMm0lV33avua5zXq39+SBEqukMoXK75IZNS513K7lwTebmUNn72nt7da0udiQYHSBs1nsJiYpXSZtPn76t7SR/Yx89fuXSBMDEalC4LrrxJqTHgZrZx2budXMXgUjaLVSwgJqYuvphWsxuaI7N3fwJRqEmVyhLbY5v14cnxgIhbeOU31GHgWoN7LYvvAXs3H9yT0869hAlEW/Um7v/lbz1vM8zr73lQbQNH+302FV3YqOZnPm36+0Rv2y+vZ9Xo+MGT7Itd2s4sP6RefqDyv9Y9QVOTZyjF6jBWh3oN8KLJSdPUB7+9q1m9sjpnRbd/g/34OSyW70FYVXXH95AqkD9uIzDQ7RanqIG/f4AiW+LbU2GdosOeEYeBj/zM1LnqXHYUbKXnt/zHhlDBjuqmKvUQD/IEb0pvYDeh081AUEDVYTTE+vjdlo4f2Ksz0oy7na5DWfDKoUx6gl11jIQKGqHfv7E7EQgGbVCgQDUAA5FiT6igfGtJmZX4gKIDLkSODLEw9KQTx89lAgAGF6a97B6j7UD7F3tiu1JCl3tyCSy8+AEStqKg0OEEfldZBWHi78hAKqAfnAPIEqh47O3z/KP0XnauKp49OM4a98S+nt4GGfKNkcO6/ECpZGZwfVnBE3jY5Xz9pra7IOGB+WeTJyhyB+N9jO8jqFDMDIqUu1etU0SAPaGC+iBicE4HKi0/UnDzgcrEzHDND1d1uCvsM6SLBr7adF9wxYKyw5n9i4kjI6GCulB0aYIG9+6S1BRnXfRoH+KnQFEF28hqn7/v2mu9t3XHUK6ATMK9jnO6g++Vs9U+P/SxDaECHODus+zgRwqSATSA4LZpb/7e/nTV+OtVMR6w/rL69zaECnYcP9lGL2x9hrIrMlU9vOmCAkZbZtkhtZoUnkKIpeWKYTxp7aQK4rX0lYWH+NFP2116MAYoR1wxECqID/K9R7+yIVTQFoQJSIrPNuRh02pXc/wT7fLzIitM7N1xWpg8+MXf11rVKVcsGkoYn5k1tx63idmyO7PMWg3j0raPSR8YSKNEVnb0hvG/HmVw3BMY8DMjVLAP7lJ/enEbVk1tzNAo0oGC1+4opMdf2GpDqKBROSuC4MrU0NSmzumH10807UsX+vOk0Kv9e7PBgaumruts6al+ogYns5uN5X8HqpKa8hJ67I6rCOSIPfGKOCbvPvUnm2GBDDjvhttV2Y7VX9CLv7vfhlDBDqhb3vz7o6oOVC0jp85R6/Z/hk+cropOHG8zJVSwExNTHMdRJhcoNbQrClQ29oQK+jiWm6lcf7AOJYAxVgrKzAwKGW35h/bp1S6XxYZMoI7ifKATuDyBMALmH/3vb536hbLmurt/pQgVKDj+ee+dNoQKGgC3d/71ByuBBIXMqbAow5wGhMrGZe/RirdftCFUMI5WVuyvZ1Khyi7Wx9RzL1aECuKlfPX6s50IFbQ9vHMzqzLav9fbFUMod8WMpE9FcdekiqfG48Uviqade6kaIs5txVsvKNcje0IFFXBPvv/ME0qZ4+ycAkPDrP+vFS4QRM76wj7jd1BwUHBX1T2yH6qVNTkr6dEvH6SfffADen/vW9bf+MjAKLqcf8//tPSfdM/8+/jlylRFurh6YPwPXXLxJeTb/qy8detWV5tKPQcIDHJQ3uvFx/lBuppZsdq6aiU3gruPj7cv+fGPaBz7SvoxSwuL4+BN9Q11VMdvA8RcQ+CiUUutFaFQcWQgVtblrqJzhl2gHth9Bvl2Il8cte0P5SBVzAxBSLM4UOdQnnxD0QFXGbOYFvZtoQR404l7jn19qFCgGIAhsKhRoWKs+9XRAqXWgOvFAp5cO3JzqOCJutFqWO4Mw9hbWZKtTasvQNJgMmqvntH1erLEpFsb3FO6YwhKCjUNDPFkoOxwZG+yMgcEFWicKdzGjHxx1LY75U/yJD+DFR2J7IaC2CN3rVij3KmgvIE9u++glRDpTv+6zUE+ZxAMcHWCGxmC0Nob7jvjNdTXF/VAPGhDwGRtcN9xZFCwrOfAv2a2gu/T2znGCcaziEkP4N4bZiQPHd3vOC7Iqa/yC+mStBRCnBUQT5pY9NS4jm7fRpX5R7rd3akIRvfFoU9Nx3eIlSfawv0j9Kp1iXgrIe0umR/se5ugPDEzvOH/9MAH9P05P6EAliSDeId0GAbXHbgGDRo4SAUzh0uQNqgYE9n9qKjuGH2y/31drFSQmpg5Fa4/cMlB0FMYyM9oVjwMTQ5TgV51DJB6nqj/9RXzN9vWgRtW/v0WZ5I5CfrTNTt3hoWEPMltPlydY9oIhMwna3PphgtHKFcZKGI+WNX5f6yqtoUnBB3HrjK4CcFlRhvqaQsKcPw/r+t0Z4nA73A5gg3hALVw73QHF33MG/mctf3diVsPXK0QqwauVBOGRatjG9Usug8sg4I6iKSGHqiWPdVPUrvrD8aGWCfPP3afileC7a4M9y1iqGDCX81kzKt/etCh8gZEBN66g8SAYsPMEtIteEMpY69QMatvVgYlDFyXYK/95RErwWBfF0oPbSBiujIbUsWNdMpwgdLmKJ4GlBTjWH0D28AqDTMVz/k3fJsDuKYofJ/9zc8cBrBtYUX80cwDSqkT6wBnPR5PLY3uPzl7d6qYLq72DYUG4qzAti7/lF1iChw2Lc7PpYT04eTNE2bEKGmo7Xhx47AR74iMtbwM+Zq/n+BK5sw8OZ5xMxdSUJiF3N264lN1XZwd24xssa+vzwXllS4QRPbt7beN30HG7xT7eth+Y+fL9An/5nbHmlobTZvhRcs7u1+nd3e/oQLSz01fSFMSp3NAcV+lZoWiFfM6KFegYCmrL7XpB2OePWu2+g0NZ4X5kNQhFBcXxy8S2mjdunX01fKvbOrLhvsIdMyc3G/boxb7D+zu9IPSdKKR46k0MtlSSUmJqRTJEkIY1g+yf+epeLjt0Un1k8bwwYc1swolmd8+4gPD28UOs6zjhx4GtQok4NmGB+qOuv1vDfExnE3S4fIDUgWGyawrpMpKVmSgX1cNwUG17SizvFHU28Yl1A7ZTPJgch3BUju41iCjjL3ZTyab24kU+3LjNsgPR24g9v27s53P0mY88uPuQLDcWfzZwIoDd+TXKQYlTSvjOqc9Ow3G0X7b2dyRIBOQxSY9zDmJ8wnHGHmSVUM9MRBgj27m+CoLZqtYM49wcGLEM4FtLi6ld7LMJ02OjgniDnF+opkU9ufAxdqQBUqbJuD0tl4aryfKjNstxzvuR2O5kfTS/eglFClGEk6XY4n/A7hA4X8jrgu1i7Gdu+twv4MBZ5BympjT1x379LeRLgNBiNgv2g0KdTxhjRxvCZ/+alAL4kHIzIzlCGprb/q7HuW+HFwcMmGY2Xd9iF/H/1VKeKqBVOmYMCGuiiZV8JuwdMxVyi+8hV1HPz/4Matejqv+06OGqiX+aKWLtaAXVm5ntxt8HBmC1T72v81UwrE7XLEsDhSLTDvuWFyU5fs+n2OYlHI8FEe2ZX+xIlWwP57jkZhZCytVjIYAsNqgYtEG9Yu2QL/eIVUQQwUqFGT8iWSy6rbLxtCL7ILkiOjQ47FfDkmw/N42Nh9XWZGQGQmm/7+NG7oMChzEl9FuUKqO4Y9WqaCoJ89/nuonwUCqLH/zBUK8EFcN7ipwM4Gt/fBNp9l48DvbyJPg0KgYqxuN/XGQ3QcGd6Grv38fffDfvxHivLhqIdxuGqseYCAW8g46/k1tqq+zdovsPF2ZDp6KeB1QwLhqIDmQLclZRpqLvvl9NSlE3WUvPdWpa5A+i66+RZUjkDBUDc5MxywJY6x720CSwTUKBlIOrjuuGp7VZ154hare2tSk4sM4a9tiICGRHcpVUgVZiGCI7eIsSLInx4NsVWNmzlfHxbgzd25R6z39g8xB2hCTpadm/A4ayHH1nJmOieKsTnf3fc1P5/s5bho+z3s/Q9OTZyr3oAyOn4bQDpeOvoIuGX05rcz6kp7b/LT1MFDXXLTkIut2UXERvfHmG7SNXzw18T0l1nMEOp7+e96XWz04m5xhX0HhEUK8FURZ9uUvokAOLFXHAb3EnCPgNdCLooIsPw5+LA3Hm0lXLSE08bQhVartVB3254i3/9qQBhgpZruyYk4R7I6hX21wD3JmeCMPw0QSE2+zrDPGSTPqgoiwLG0JGOOEubdIFZzPMiYvkN4ZAXp/OX0yVbFyBll69vGk/XB1NSs5OJUy/686sqLj+ZAAAEAASURBVATDW0Zks8HHFdMTclfq9qQOFE2Ir/LDCWNVql/01VUcFePxoPZAOmyoMhCwtysDmWZm9tfduN3Cgee0tRnUSs5IFaRodmZ6P5ROiM/jyMXJWR/O9uF+0YQN4gH9YtokZ9Vt9iVzQGVPkyo2B+iHG5WNjgnZVkPgbx+vDoJOnwZisWhzx4VzcDvxjraWmCjlKnZLmiGuyhB279GB9nz5TRgC3uIhDqbr6ZgsqvAU/wEZABJlOaccfonddczijTgaUmFZZ8WYo7ooDwtmFS0HjIV1laK4orpDXRYXaf69YCRL0KcxBbRxn7E8wL/3Htee52xID35nJoZC37xktIp3AlegXZnldJBTTyPYLALnOrJBPMFA1iUY4sL85q7Zjqp2Kh/CgXodkSr1TO5rCwwwx1Lvd7b0VD9GpQrimLhjkxZcYK2O1LmD0zKs22YrIZxaF9bc2IGBsR5UGojbAoMLD/rfs3El7d+0Vk24nQV5RRtk2oFqBrb2w9fV0tEfkBzaXHEJ0UFqC1nhYpyI6j6cLZGKGseLS+6s0AFuOqAuXGbgKmVvE+aeo7IZoRzKBwQSdmYZ46ao3UjX29uGdNv6RWZB1iGnxJr9WEAWBYdbiPXjx1s5889V9lVstkMN1wzBk10xxEcJCrOQoV0pOzw5Hrh6wdUNdmDrBqdkjivnoetExltIFQSprSm3VW3oOu4skVRFWwMnJugPhpfnq7KXq8/gkES6Y9b3aUhEunqxkhiWbDPERiYiN2zcoFznoqOjWbCQRNdcfQ2dd+55tOyzZWqfs2d6m85kwxSB3vuVNj2c64X4Iq7m4F0x7V8MCKYjpErX+EUFxlh96praGq0RpLtuyRleWjreRrhSvy/rYILvzPTEEXVAYrhiyGzjjhn77Wo8xv0gY8xIFXt+QtMVRtcQjA8stTb9xk9ve3L5bw7WC+XOZWmp6kEAMUqgNtGKExBXH+bkqZgq9mPEOJDhRRvUEY0uBkWt4zc4p8oQX+VaDiILNRPs3axcl1RNIFQenzNTBZTVY4XSppIfXupxnu0XE/eIJhj0w5Sur5f2P2IdV9fajap60sXrbrzX9DGMSyPhiPF5mlSBgkvH40Eg3CPtsYGMY3C0XmdwcXJU50wrN6Y4dvfckMlNW6YbsU3s0zMjLsqMlDk2wWrHxo9XXe8+toPGDZ5IY/mjSRUoWmA6e5Da6MU/T7+zmzbv7ZCiI4BrWWWTjducO4cvLnfvgTjWQI5U1jifoFTUdPyOaHWL/dgMnj9ql/G737hu/F519P1h33d3tj/feIRfXg2iH1w3QWU9QpYfZATCBwaiZwWndH6C3augCrI3KHLgNgSDG1ZOQdcvMXQfzgILN3IGPnw/4twDDMpQ3dbVpaf60S43cDnB5N9V8/H1s7ptoA3SMLtqlSVFplV3r1tOb/3jd3Tp7XerILL+/BZ62jmXqA9ijSCmywf/fcLUPQYdxhpIizxWjjszHXQWdbpK0YvJNpQRMHeC1KoG/KeE46qAOAGxgvg1UKRou5hVKjCQKcs55oaZjTLEoElkFyl8XLGqUnOcXWnrap1IQ+afI06UQWb9Gc8D+JqlBjZrhzKXVSqG8ZV3EYPEk+MJ54w+2txRf+k2jpY6Pgzi0iAzUk8t0KDuNRK1Pe23p+3hZTAnbYGKpakztKJPKEyNhmDfr772qrUIwXa/ffu3KT4unq679jrlBrRlyxbrfllxH4F+S6rgVJo5UJM2X1/XJsa6/tm6BGuprbi2iH7zxS/15hm1tE9tbH9yxv1a8WFfx37bHdcftG0xpHNzpELQx0AKXm3Nhna6rD8ugRuyICHuxnSOTTOR0wPDhUmTSXDVQcBYKEt+Z5dtCOdjjDHzP45RsqWk528KPI3TdZzhSBMq6BsZmtYdK6bSLqSQCMCLDD0wBCN+4cAhUzUUCJtvcoahU2nGe9/suMZ70dX/DbN+HJUZgzwX8pvmn6xZ76jqKSkPjomh0PgORYe7By3YvcuW3XK3g16sD9chyH1hf1jxm27HxDpcaiFVolnliBgttc01NDZ+giJwX9n+HI2OH8fb4+n1HS8q/239BuxUBakt5Ow8B1gx4SlzprowO4bRPcfH2xJ/xKweypAFSFtTS88f5HVfvb38cHU2fbnpCE1jImX62HgaMzRSZUjCcXFOF8xKpbEcjPaWXy3rpFppbG6zDu8ouxJ999Evrds9WcHLtVq4wXDAyeBuxvbC8T3RD1ITIzYFLJMDgbpjcKnQqhCkT97LihJXDfUd2doP31DZgcazOmPM9Hk0bOI0JiICCWmSR8+YRxkTptJf7r6FzCaqiDmirbqLt/g4d22lrCJ3ZrbxVPY7q2q6z5gBCAoGTcyMmjaXiYQJqs2nL/5LBXI16yAmKVUVQ5mw4p0XzaqYltln2TGt1MNCPclHN+64RaE+XMG0bV+xjI67+Bx5kl2IXY25YxxfZRfplD05nghW8GirrSzTqz1agmQMaA8m25XqxtUD6dTDqN9Vphy44oT6WZ4RXe1f16tvraODJfv0puky2DeESZQ5ikxJCR9irQMSenfRDlqV9RXtLHT83YEG5eXl9PIrL9NP7/mpar9w/kISUsUKZbdW+jWpYnW6V6dmfH/brXM9KxrVNFcTHrSRFUIHMDwTT9xRZhd9rpjwa+tqgqzrubs0KlsQKwVqDEcWYYitUeqmIsZRn6eqXLkCsaIDqg4Y0uQuTUvl7DHJ6g0iMtt8xClzjRmKUK/QII/s6nqh/qk2pNu+idNkwxCfJ50D68Id5j5OP/2ztes5foT5dw5if5ybnKjaIQXwI5u2msbIQQUjYaManII/XWFtjPNSymmuPW24X0CswEUJqcj72gaPHdevUyr3BJ9iDiCLVMswvKGyD0znat9GcgRZfbCN5ZHKXJXGOZNJlxGxoxWBExMcZ1VDGtu5eqzTsV5JRYeyJTLMz+kpRIZ2vAByVxHjtONTsBNk06rtBeqDw0WG+tEFs4fQzRePIgQETuAMRNeeN5yeY3cho8ElChl9kHY6wkHGI2N9d9azc3Jo0sRJFBQYSAiuWNXN+Eg97cf4Zr6gPbOKq+eh42ig/v7Na2jlOy+72rTLenBb2fTZ++oDQgUpghdzTBFMepGW9/wbv03P/fb/OvUTk5iqyhrZrd6oBrGvCJWNVn8g3kltpWN3RbS1JVVs7xP7vs22jQogBKsFqQKl0kXfvEtVB+mCjDlmBheSwPb00YW5hz2Ks9nx3C3TMT4a62oI6ZDdMZAEsOMciH73+hXuNHW5bmR7PBWo5boiIjw5nvAYy29YKwfmdxcXRydnDFLrKcIsOanDnSYn17lSDTFNPJFS2Xh+CO8wIWEyzRmyQPWNbW1wI16dvYLdgL5yK71yfn4+lZaVsldIjDV9ve5Tlu4j0K9JFT/+MtdmVK3osrNh2XS8Q/qIQISuGB604VMX6h+qHn5PfO2Zt2Unvz5pPTwCIRrdUKw7TtFKKJMmeCPv6E17jMHlp7dIDGO/XU2edVBbBKjtKv7KKYKw24dBWmmkyC3jCblWYYyKDO9EqhQY/OEj/ft+cm08YRAP906ZqLIn4Xo8uHELLUxMIK1AuXXUCPrP3gPGJtZ1xE/R6ZE3FpU4JFTQwJVYK9aOPbRijPVj1qX+34C7kqP/H2M7o9uWPm/jfrN1EGpIfQ0CR6fUNqsnZT1DoLj2GN9klj6QHai7pEpBTT6T8Y0q1XI6x1UZNNBbBS/fdWy76hxLkCpQrwT5tj/cc9DanPY0zT07i/7fGkFbqzlDD2KrIE4K3C4x8TAzY3DaYgMZY1a3v5eBLEF66V2Hy+ipX5yjhjuOM/aY2dGSOhqRGkERTMR0N4OQWb9ZWVmKVMG+1NTUbpMqPe0n0RCktiDL/LfBbPwoQ3ZLbb6GuAy6zFNLBKpd/f6rrEzJpLt+/7TqFu449oaMP/6Blhg4xiC09vWwPXnREtITaFeUHwnplhcVIGrKj1lexJj166jMXqmCehPmnUsJaZZ+P/jfXx3GaUFGmJOs4PAa5M2ZRAMdHaJb5SB2Ro4YadO2orKCSkpKbMocbXh5DVIuTdhf0YUKxKwPnbIb/UCJpLfN6na3TLsnIQgyggw7M318T4xHZ/LpKvirs/HY79PxVFDeHbzt+8N2SkqKKobyLYfJ3lNlqRFpikiZwcqU4PbfXxwbc7tdrEZZyaoUqFPsXcldHR8UKyBVEGbDmzNLtjFxJ9Y9BPotqYL82WGGKONnK6lS3VhF8Ln39vKmqEDzhxn7S59VdkiRKngwRsotRID2hOlMFCBUoIKBKqavDBO1OYPjaPnRzhG9EShzRnysGhpceoyKEk+O15gedyEHLP2UA7uaGRQQUHfAQEg4eBY3a9qvy7ayO48mVcwCpyKtNUgkuEadx0Fq38zMYfVHBzHXVyeHh6OfT5mgVBS4Fo9v20kgGN7LzqWJ0VE0LS5GpXeG8mYDkyb2FsrBs7UZA8nqMr3ENUea4FNtIzlVNIgTM4UW7kUd4yWvzrGyyjjmSn571MrXDSnBNTlo3G+2jgxEIFVw7c/la4+gx31luRvW07E9zmMGOBubfnh0Vqev9mWWH6IL2w++KON8pTDpzljwMIb4KCBNEC9Fqxx3cTwVGEiVayd+g2OrTOBvf4srY15ljvpt6s7xTsc2ucdqaOJwfpvHGXImjoih7QfM3RnPm2F58MY55ha6HlukP2Oyl4PWaiVKoIOAuXs4qC1IFe9BA+miuWmmqaS7c46ZWZnWZqkpqbRjh+WetBa6uNLTfrRS5QQTJEV52S4e1VKttKDDZSY+dahbbbtTOf/wAUU84DnabKxf8wuySo4hEhWfSKEcEBe/iWYTMpAT8y+7Xg0BcTk2fPpul8OJireQOEj1bNZnVx0gwC4+UJxAqQICYcnN31PNsvdsp30bVzvsApPd8mMFqh3agjzCuXrCgOWd37nTpqvly5fTex+Yq2ZsKvIGYsSgD1h3lBPIxhOfygFI+fk2LDJGXT/VmYf+wD1NB0d2JRixJ8cDlx8EyMUYkAkI905PzRgHyBMuRfgfSUm2fLcfLThKLV3EdXx281P88q17LxONAepvn3EXZ/ZZYAMHXp5AkbKGUyfreZlNBTc3TvA8SRvOU6z7CFj+w7vfvlstQ/nL0tmFw76Ewcmc+cdyQ4JQMeYH79ZBT9NGUIMcqy1Qox/DPu1maTXtT+39vW9RQ2uDKkZKTPjeObNAnyAaETPKWRW1r7yhw9dxVNzYLuv3doVL2QXFLJbJ4qREQopbGIgOYzYVT44JaZt1ViFMnkdxvBF7w9fTNRxXQ9vbWaeO3dbH7M4ScVMcpQDW/Y02EAZwg7E3ZDx6i4kUWBwHGbxyaJp9lU7bY7hPfe067fRQwQ3Dh9IEJk9gb3G8GGM67D9t30UVTCLA7pk03tR9x0imTeII6mYGYu/bY0Y6/Z4za+eJMnx/Xj50iGlXlxuuwXsclNcVA/EEMhA2mePqRPLbjK7slUOZ1lTfN3KcGijLnBncrsayO1ZvWCsHu6wrLe32pzfG5Kk+tx3dTIdLLW/NZ6TMJvhxOzMtHzarg7gqMLj9gFyp48DlWolSWFNA5Q2lNDpuHA2NsrwxPltcfzRWry07pFfpxgtG8gSp88Mn0gjPGm+RsiO2yLpdx6xt+uuKPwel1Zl7HI0xjdMlw7UHlplv/jLl2Q/2WYPY3rqUXcVY1ePMQgJ9FEnlrA72QQkAiTpsHLvyOXt2VJUc/OlpP1qpUsQpgkGsuGN486+z8YyZMZ+SMmwVD/Z9wW1n+KQZ9sVqG247Oj6LaQUunHnh5dYJvKMgtGWFFkzR10hDcFfdJ8iMb/7i9xSXkq6K1nzwmsM4JroNllrBjDgsScO6fq40ttXrWq0Sx8TItHMvpeiEZEXQvP/ME7qKw6WOVQJSZt7S6xzWww6QLggaDPKot027/uA4FV0EgTUbC1yvtE2Yd55edbhEpqGgMNdf6iBYrP7f6sr1Bwf15HiqyzvObTTHBnJkGF/aWFYYt5NTjuqhHEGOtbmSBlzXdbTMGJphDZa9efNmR9Ws5VWNlVRcV9StT2VjhbWfED/L/O04K0M352+gPyz/Nf3sg+/Th/ve8QihYj2QrHgEgT4hVZI4kNSYUROYOEmiMP6nR5oqSI4CWK4XER5Jw4eNpihmz2Fguo9wNPDuMN4eQagfdPLJ/vfVKAYN5PSk5zxCC4eeSyBYxvADLj76raIeKh6G39n9mtqMCIik3138hGI6jUGTsA5i5PYZ36MnLn+K8JazK9tTtNN6Hb4x5TY6b/gS9YANn3798RrQ4ePXVX893T+c38g/OGOK1cUC6Vsv4LfiP+AUuTCoIt7pZRLj5YMdb9F+M2sazU2IJ6SqhYFI+OnkCTSPy2BwiVhZ0PsP2YhjYf8xBieF60vn/bbXDYqNly5YTD9hYgGxRzDp1YbMN1Ce3DbaMoFDhhf7eCq67uuHs1SaYmxD1YLUzGmsltBkGJYpIcF08ZAU+teiefT43JldTsChgLiBJ+pdfS5L70wsgEzBJB+GOCoIMGu0Ws4+8/hWy30OUul+jq+C8zUa6mgybXx0pHIZwr0HQ7wVnN/vOTPQVA7u21euXjh3uDDp+CoRfE98d9xolQIa40RGnk3FHQ8yKHNmCFYMAxZ/5GuEeDqTYqL5E6U+xhhGqAeMNLZR/n709OL5Kg6NMcYK1nE9fjxpHL14/mK+B5LRVMxNBF7Y+l/OgnNSPRDfd85DdNX46ykmKNb6gIz4WkiPfCWX/+Wyp+i26d81PcLhMgs54+8dQJGBUbTX8H2PBlCtgIDXxL472YZMD3iaFa7dWUiH8irVqGeMi1dpgxM5xgjMjwO5zpmQQH//v0VWsgUkw0kHcZlUIw/8ATGBuCfGj1FJEhzobbMP9RAbxWhhIb70xu8vpr/8ZAEtnJJE0eH+fO901JgyKpYe/cEca8G6nea/Ycji859396h6MeEB9MqjS2jJnCHq+Loxjo/+7r9tOr3356V0+aKOFw66jtly7bq1qjgyMpKGpHb+XjdrY1bW3X4wOdWBOQs4TXB37PNXnlHNMCG845G/qdgnxolfKKsPhk2cTtf+6AH69auf0/Tzl5oeZiln+3nwhY/pgpu+owgPIyGAt/OX3XEPLf32j1VbxCPZ/PkHpv2s//gta/nV37+Pho6drL4zEJdkKKcZvu2Xf6SxMxeoOkcz99NXbzxnre9s5VjOYevuW+6zZCcaO2uhSv+MFNDRCR1KLmtFu5VijpsCi2TVywU33aHWd675kvIP7VXrzv588fr/rO5Bl97+I7r41u9zKuIOwj4gKIRSR4ylC2/+rsLxhp887DZJ5uz4jvbZBoEtdFTNYXn2nm3WLD7Jw0fRgituUvekJkK8+HkFAV+ROemS237I98Dd5NX+LOqwU8MOHU8FRRUl5v/jhurkyfHs27TamkYZ98jkhReogMs4Hs4vmP//UkeOo0u+9SOaOPc86/U1jsd+va66g5iYes7FrPIZqtRCUGbhg/vAHZsyZYqq3srPNlu2bnGnaY/qltQV02scIP7ud79D/1j7Z9pXvNtKXPaoY0NjoxrXGKfFUEVWXUTAMhNwsbInqw3iL+6Y6DinXULKV8g+mY2nIH+804H08c5NR9bTtORZNDlpGkXzw/I3p1l+ZPSw/rbmccIbS6N9lfmZ8n2/dPSVagkJGayRFSxg5/Gg7a7lV+XRiqwvmIA5Tz1c3zj51k5d3PP+d6miobxTuacL9rFrRj37/U2Pi6Vnzlmg0sIGerOvafvTIIKM/m3nHirvhUCcxnPBxBTqE6gwMLHGJBxpMEE0GIkIqB/gZmJMkWnsx1PrOP9XLjjHaXfPn7+o034oNL7ML7ApR/yMczggKz4wTJSbOZI8gvJCiQGDiuGPfF5QpZgZVEK/2rCFfsbkEsiGWfFx6gMckNo3nBUM+qHArL1ZGUgVfLoyYA6XHm2YxMPtB8dDIFVkLDILRruLFUivH86m61jRMoyJu9tHj6R/79mnu1HLPzNeTy6Yo0gGEBgI3FvOx4PKRscdQWDfAlZ43M6KlVNpn7A6axKTFddwZiN8cN2M6h8QPbjeuHau2momA0EO4vrBfUgTl7r9rzdto/VFxXpTLT/KzVfHvW4Yu5MwLlD+wPB/i/vUzGVMVZA/biFwtPqIetjC7wJUiZeMvkJ94DaKOCn2pHsNZ/Yxs5yKLDpx8gTHw7AQrDsLt9tU28Xbiw3k+9lGqgCMR/+3mR5jggHKjvmTEtUHKYYDmKjQKYVR772VWfQFZ9Lpbfv9j+bSuAxztRyO/fCdszoN4ZO1ufTb/26yKcfP5rQxceqDHch2hLTViI/ix6mWtb267CBt2O14wvXu8iwKDfKlWy4ZpZa/+NZ01bS+sY2/d8mqdtH9ubrctn0bXX7Z5eTPCsqpU6dSV0EiHfXb3X4S04dbu+wuqbL6/ddoAmfpQQYbTPKvv+ch9YGKBcoUfIxWkGkhOY1lWE8YOly1B6mCD56TqzllrH9gsDX2CerBxeSZh37sMPPLng0r6eC2DWoSDlXJ9x//j1Ki4AWmkewp5KC8/3nwbof94FhG+/SFfymVjTcrzeFetOiqm4276Y2//ZbKCp3/b5QctShcQUCBKIIy6KNn/2bTj6MNXJ/lbz5H51x7m1KgYIkPAvqe4N99ncFJt9+/Za1edbo0IyhaWs2fe8w60vFKMA5XUxwb+0EGH7hfLbr6ZqXUSB05lomGseqcWljNj+uP/zFtbfy731VQYV0Xy4jYBOumK0oVT44HeGxbvoyJxEvVuYGEw6eFsfJiJdUgJoy05R2wELd629HyMGfoAjkIkjB+yFD1Mdbdt2kNbfnyI2ORw3W89J8wfoLav3XbVs5M2+ywrqd3vLztWU932am/GoPSPIjd1psMmXc7VZYCpwjYvoJ1WtVzO6s4x3xrF19G1TVVdOAQT4orSj134NO0J8gpQZw8v+U/Ks1WQ6tFiu/sdPDD+N6eN+mhz+6l7PJM9SYT9QN8Am0IlRKWp328/z36YN/bzrqz7sMY/rLqdwTVSlHtsW6n8LR22M2V43x+v928XU3kTvA6CAxNqGAy/cD6TfSFHUnQzUN12ewZDmj68MatVrcRjEMTKiAPQLx8b/kapYzosrN+UuFQdTV9xfFqtCsMhoWJMYKgakIFbjM/XbOeNnaheEBWpB+tWksvHTxsdQkBRlBPaEIFMTvQD8iK4oaO4MyeggPHQ2Bardx4kgk3Z8fBWPdXVqnDL01Ppdkcv8doOKd7Vq+3KlZwHnCZAqECEgMKqb/twBuFU2+4Zveu20i5tRaXLCOhAnXO3avWWcft6uhwHiBOEKAYbm91rW1dNsV3EJRcuPYHK6uthCIUQEZCBQouKGFePZTVZZ9SwRyBrUc30X0f/Zg2HlnHwYdbVSXE4TISKlAwrs5eTv/Z8HfTTtAOcVJgUL7gO95oB0r2Wvsuqi1U7kHG/WfDetbRarr1wc9o+eZ8JqAs/93BrBbRhAqC2T747/X0+PNbe12l4im8a3jMb35xmPI4Zow2v3aXIE2o5LMr08NPb6B/vrFLVzFd4vfuf+/vpW89/Dnty66wYhAU4G1DqCCo7UscAPf5D/eb9mNfiMCJK1etVMWTJ022yvDt63W13d1+Eod2EOOOyI6ujo3YHn//vzvovaf/ZJPhBCoYTajgjXHmzi309j9/Txs5o4+94YXYztVfknaPwX4QD0jZrIPJwi3jzb8/Ro9++4ouJ9UgXb58/Vnrm3+MQxMqmJAve+kp+vOPbu6yH+M4C1mp8se7rqf1n7xDyORjn83lqAtBfo3nh77XfvSmW3FIPnr270wE/cgmUK4fK+KNhMqx3Ez67OWn6d1//8k4fIfrOkiprtDGRM96jtflig3gawR3HFglk13dNQRI/oBdoIwpskEaIHUwP4IoQ2ahg1s30Fd8Xd1R+GvSx53MRJ4cz4Gt6+jTF5+iytKOlzMI6qwJlRP8HZCzZwftXrfcJfhAKoLgy9m7g+/fCiYFLb+LurErcWN03alTpqogrog9gjg6Z5oZ00Onp6Wfaad3Ss9nwOC0MX3x3K9OEjFTfHiiNoijWeOLASxyM0ecbuGPO18GpxSx0/RgCFoLF52E0CQmHwZSBaffquAYKcY4KafDqb1/6YUqYCbUBPeu3aiGDHcbZJ/BZA2Txt4KTOsKPiAKoMgI43v7CAcCxaf1xElXmvbbOshgg8CnOpZGMceowKe7KiBglBIcrAgaqFXKmpqUa1Rvxb7pTWBBpiQyPolBQUyoDFT3X1EvkEJdnQNc4Z6YP1tVe5EJoVfa3dJAIiH2DbDF/wYIn74yuHoBp5SQIEWAInsWgukas2j11djOpOPinoT7D77rkakH/tlQD4JAN2ZwO5POuS/OBQFZUweHUnoiB22vb6VsJlxKqzxPCJ/Kc4N7TlJcMLvs+FOA3yAqqWykovIGKiypt5Ki7owHGKXEh9AQxgkxaEoqG6i4nH8/upEVCc+Kv/zFAxQaGkaff/E5ffSxa2+Z7cfrqX7s+3VnG3FMkJ0EmXmCwyIJrgo15aVUXlRAzS6m2oWCA+3hloQMLFAXIFZHNadHdTc4KwgZxE6J4dglLfydXFVWREcP77eSLe6cW3+qCxIKKhzgBNeYpsZ6hXMlu7e4o+LAOS25cAldcP4F1tMDyffOu+9Yt0/1ih8rU0JY8RQSEamuE4K7NnKA3zpWPrk7f8L9eMNPHlJBgY8c3Esr3n7R7dPx1Hjw+4VgtcERURQcGsFkSDPV80u+Gn7BDnXMqTYolH75i19SRESEInb78pr31rknJCTQz3/6c/WSs5Gf7VevWU3Hjh1jLxH+/i8uojqex4i5hkCfkiquDVFqCQIdCJiRKh17ZU0QODsRcESqnJ1oyFkLAoLAmYjAtGnT6KYbblKZNx565CFqaGjo1ml6qp9uHVwanZYI3P3DuyktLU2NHXE1Hv71w2fMZDMpYxQtvuYWdW5rP3yDsnZvOy2vUW8Mevas2XTtNdcqguGR3zyilr1xnL7u88orrqT58+Z3GsZLL79Em7fYhpfoVEkKrAh0OMtai2RFEBAEBAFBQBAQBAQBQUAQ6D8IbNmyhUL4LTZi8kWER3SbVPFUP/0HGRlJbyIAdZPR/Qdv8s+Ut/dQhoyZaZlMf80ujUe7GYi5N/Hvy77h8vPJp5/QkfwjZyyhAnzffudt2rR5E02fNp3Cw8MpmNVrgYGBpzR+TF9eZ08dW0gVTyEp/QgCgoAgIAgIAoKAICAI9AoCcGv48qsve9y3p/rp8UCkg9MCAShUdKBaBCn1xD3YFyeOMAtwiYKBTEHA5HEcEDY2KVWVHdy2XgWHVRvyRyGwcZMlzMDZAEdBQQHhI9Z9BIRU6T520lIQEAQEAUFAEBAEBAFBQBAQBM5QBJKTkqm+vp4Dz39Nq1atOm0VC5dyOm6kEzYzBDjeuuJTs11SJggIAi4iIKSKi0BJNUFAEBAEBAFBQBAQBAQBQUAQOHsQQGBkfE5nQ4rrkIjOhEorK2+gUNm9bgUhw46YICAIdB8BCVTbfeykZR8ggCw/A2mASs2LtLZigoAgQOTPst50zjoF01l1BBdBQBAQBAQBQUAQEARUxqm4BCsQyARXz5mCmurlOdoKiqwIAj1EQEiVHgIozQUBQUAQEAQEAUFAEBAEBAFBQBAQBAQBQeDsRMASsejsPHc5a0FAEBAEBAFBQBAQBAQBQUAQEAQEAUFAEBAEuo2AkCrdhk4aCgKCgCAgCAgCgoAgIAgIAoKAICAICAKCwNmMgJAqZ/PVl3MXBAQBQUAQEAQEAUFAEBAEBAFBQBAQBASBbiMgpEq3oZOGgoAgIAgIAoKAICAICAKCgCAgCAgCgoAgcDYjIKRKP7j6ackJhI+YICAICAKCgCAgCAgCgoAgIAgIAoKAICAInD4ICKly+lwrGakgIAgIAoKAICAICAKCgCAgCAgCgoAgIAj0IwSEVOlHF0OGIggIAoKAICAICAKCgCAgCAgCgoAgIAgIAqcPAkKqnD7XSkYqCAgCgoAgIAgIAoKAICAICAKCgCAgCAgC/QgBIVX60cWQoQgCgoAgIAgIAoKAICAICAKCgCAgCAgCgsDpg4CQKqfPtZKRCgKCgCAgCAgCgoAgIAgIAoKAICAICAKCQD9CQEiVfnQxZCiCgCAgCAgCgoAgIAgIAoKAICAICAKCgCBw+iAw6PQZqoxUEBAE+gMCwUHBFBUdRV9//TXl5eX1hyHJGAQBlxGIjIyikJBgam5upqKiIpfbSUVBQBAQBAQBQUAQEAQEAUHADAEhVcxQkTJBQBBwiMDNN99Mw4cNp+3bt9Nzec85rCc7BIH+iEBMTDR99zvfpePHj9NvH/stVVRU9MdhypgEAUFAEBAEBAFBQBAQBE4TBPodqeLt7UM+Pj50vK2NWtta1dvw0wRLGeZZiEBE4nCae8tDpmdeVZhJq5/7lem+07Vw9KjRilA5efIkfbLsk26dxpJrx1HG2DjVdv/2QvrinX3d6kcanZ0IjJuWRAsvHalOvqayiZ778xq3gDhw4ADl5ubSkCFD6NJLLqVnn3vWrfZSWRAQBAQBQUAQEAQEAUFAEDAi0C9IlfCwSIoIj6CAgEAaNMjbOr6TX5+k+rpaKiktpvqGOmu5rAgC/QUBL75fA8NiTIfTXHtmvQEfOHAgXbb0MnWuW7dtpdLSUtPz7qowNDKA4hJDVbXC3Kquqst+QcAGgYAgH+v94+vbvZ+wTz79hO763l00ccJEWjVkFeXk5tgcQzYEAUFAEBAEBAFBQBAQBAQBVxHo3hOpq727UC9hcBLFRFveWttXHzhgIPu+h1FjU6OQKvbgyHa/QKC6KIc+/8cPbcay4LZHycc/yKbsTNiYMmUKxcbGqlNZvmL5mXBKcg5nKQKHDh+iwsJCSkhIoIuWXERP/uPJsxQJOW1BQBAQBAQBQUAQEAQEgZ4i0KekStqQDApl0gR24sQJqqmtoobGBmppaSa4Afn5+rGCJbKn5yjtBYFeQ6CtpZHK82zdV06eON5rx+vLjufMnqsOf+zYMcJHTBA4nRHYsnWLIlUyMjIUWVhSUnI6n46MXRAQBAQBQUAQEAQEAUGgjxDos5TKIFM0odLGsVMysw7QkfxcKi8vpTp2+amsLKdjRQW078Buqqgs6yN45LCCgCAABBITEyk1JUWBsXnrZgFFEDjtEYALGzJYwWbPmn3an4+cgCAgCAgCgoAgIAgIAoJA3yDQZ6SKdvnBQ+3hrIPU1NxkigD2t7a2mu6TQkFAEDg1CMycMdN6oB3bd1jXZUUQOF0RqK2tpazsLDX8aVOnkZeX1+l6KjJuQUAQEAQEAUFAEBAEBIE+RKBP3H8C/AMpKChYnXZ1dSWTJi19CIEc2hUEwuLTKDp1tKpauH8DNdaUk9cgHxoy5TyKTR9PARystaWhhqqLcilr40e837G6KDA8TrUJHzyUwuKHUEtjLVUVZlFZ3l4qzdntynBUHRx38MiZFBgeSwEhkdTa3EDNdZVUXZxLBfvWU32Fay4qccMmUyRn8QkbnE5+QeFUw+2rirKp+NBWaqjuXjBWl0+CK6ZPu5AGeg1iHOoof9fKLpsmjplN/sER6i179uZP6GvOxGNm3n6BFM/npnDmcxvAMYqqjmUx1pl0dO86bnfCrJlp2YjhI1R5VXUV4dOX5hfgTVPmDaGY+BAKjwqgQd5eVFfTTDWVjZS1r5SyD5Ry9jDzc4uKDaKUjCg1/Kz9paqN2bkkpUVQzOAQtWvvtkJqaWozq2ZTljosiganhFNsQghFxwVTc3MbVZY28JhK6NDuYqsqwqaRyYYn+kkcEk5J6ZE0ODmMIvmcMY5j+dWUuaeYyopdC/o90GsAjZ+eTMAiPCqQ/DlAbENtC2PdRPlZFXRwVxE11ndNeHuqHxOoelyELEAZQzM4SHoAJSclU25ebo/7lA4EAUFAEBAEBAFBQBAQBM4uBPqEVAnnTD/aytjdR6z/IxCXMYkmXfJdNdC68kLy9guihbc/psgU4+gTR8+mUQuvo48ev9WU1MiYtZQmXfwd8vL2NTaj5HHz1Xbmhg9p+wf/pBPHHU/W/ILDac5Nv6KYtHE2fRg3MNYdHz9NB1a+biy2WQfpMOOan1LS2Hk25SBrYG3NjbTprT+5RHTYdODmBo4/eMQ0RY6U5uxiYsgxaeHtG0Czb/iFwq/8yH5FYJkdLiZtPM26/t5O1wfHgZXl7qV1L//GKfml+w0JYZIgOlptHsk7oov7ZDl9YTpdcM1Y8vPvyBJmHMic84dRa8txevA77xqLretDRkTTFbdOUdsvPLHOIakyfkYyzT4vQ9U7klnulFQJCvGjy785iUZNSrAex7iCfirLGujFv66j4oIa4y6bdU/04+3jRRddP56Ak9GGDI+myVwAsumjV3bRphXZxt2d1kE8XXPHNIqIDuy0DwXo/+TJr+mp366g/GzHWa481Y/pIDxQmHckz9rL0KFDhVSxoiErgoAgIAgIAoKAICAICAKuItAnpAqC0MLg2tPQWG8dq79/AAVyWmW4+8AdCLFWxPofAj4BITT7xgfINzBUXUMoQhoqiykwIo6CIuKV6gIqFqNBJTH35ocIKgvY8ZYmKsneSTUlR8g/JIJVMGMpKDKeMmZeQhEJQ1VGHTMFxgBO6zv7xl9aCZX6iiI6dmizUqj4+AdTcFQCRSaPZMVJGA3y8TMOwWbd2y+ALrz733zMwaq8qbaSVTK7lAInMmkYj2cME0cBTN78knbyOe1f8apNe09u5O34SpEqODeQS4fXveew+4TRs6yEVN72L03rjZx/DU246A5WpgzAPxmV8HlVH8tW1yUiaThFJo2g6CFj6MJ7nqZlT9xJDVXOA3QOTR9qPc6R/L4jVTJGx9LSmyeq8zpx4iQd2lVMpcdqFVEQzpN/KFcSWVXh0800u9aTdGMlZWgk3Xz3HEKaX1h9bTMVcJroksJaCgrxZdVKKMUnhypyIjQiwCGp4ol+QsL86fb/m0/R8RYVYG1VE+UeKqOqikaCQid9ZAz5B/rQZbdMosiYQPrkdXNVGPq56QczefyW/x+oUo7wp6mhlULC/VVfIEtA4AzyduxB6ql+3Lgcblc1koTp6en0xZdfuN2HNBAEBAFBQBAQBAQBQUAQOLsR6BNSxaedVGlrs0jqY2PiOa1yLA0aZPv2ubGpQQWvbXYQb+XsvnR9d/ZjFt+kCJXszZ/S9g//qRQdejR+7JYy7vxv8lze1iUlbdoFVkKlLHcPrX/1MZvJ/EC+9pMv/R6TKpcqUiRj5lImFzqrDaDA0EqSIztX0LpXfquIA318LOFKkzJhIZ3kjFKObPicK6yECsid1c/+kpDJR1v88Kk095aHedLoS2POuYlwri0N1Xq3R5cFe9fS8dZmRQJh3M5IldSJi9Sx4bpzxMRVKCQmmSYsuV0RD3DBWv/KY4osMg44beoFNP2qe8iXyTEoeta88JBxd6f1qCiLuwx2eML1Z/Unh2jn+nx1nGp22XHVFi0dpc6rrfUEPfXoCirM66zogdvNrHaFiav9drce3FouZ9WLJlS2rs6lD17aQRif0eBGdMVtFnWMsVyve6qfC68dZyVUoET5+NVdNmMByXH992YQ3Itms6Jnx4Z8KmKXIHubvijNSqi8/8J22ri8s6oF5zxtQRo1NVq+w+37wLan+rHvG65UUBnBWlt7lmmrrr5OZZ5DPJXoKIsay/54si0ICAKCgCAgCAgCgoAgIAg4Q8Dxa0ZnrXq4TytV2tjFIzIymgbHJypCBcqV48c7HpIRe2X4sFEUFhrewyNKc08igDgoe798kTa9+UcbQgXHQEyTzW/9mWpLLZNmlEHxMf6Cb2FVxShZ9ewDNoQKyk8eb6Ot7z5JFfkHsKmIGbjn2BtULNoOr2dFB98z9oaUxrnbvqAjO5fb71LbGM+IeVerdShm7AkV7Cg6tIV2f/pfVQeKl1ELr1XrvfEHhErBPsskMTplNAVyfBozAwkSP8wyOS86vFXFsLGvB2JqwEAvFS9lzfMPdSJUUD9nyzI6uOZt1TRp7FxW/Yy378ZmOygoyLrd0OA6CWJtZLcCMuTAzmPqYzapt6uuNiG6ief4IDAoJ8wIFexDvBAQAafCZi4equKn4Fjb1ubR2//bakNi6DFATfPUb5dTHrsRmZkn+klmxcyEmcmq+wM7jtF7z2/vNJba6iZ65Z8blCvTwIED6GJ2EzKzwcmW71u4Cm1elWNWRcVSWfnRQVNSRjfwVD+6P72sKm+w3j/ZHBenp9bQ0KC6MN7nPe1T2gsCgoAgIAgIAoKAICAInD0I9BGp4q0QhmIlKSFFESk5uZm0a8822rNvB392UnmFJdDpQHYbSeQ6A9k1Qqx/INBcX83uMK+5PBgoI+COA9v35UvU2tTh8mXsBOqWA6veUEU+/kEUlTLKuFute/t2EC1h8bZxIzpVdlAQP3waoX8YXG+MChVjk5xtn1tju6ROXGzc5fH1vO1fWfpk9iCZ1SpmljRuniJMsM9a31AxnIPRQmEDg4ql4uhBw17b1f0rONZMOyE1eISljW2Nji3jZLOx0TIB7dh7atbw/w93ExiUH1B39LXNu3C4GgJckb56b7/T4QBqR8FuPdHP/CWWsWAQn7y2y+FY6qqbaft6iwtXKsdZ0ZgaG/j6WwSMCAAM5U93zVP9dPf4rrZraL+n/f39JQOQq6BJPUFAEBAEBAFBQBAQBAQBKwKn3P0HcR5UrAceAhQrUKdkZh/kTBlN1kEdZ9XC0YI88uKJVHh4JNfzZvegOCouOWatIyt9h8CRHcuVu4qrIwiNTbVWHeTrz3FD5rVvGybGkCKw+XGcFm3IWgPFiNGqS/KsmyPmXkkVHKy1krPZuGNBnC1IW3GmY1VDK2fjQVYikDvItgMXJShqesO08gRxalInLDINsJvC5TCjssU4FiPOJzgeUQfOqNWOdTvOKGnmbE0gu4CzMzOmmj3pINOQs/ae2AfiopxVKCBUgsP8aPHS0bTyowOd1BieOJYrffj6DVLxRVD3yOFygnqiO+apfmI4dguspfk4xbGiBx+Y4T/M+r2rv3+hVolPCusUaBbxYBDYFnb+1WOV6gXxWdw1T/Xj7nHdrX+S7y1tIO9OOHEb1PVkKQgIAoKAICAICAKCgCAgCGgETjmpAhLlBLtneHHcC1hVdYUNoaIHhmVJaZEiVbAeEhwqpAqA6AdWX1nk1ihCohOt9XUGIWuBk5XQ2JROexF/pIaJFRAICEp7AQebrSsroFKO01J+ZB+nZd5n43rUqQMuQApmbXBXcmZNte2ZTZiMgFsOMh/1hukYKcM4O1I4uzgFM2Y4L20BoVHW4LwFnA4ZxIq9oY02pGnGxxUzw9nYrr6+Q1mE1LN9ZSs+OEDX3jldHX7RpSNpzvkZKoAqSA0Eh0VQVmT+ORUWGduh4EBmn+6aJ/rx8hpIEZzyGAaS5sa7Zro8nBhO/2yfvWftssM0eU6qUrGMnDCYho+N53TMVZR3qJyO5lZS7sEylcK6q4N4qp+ujtPT/QGBlnsaAdJ1nK+e9intBQFBQBAQBAQBQUAQEATOHgROOakCaNs4boomVRAo0JEhA9BJdgmBC5Cvr6+jalJ+ihFoqCp264jBUR2T/bK8vS63NSNvEC9lxTP3cqDVn1hdXUAm4KNJBMRz2bXsf3R0zxrTYwUYSJWmLkgVI+kCMqa3SBUMFNl8QKrAoFbZ88ULah1/kscvsCoN8nZ8aS03roBk0lZdlMtuTa5N9qHIcWZGUgXZufrKdm7MJ29fThl83Xjy5ZTKyPKDjED4wBAgdu/WAvrw5Z0qU01vjjMqriPOTFV59+PMeKKf8KgAqztUc1MblThJ22yPSWN9i30RVZTW038fX01X3T5VZfqBq1XikAj1QWUQ4yBY3uegvM6O5al+Og3QwwX6njbe5x4+hHQnCAgCgoAgIAgIAoKAIHAGI9AnpArce/iVqoK1tbXzQ70R77bWNkWoIDPQQA7AeZKznoj1LQJmKglnI0LMEn+KVFVWPP1zToHr/Jo76wv7GqvLFLEChUXCqJlKwWFJgWyZ8CMDDtI3b3nnCcrc8GGn7ozj92rPRNWpUnuBF2f/0WZsp8s8uSxnV6Z6Tk0dxKmpkQXISKpo1x9kICo6vM30sAi6q23nJ/+hYwc36c0eLaurq63tg4M7FBrWwlO4smVVLu3aeJQyxsTSsLFxhACtcYkW1xfEB5k4K4WQnvivv/yiV1UrLU0dihgfVod01zzRD1x+tMFF6t+/XaE3u708wkF1/3LfMoXvCFarANMkTlftNWigIveGjIimu361mI+1nI4d6bg/7A/oqX7s+/XUNsh6Hx9LOmzjfe6p/qUfQUAQEAQEAUFAEBAEBIEzH4HuzwZ6gM3x9lTKLnVhDApAnTO9uNSHVOpTBODGEhKdpMbgFxyuiANPDKim5Ai7Ah1RQXMHcCyE6NSxKv1xXMYk1f2EJd+mXFZ/GMkG7GioKrEe3j84kqDqcGRIEa3N2E6XeXoJtQpSOIMYQqyTqmNZKvVzZJIlEOmRnStVZh+z49aWHbUWA2dPWU5uRwaYpCTLdfRU393pBy4++7YVqg/aB4f60cTZKbTwkpHkxwqWiJgg5Rq0nN2Fums6TbKj9uUlHeoeKEW6a57op66mWQXBhXonKMRCVnd3PMZ2J0+yIoVdq/CBQRk0ckI8nXP5aIriALYgsZZcO56e+cMqY7NO657qp1PHHihITk629mK8z62FsiIICAKCgCAgCAgCgoAgIAh0gUCfpNSBW482H58OJYAuMy4RpBYGX/e+CpJpHI+su4+AcbLvz7FBesO+5gCqpTm7aMV//s8a3BYpmcPihnQ6nJEcCWRViDODagR2gtVVXbkK6X7ami1uN16citldQzYibVCrwPQS68b92DZarV0MFuO+nqyXlJRQXZ2FRBiS2hnPnvTtibYgFVZ/coie/VOHu1dKhvl91ljfaj2kf5BFoWAtMKyERjgnShCYFsFzYVopY2ju8qqn+ikrtsS9CWKCqbcyI4HM2rXpKP3rN8sJWYRgUAoZYh+7dN6e6selg3VRKTUl1VojKyvLui4rgoAgIAgIAoKAICAICAKCgKsI9AmpUllpefOJQYYEhTgcq78/xwrgeCqwFpPAnA4byo5+hUA5B4/VljHzUr3aK0ukZUYmHW3evp0nx7Uc6Fabs1TJCBgLxQistvSINQWxbutoqWPBILDtgPb711Fd+3LEg0HGIVjKhAWcvmUApU5cpLbrK45xMN79at3sTxVnQQL5A0ubeiFPrj0nRMvMylT9xsTEEFLP9kfLz6qwpi2GYsXMjFlswhwQJ1B8JKRYsueY9YGykye+poIcS5BjZCQaOXGwo6pOyz3VT36W5Tt1ELvnTJ7Tu8QXiKkCDlgLG+Q9kD9eTs/R0U5P9eOof1fKNamCjD+iVHEFMakjCAgCgoAgIAgIAoKAIGCPQJ+QKq2c7rWurlaNBSmT/f06T3yxMy4m3jremhrHfvvWSrLSLxE4yhl7yjg7DwyxQRD/xJmBDEgYOcO0CkiOrsiC6NTR1rZwn7G3kuxdVFlwWBXHpI2jKEN9a10mM0YvvN66eWDVm9b1rlZqivNUFShlksbO6ap6p/06EG1geBwNnX6RynSESs5UKtiPTEUHVr6OVRWXZeT8a9S6sz84f9+AEGdV1L7NWzarJdLxjh07tsv6nq4A15OIaOdBcmM5tgoIEdixfPPvi+qKjqCyE2Ymm6osZp+bYe3H2Xl88tpuDtpqqXEBpx525noDd5noePN4NJ7oB65OTQ0WFc7ipaMoMNi5AjAg0IcQF8XM4pIsMWrM9qEMJMrgFIt7WVlRncO01p7qx9E4elqOeCrDh1vc6vbs2cNZ6Czqm572K+0FAUFAEBAEBAFBQBAQBM4uBLyCw2Me6otThitPeJglXkV4eAQrUVoJKS2RWQIuQYkJKdZ0yi0tLXTkaE5fDPOUHDM81DKprarpiNNwSg7sxkGiUkZZs+3kbvuC46IUudGaFIkxdPrFhNgnaVPO44CXPiq2icVV5mvyZmItPD5NZb+Zdf19lDh6Fh1Y9UanY0y65E6aevmPyCcgmFqb6ug4u9ro4MUgB8ad/03OArREtas4eogOrXm7Ux8ogCuPVoCkjF+gsvrALQjZheDyM+WyH1BKu0IEMWEQ9NY6gzbtsaMQ7k7DZl3K58qTz3ZyyNvXn+BqFBQ5mAMuD6KWRgup2NGqYw3jGDHvKp7wD6DYoROtJNLmt5+gloaajoomaxX5Byh18rnkw4QOYsuEDU5XqZmBFVykBnLA55DoZM4mNJ9mXPMzGrXwOsrZ+lmX/ZaXl9P0adOVSgWT0S1btpgcvfeKQiL86Wd/WEJw62lrO0HIcmNMn5w+KoauuWM66VgoX767nypKLC4xxlGhTSr3gbgrIB6wPJpdSQj2Cpef+UuG0yImJeprm1V6YrTd8GUWNbYTFsa+aqqaFNETnxym+prEcV2QCaihrkURDUh1DCJl2oI0uv670ylzb6npmDzRDzIftbacoOHj41VcmSnzhlBDbQvVs2uUxgmxZ5LSI2jxpaPoym9NJT8/b5UtyXhOWL/rwXNoKrcfMHAANfN5Nze3WW99nM9V3DYh1UKqbFubR1n7OmIUGfvyVD/GPj25PnnSZJo4caLq8q133qKKigpPdi99CQKCgCAgCAgCgoAgIAicJQh4zj/ATcCqa6oovyCPkpg8QXrlISnpqocTnN3Hiyej2k7wJPco1wPZInb6IlBdlENrX3qEpl15N/kGhtHoxTeoz4njrdTW3Eh+QbbuFs11VQ5PFkFYRy/i9vzBbK+xtlxlhvIL4okeExEwkBZrX3zEYR+F+zcwafMmjZx/NQ1iwmPON36lSAeQPCBstDXWlNP6136n9umyrpYgRXZ+8gxNvPhOGsRxVcZf+C2bJofWvkPb3v+HTZlxA4qT0uydilBBexiUNXAN6sqQWWnV/+6nmdfdqwLdJo2ZQ/iAUGmuryZgB7LGXcP/37r16+iSiy+hYRnDKDQ0lGpqnBM87h6jq/oYNrL+4AMDWVDPxAHIAgRN1bZm2WE6tNsx6Yf4K+mjYtWtgmxB+Bxnoka7saz73OLqNPu8DN2lwyXSN4N8QB9Qqtx410xVF+PyD/Tm7zbXxICe6Gfj8mwKCPZRAXtBLiElMqy5sU2dq1bxqMIu/kD1c+lNFsIBsWNqK5vIL8Cbz6kjDg3crT5/e6/TnjzVj9ODdHPn1KkWfErLSikz03LNu9mVNBMEBAFBQBAQBAQBQUAQOIsR6DOlCjBvampUH/+AQBo0yMLv6Bgq2F9bW0PZuYfJGNgW5WeanQ1KFVwzkAI5Wz4nxBoJhmKDyTSkydbEAepAiXFk1wra99XLhBgi9gZyAKoW/xCkd2VXD55pw80GxAjWoTTJ2bKM1r/6GCthiu2b22wXc+wVuAfFpI0nxF4B2aBTKOM4xw5spJX/vY9VLAU27VzZQOyTMg6c6xsYyn36KOWIbgc1SdEh50oP4AK1jjaodpzFU9H1sAR5AgxwDsgghOPj3KCW0YQKyKxjBzZx5qRXqZRds1C3KysuLqZZM2epFLRQlek4K12188T+rzkTDVyAQAxo1xak98UkXxMXZZxO+CMmOdZ+5nyCXFnWQEVHq2nEuHgrkTKQyQ+4z2xZnUsfv7LTkq45PVIN3ZFSBTuPHz+pshAVsbtR0pAIK+mAsQ5ksgWGoK5rlh1iVUihIm9Uod0fT/WTe7CMDuwooniOCRMcZrneIIs0YYTDlrOCZ8uqHNr4VbYipeyGwv+XAxlrLwpBez71/r5TAABAAElEQVQHnAdw1sQVcFrx4QH64KUdDl1/0Ken+rEfnye2Y2Nj6bKll6n/h/fef48KCt3/H/fEOKQPQUAQEAQEAUFAEBAEBIHTH4EBg9PG9AsJiJeXFwX4B/KDuw9L8ZupuaWJs2ucOP0RduEM0pITVK2c/EIXap8ZVRDANSgyXsULgdtOY00ZNVSXKgLDlQk+XGvC4lKZXIlSBEsb3y8NlcVUV1FIrY3uu1H5h0RSGLsfQe1SU5JHiIsC4uFMMJxbaGwKBYbHKsKlsbqMXYKO8gS/xe3TWzB/AV1x+RUq/sRDjzxEjY0dMUrc7qybDaBMQYyS4DA/RbTUVDYqtxu4+7ijaANJEJ8Uxn0FUXFBDRXl17jV3mz4IH1iOXAt3GTgolRZ2kClx2qtmYLM2piVeaIfBK2N4nHEJoQqYgTxZJBtyBhXxuzYuszXbxAhCG9IuD+7Vfkqlyi0B85wN3LVPNWPq8dzpd4tN99CcP8pKCigx//0eI+vuyvHlDqCgCAgCAgCgoAgIAgIAmcmAv2GVDkz4XXtrM5GUsU1ZKRWf0MA5Of9995P0dHR9PkXn9NHH3/U34Yo4xEEnCIAlQruYai2nvz7k6dUceV0YLJTEBAEBAFBQBAQBAQBQeC0RKDPYqqclmjJoAWBsxwBqMdeevkllTVFsqWc5TfDaXr6oSGh9OmyT6m+vl4IldP0GsqwBQFBQBAQBAQBQUAQ6E8IiFKlH1wNUar0g4sgQxAEBAFBQBAQBAQBQUAQEAQEAUFAEBAE3ETAtdQUbnYq1QUBQUAQEAQEAUFAEBAEBAFBQBAQBAQBQUAQONMREFLlTL/Ccn6CgCAgCAgCgoAgIAgIAoKAICAICAKCgCDQKwgIqdIrsEqngoAgIAgIAoKAICAICAKCgCAgCAgCgoAgcKYjIKTKmX6F5fwEAUFAEBAEBAFBQBAQBAQBQUAQEAQEAUGgVxAQUqVXYJVOBQFBQBAQBAQBQUAQEAQEAUFAEBAEBAFB4ExHQEiVM/0Ky/kJAoKAICAICAKCgCAgCAgCgoAgIAgIAoJAryAgpEqvwCqdCgKCgCAgCAgCgoAgIAgIAoKAICAICAKCwJmOgJAqZ/oVlvMTBAQBQUAQEAQEAUFAEBAEBAFBQBAQBASBXkFgUK/0Kp26hUBOfqFb9aWyICAICAKCgCAgCAgCgoAgIAgIAoKAICAI9D0ColTp+2sgIxAEBAFBQBAQBAQBQUAQEAQEAUFAEBAEBIHTEAEhVU7DiyZDFgQEAUFAEBAEBAFBQBAQBAQBQUAQEAQEgb5HQEiVvr8GMgJBQBAQBAQBQUAQEAQEAUFAEBAEBAFBQBA4DREQUuU0vGgyZEFAEBAEBAFBQBAQBAQBQUAQEAQEAUFAEOh7BIRU6ftrICMQBAQBQUAQEAQEAUFAEBAEBAFBQBAQBASB0xABIVVOw4smQxYEBAFBQBAQBAQBQUAQEAQEAUFAEBAEBIG+R0BSKvf9NbAZwYL5CygoKIjq6urU52jBUSorK7Op485GYmIieXt7U3VVNVVVV7nTVOoKAoKAICAICAKCgCAgCAgCgoAgIAgIAoKAEwSEVHECTl/smjJ5CiUnJ1sP/fXXX9P+A/vppZdfooaGBmu5qyuTJk6icxafQyUlJfTY7x+jkydPutpU6gkCgoAgIAgIAoKAICAICAKCgCAgCAgCgoATBLyCw2MecrJfdp1iBKAqKS8rp8rKSgoNDSUfHx+KiY4hPz8/2rd/n9ujKSgsoLlz5qq+oH7Jz893uw9pIAgIAoKAICAICAKCgCAgCAgCgoAgIAgIAp0RGDA4bczXnYt7t2Tk8LE0cOAAtw7S1NxEObmZbrU53Sv7+/nTAw88QMFBwUphcs9P7+mW0uTiiy6m8849j+pZ6fLrXz9CwFJMEBAEBAFBQBAQBAQBQUAQEAQEAUFAEBAEeoZAnwSqhfrCx8fXrc/AAX0y1J6h28PWID/27Nmjehk4cCCFhoR2q8eVq1YqMiYoMJDmz5/frT6kkSAgCAgCgoAgIAgIAoKAICAICAKCgCAgCNgi0CcxVSqrKmjAgK6VKoEBgez24q9GXFVdYTvys2SrtrbWeqZh4WHdCjZbX1+v4rKMGT2GZs2cRZ9/8Xm3FC/WgciKICAICAKCgCAgCAgCgoAgIAgIAoKAICAIUJ+QKkcL8lyCHm5CMARXPVsz17S1tVmx8vH2sa67u7Jl6xb6f/bOAz6uq8r/x+pt1HuvtmXLTS5xjZ3YaUtCEggJgUDo5b+hQyAsoSRAAoSyBJaysKGEwC6QDqS4xHGNi9yLrN5779X/c+7ozbwZzYxGozIj6Xc+n/G8cu99937fSNb7zSkiqoSHh6v3s+fOTnYItAcBEAABEAABEAABEAABEAABEAABENAR8NiYmuDgEJWcVeba3t7KwsqIbtrYnCyB8+fPkybQbNq0abLd0R4EQAAEQAAEQAAEQAAEQAAEQAAEQMCKgMeKKtGRMaaptrQ2m7ax4RoBEVSqqqtU55zsHE4U7LG33rUFohcIgAAIgAAIgAAIgAAIgAAIgAAIzDIBj3yy9vb25jCVSIViYHCAq9Z0zTIWz7nc1avm4kyLJlkxyXoVFRUV6pAkCk5NTbU+jX0QAAEQAAEQAAEQAAEQAAEQAAEQAIFJEPBIUSUiPMrkSdG6wL1UergMsmahoaHapkvv5RXlpn7ZWdmmbWyAAAiAAAiAAAiAAAiAAAiAAAiAAAhMnoBHiipRUebQn4UuqugT9Kalpk3+Dut6tLe1m/aio6NN29gAARAAARAAARAAARAAARAAARAAARCYPAGPE1WCAoNIXmJdXZ00ODQ4+VXNox4lJSXU1tamVrRx48Yphe3ovV4MIYZ5RAlLAQEQAAEQAAEQAAEQAAEQAAEQAIHZJ+BtiIj95uxf1v4V4+MTKSgoWDWoq6+h/v4++40XwBkpJ11aVkqJCYkUFRlFG68xCispKSmUlpZGkRGRVFtb6xyJRUS7du5SbXt7e+noW0ed64dWIAACIAACIAACIAACIAACIAACIAAC4wj4jDvixgNSkUbyqYiNjIxQR4fRQ8ONU/KIS1dWVtKPfvIjSkpKoi2bt9D6despb3memltRcREdP3HcqXmKQKOZl7fHOSlpU8M7CIAACIAACIAACIAACIAACIAACMwJAh4lqkjFH6n8I9bW3kKjV80iwJygOUOTDAsLo1vfdqsSU0R4kjwrV4quUHd3NzU0Njh9Vc0DSDr0dJsT4Do9ABqCAAiAAAiAAAiAAAiAAAiAAAiAAAiYCHiUqBIdaU5Q27LAq/5od2jRokX04Q99hNI51Eds957d9PI/Xia914nWdqL34GBjrhppJ4IMDARAAARAAARAAARAAARAAARAAARAwHUCHiOqBAQEUnBwiFqJ5FHp7YUnhcDISM8wCSpl5WX04ksvuny39SWZ9VWFXB4QHUEABEAABEAABEAABEAABEAABEBgARPwmMQaUZHmEr/wUjF/IvWlj0+ePGk+4cJWakqqqZckv4WBAAiAAAiAAAiAAAiAAAiAAAiAAAi4TsAjRBUJcYmMMIoqV69epda2FtdXNM966r1Lmluap7Q6qRYkpioKlUJUmRJMdAYBEAABEAABEAABEAABEAABEFjwBDxCVAkPiyAfH2MkUmdXBw0PDy34G6MBEMFJs5HhEW1z0u8yTlqqUVSpqq6igYGBSY+BDiAAAiAAAiAAAiAAAiAAAiAAAiAAAmYCHiGqRCFBrfmOzNBWTnYOBQUZE9UeO3Zshq6CYUEABEAABEAABEAABEAABEAABEBg4RBwu6ji5+dPBkOoIi4eKp2d7QuHvhMrlRLKmrlS8Ufru27dOrU5ODhIx08c1w7jHQRAAARAAARAAARAAARAAARAAARAwEUC5id2FweYajd9glrJpSI5VWBmAoYQg2mnvcM1wcnX15dWr1qtxjlx8gT19/ebxsQGCIAACIAACIAACIAACIAACIAACICAawTcKqpIng+E/ji+cZmZmaYG7e2uiSrr162ngIAAGhkZob1795rGwwYIgAAIgAAIgAAIgAAIgAAIgAAIgIDrBIzZYV3vP6We4pVy/uLpKY0x3zqnpKRQSHAIGUINtGrlKkpOTlZLLC4upqGhySfw9fb2phtvuFGNceDgAWpsapxvyLAeEAABEAABEAABEAABEAABEAABEHALAbeKKm5ZsYdf9J533UOpqakWs5RKPc8+/6zFMWd3Nl6zkSIjI6m3t5deefUVZ7uhHQiAAAiAAAiAAAiAAAiAAAiAAAiAwAQEIKpMAGi2T7e1t5GPrw91d3VTZ1cnVVVV0dGjR6mvv8+lqUjIzz//9U+qqKxQwopLg6ATCIAACIAACIAACIAACIAACIAACIDAOAKLEjPzkBl2HBYcAAEQAAEQAAEQAAEQAAEQAAEQAAEQAAHHBNyaqNbx1HAWBEAABEAABEAABEAABEAABEAABEAABDyXAEQVz703mBkIgAAIgAAIgAAIgAAIgAAIgAAIgIAHE4Co4sE3B1MDARAAARAAARAAARAAARAAARAAARDwXAIQVTz33mBmIAACIAACIAACIAACIAACIAACIAACHkwAoooH3xxMDQRAAARAAARAAARAAARAAARAAARAwHMJQFTx3HuDmYEACIAACIAACIAACIAACIAACIAACHgwAYgqHnxzMDUQAAEQAAEQAAEQAAEQAAEQAAEQAAHPJQBRxXPvDWYGAiAAAiAAAiAAAiAAAiAAAiAAAiDgwQQgqnjwzcHUQAAEQAAEQAAEQAAEQAAEQAAEQAAEPJcARBXPvTeYGQiAAAiAAAiAAAiAAAiAAAiAAAiAgAcTgKjiwTcHUwMBEAABEAABEAABEAABEAABEAABEPBcAhBVPPfeYGYgAAIgAAIgAAIgAAIgAAIgAAIgAAIeTACiigffHEwNBEAABEAABEAABEAABEAABEAABEDAcwlAVPHce4OZgQAIgAAIgAAIgAAIgAAIgAAIgAAIeDABiCoefHMwNRAAARAAARAAARAAARAAARAAARAAAc8lAFHFc+8NZgYCIAACIAACIAACIAACIAACIAACIODBBCCqePDNwdRAAARAAARAAARAAARAAARAAARAAAQ8l4CPp0zN28ub/Pz9aRFPaGBwgEZGRjxlapgHCIAACIAACIAACIAACIAACIAACIAACIwj4FZRZdGiRRQTHUexMXHk6+tnMbnh4SFqbGqgpuYGGh0dtTiHHRAAARAAARAAARAAARAAARAAARAAARBwN4FFiZl5V90xCR9vH1qck0v+/gEOLz84NEhXii7REL/DQAAEQAAEQAAEQAAEQAAEQAAEQAAEQMBTCLjNUyUtNcMkqPT391FtXTX19vXQVZZ4AgODKDE+iYKCgsmPPVjS0zKpuKSQz7lF//GUe4V5gAAIgAAIgAAIgAAIgAAIgAAIgAAIeBABtySqFbEkNDRcYRgeHqYrxZepo7OdvVGGSMJ+uro6qKjkMg0OGr1TQoINFBJi8CBsmAoIgAAIgAAIgAAIgAAIgAAIgAAIgMBCJ+AWUUU8UTRrbWvhpLTD2q7pXfKotLQ2mfb1fUwHsQECIAACIAACIAACIAACIAACIAACIAACbiLgFlHF38/ftNzBwX7TtvWGVAHSTN9HO4Z3EAABEAABEAABEAABEAABEAABEAABEHAXAbeIKoM6scSbE9baM18f8zktFMheWxwHARAAARAAARAAARAAARAAARAAARAAgdkk4BZRpZNzpmhJZ7XcKrYWHWow5l2Rc5JzBQYCIAACIAACIAACIAACIAACIAACIAACnkLALaKKeJ3UN9QqBsGctDY5KZW8vMxTWbRoESUmJJPBEKraNDY1kFQIgoEACIAACIAACIAACIAACIAACIAACICApxBYlJiZ57Y6xbEx8RQfn0jeXt40MjpCA/39JJMJ8A8gb29vkmS1DY11JgHGU6BhHiAAAiAAAiAAAiAAAiAAAiAAAiAAAiBgTlriBhaNTfU0wIlqU5MzyIfzp0ipZc1GRkaoqrqc2jvatEN4BwEQAAEQAAEQAAEQAAEQAAEQAAEQAAGPIeA2UcXPz48y03NIK5UsyWv7JMSHXVUCAgNJqv2kp2XRwEA/lZQVqXePoYaJgAAIgAAIgAAIgAAIgAAIgAAIgAAILHgCbgn/kdCe3CUryNfXl0avjlJ1dQW1tDZb3IyIiCj2YElXuVZGRobpUuF5GhoasmiDHRAAARAAARAAARAAARAAARAAARAAARBwFwFzdthZnIHkUhFBRayhoW6coCLH29paqK6+RjY5v4oPxccmqm38AwIgAAIgAAIgAAIgAAIgAAIgAAIgAAKeQMAtokpEeKRp7S0tTaZt643mlkbToXBdH9NBbIAACIAACIAACIAACIAACIAACIAACICAmwjMuqgi5ZL9OF+KmFT8GRq2H9Ij1X+GhgZVW0lkK2FDMBAAARAAARAAARAAARAAARAAARAAARDwBAKzLqroF+21yItEZHFkXl76KTpu62gcnAMBEAABEAABEAABEAABEAABEAABEACB6SSgVyymc1y7Y129epXLKA+o8yKo+PsH2G0reVckn4qYJKmVhLUwEAABEAABEAABEAABEAABEAABEAABEPAEArMuqsii+3p7TGtPjE8ybVtvJMSZz/X2mftYt8M+CIAACIAACIAACIAACIAACIAACIAACMw2AbeIKnUNNST5UsTCwiIoIz3bwmNFcq6kpmRQVFSMaiPeLXV11Wob/4AACIAACIAACIAACIAACIAACIAACICAJxBYlJiZd9UdE4mMiGbhJN0ip4omtFjmUSGqqq4gfSUgd8wX1wQBEAABEAABEAABEAABEAABEAABEAABPQFjwhL9kVnabm1rJgnpSUpIptDQcHVVazGlq6uTamqrqK+/d5ZmhcuAAAiAAAiAAAiAAAiAAAiAAAiAAAiAgHME3Oapop+eJKP19/cnfz9OWssFfgYH+mlgYICGkZhWjwnbIAACIAACIAACIAACIAACIAACIAACHkTAbZ4qegZS1ae3V15IRqvngm0QAAEQAAEQAAEQAAEQAAEQAAEQAAHPJeCWRLWeiwMzAwEQAAEQAAEQAAEQAAEQAAEQAAEQAAHnCEBUcY4TWoEACIAACIAACIAACIAACIAACIAACICABQGIKhY4sAMCIAACIAACIAACIAACIAACIAACIAACzhGAqOIcJ7QCARAAARAAARAAARAAARAAARAAARAAAQsCEFUscGAHBEAABEAABEAABEAABEAABEAABEAABJwjAFHFOU5oBQIgAAIgAAIgAAIgAAIgAAIgAAIgAAIWBCCqWODADgiAAAiAAAiAAAiAAAiAAAiAAAiAAAg4RwCiinOc0AoEQAAEQAAEQAAEQAAEQAAEQAAEQAAELAhAVLHAgR0QAAEQAAEQAAEQAAEQAAEQAAEQAAEQcI4ARBXnOKEVCIAACIAACIAACIAACIAACIAACIAACFgQgKhigQM7IAACIAACIAACIAACIAACIAACIAACIOAcAYgqznFCKxAAARAAARAAARAAARAAARAAARAAARCwIABRxQIHdkAABEAABEAABEAABEAABEAABEAABEDAOQIQVZzjhFYgAAIgAAIgAAIgAAIgAAIgAAIgAAIgYEEAoooFDuyAAAiAAAiAAAiAAAiAAAiAAAiAAAiAgHMEIKo4xwmtQAAEQAAEQAAEQAAEQAAEQAAEQAAEQMCCAEQVCxzYAQEQAAEQAAEQAAEQAAEQAAEQAAEQAAHnCPg41wytQAAEQAAEQGB+EoiJiaGQkBDq7e2lhoYGlxc5XeO4PAEP6hgcHEyxsbFEV4nKK8rp6lXemMcWGRFJaWlpZDAY1GtoaIhee/21ebxiLA0EQAAEQAAEQEAjAFFFI4F3EAABEACBBUcgMCCQPvfZz1MIiwD/+3//67KoMl3jzKcb8P8+8f/I39+f/vDHP9CJkyfm09JMa/Hz86P3vfc+WrFiJXl5mZ1/W1paIKqYKGEDBEAABEAABOY3AY8RVby9fSiA//gaHBykoeGh+U0dq5t2Ag+tX0PBvr5U1dVNvzp3cdrHx4Dzh8CD69ZQXlSEzQX94OQZOtfcYvPcQjgYFB5D197/LbXU8oI9dPnA3+f9sm+68SYlqMhD8NG3jrq83ukax+UJeFjHnp4eevPAm3TDrhvotltvozNnz5B4b8w3k/WtWrVaLWtgYIAuX75EHZ2d1NHRMd+WivWAAAiAAAiAAAjYIeBWUUW+1UlMSKbwsEjy5QdizQaHBtkNu4fq6muov79PO4x3ELBLYFV0NIX5+1Gwj/lzZLexB5740PKltC0pYVIz++9zl+hwXf2k+qAxUTh/TmICA22i8Pc2f9Nss8EcOejjF0BeLFSLDfZ1Oz1rbx8/ikxeoto3lp5zut9cbRgVFU3bt29X03/1tVdpZGTEpaVM1zguXdyDO+3Zu4e2bd1GERERdN2O6+al58aWLVvVHRBB5dHvPEqdLKjAQAAEQAAEQAAEFhYBt4kqgYFBlJGeTf5+/uOI+/n6kV+YHxlCQqm07Ap19zj/UDBuMBwAgTlAIIxdyOODgiY100Af70m1R2MjgV+evUAhOhF3c2I8vTM7c17h2XLfw5SUu5HzWVylZx7cNa/WNp2Lufmmm8jb25u6urvo2PFjLg89XeO4PAEP7Sg5asT7Z8f2HbRr5y7a/+Z+EvFhvpiE/kjYmNjlwssQVObLjcU6QAAEQAAEQGCSBNwiqixatIjSUjJMgkp3TxfHsddRH3uliMdKWGg4xcUmqD92s7KWUFHxZeW5Msm1ofkCInCsoZGCfHyoprtnzq9awk/q+GFkIqvtmbjNRGMsxPOVHCKmt4ywUP0uthcIgSAWMfPX5KvVFhQU0OjoqEsrn65xXLr4HOh0/MRxJaoEBATQurXr6NDhQ3Ng1s5NMTw83NQQHiomFNgAARAAARAAgQVHwC2iSlRkNImnilhXVyeVsDeKVhlgaCz0p6+vV3myeC3yopjoOKqoLF1wNwcLdp7AjwrOON/Yw1v+o7yS9lfXevgsMT0QmNsENqzfYAo7PX78uMuLma5xXJ6Ah3esqqpSyX/j4uJoK4fKzCdRRTxVNBsanH/5YrS14R0EQAAEQAAEQMAxAbckEIiIiDLNqr6hxiSomA7yRntHG4f9dKlD4WERymtFfx7bIAACIAACIOAqgU2bNqmuLS3NVFlV6eowNF3juDyBOdCx4FSBmmVSUhKlpqTOgRljiiAAAiAAAiAAAiDgPAG3eKr4+weoGYq7taN8Ke3tbRyvbFBlCsPDI6mlpcn5lc3BlpJAc0uiMVnplbZ2KmrvoCwOTciPjeFqJZE0wEkUC/n4ycYmKu80Ck4TLXNdXAzFjeXq+GdZBV3lDhFcZemWjFTKDgsjyeXR1NdHl1rb6NWKKuq3k6jRj/MObIyPJQmVyAwNJa9FRKUdXVTKSfmO1TdS3/CwzakE+/rQjuQkde44t0sIDqLrU5PUdQsam+mVikoaHBmlldFRdC0nak0MCVZr/HtRKXXbqRThz3PZlBBn83qdXD1Kxp2MybU38NriggIpkl3Ue/m6rRz3X87rO1rfQHVOhtlIfxkrkxllMCOZS2lHJ51vaVWvyczJlbZrYqIVP+l7sqGJ6h2EEMXyXNfHxarLyP2Xe2htfItpcUQ4reXPXzzftyhm482hexVdXerzJ5/REl6fPduZkkQBHJJVwlUwuvhb3FvSUxWXi62t6rPW3NdPSXy/d6UmUy4nspSwnH+WV9j8bAvT3EhjxZ4jnJy3rX9A/VysiI6kJTzHht4+uszzOcb3q5XPzaZJOOPa2Gh13+VnIzzAnyr457OkvVN9fuRzMJMmyWUz199kcYng8LGfD55bzqbbLM5pO2UFu2l4YOJE4H5BBorLWsOvlRQWn0ldTVXUWHaOyrm/sybJb6PTcikiMZsM0UnU3VJLbbUlVFd4nDp5PHvmGxBE6Wt2qtPSvrniIk3HfML4d19CvPF3bWlpmb3LT3h8usZJ4PximcuNFWTOH32TOloayY//n8y/7hbKWbmWIjgcto9zi9Wzx+aBF/9C7U0NducWwl9CLF69gdKW5lHK4mXUz/3qykvo7OG9VHH5vN1+1ie8+Wd39bU3UlLmYoqKS6TQqBieQxd1tjZT1ZWLPN4+6mpzrlJWaanZ03TJkiVTErGs52lvP86QQGtTNtDB0jeosx+VeOxxwnEQAAEQAAEQAIGpE5h1UcXLy5t8xyq0SKiPIxscMj8chQSHzHtRRcSPB1blKSR/vHyFUg0h9IX8VSQPbZpJhZgPXl1KPzt9jgUJ+w8jWvtbM9LomnjjA9a/OKxkGyfl/MLa1eTHlZfMFkHbkxPpjqwM+uDr+8yHx7ZSeB5fXZ9P6aEGi3Prxh7KJY/Jd48XKAHBogHviICjremFkHJ6G8/HRxQZNpmXrHF/TR19d8s16oFdjos4IK8vHThCQzbyHIgQ9GUui2vLLre2Oy2qyNwe2pBPK1iwsmcfW7GMfnvhEv2NRR5HJpw/kpdLIvjoTavo8w8WtH59/qISkPTnp3O7jYWgb2xcp+YgYs5n9x+yyU/4f23DWsoJD6Ph0av0pYOHx01jBYtDUqZaGFnbqhizp9nfi0vpqQuXaYQTolrbh5fzQzQLDG/W1NKyyEiKDjSKqfksQGxKiKdHjp6gx7dsNB2XcbcnJ9Dn3zw8LjeOCDtSIUlMxJf7li5WIo3+mjelpVDbwGL6Fo8r4uNsWCxXEfrSutVK9NRfbxXzExPh6PETp+gCC2szZT7+LJC947N2h7d3rubS0QlFleCIeLrxgScpMNT8MxKXtYqyN95KKXlb6MifH6dh3e9p60l4+/pT/m2fHCfsxGauVE1HhlkEffG/qOjIS9Zd1X5ASIRpbZff/Bv1dbZOaT7aRbKzsrVNKq8oN21PdmO6xtl0y5107e33qssXFhyl3HWb6b4Hv0PBoWEWU1p+zTZu92766l3baciGWLdq606657MPUxAnedfbsg3b6Pp3vZ/2P/dnevmpJ/meOf6/d8MNb6eb3/dximQxx5ZtvOkOuuuBr9D3P/luFmyKbTWxOFZZWak8UuX/suzsbHp99+sW52diJ8gvmO5ZfR/dtfJeKqg+Tm+U7KYLdWf5i4Xxv6tcvb7+/2ZXx0A/EAABEAABEACBuU/ADaKK+WF+osSA+vM+c7RUrqsfkQ0sWMhD7yCLCmc5cWlFZzd7iRhIHnZFEPnMmpUUzEl95aHWWZMHva+wGCF/CA7zuPJw2sVeGcnsLSBeCEHsVWJt4gXw+NaNFDAmFkgfeUAc5YfoZVERyvNAvA1+vH0Lff3wMTrDc7Vnt2el0wEWUMTz4wb2TpAHbhFZrmePhsou9gqpa2RPj0haziKHXFfWWsBeOdYmQosw0Zs8tGtijf64vW0vZvAVFg00QaWe53ScvTvaBvpVZRhZ0xL2nhDvoYCx0rS2xhKWD7NAoXnOiMeOzE04RbIgIWsRLw9ZZzbfTxEMhN1MmHgv/YIr23yWPxvi2SEij+xb2weWLVWfLTn+u4uXSYQoa4vie6MJKuLJIuup7e6l3uEhEiFhNQsjcl6q5si9+uqht2wKODLutUmJSuR4vbJaeQSJ95W8frnzWva+GlWClVzvOv4chLJgJp+N310stJ6Saf8Dy5awSBPB92qAzja1qHfxYpF5yJy+x5/Xr/FnUTyEZtLk5+lr16w1VRIS/uLx1cufgTSDgdYwIxGSvs/z+faxk3Skzr53wVTmOToyRNUXLJN/RqcuowCD0bPH+px2rZEJHqwDQsLp+o99n/wCg6m+qIC6mmvIEJVIcTn56ndIyoprlefIpf1/1Ya0eA8MjaKdH3+CQmON4R69Hc3UVHaWetoalLeKeL+I14mIPiE87qmXf2XR33pnqvPRj5eVlWXaraisMG1PdmO6xknONgqGA309lJKTS+9/6DFm7KWEk/qKEhri30txqRkssoQr7xBrQUW8St71qa+SiB1ivd2dVHz2JDVWlVN4TBwt27BVCS073vFeHrOf/vG7n9td6vpdt9J7vvBNdX6Ef94vHjtIjTWVag5RCcmUmJGjvFeusiDbXOtc2JQkoW9sbCTJq5KZkam8T/X/v+snE+ATQMnhxs+M/riz2zUd1dQ31Msizqjq4s1f5KxP3ahezT2NtL9kL73Jr/a+NmeHtNsu1GAWrxx53dodACdAAARAAARAAATmBYHxT9EzvKxh/iNN/pjyYmHAV5fkzdZl/fhbTs18+I/GhWTygChhA/Kwqg+xECHj25s2UCDzeM/SHBU+0zNkO/TGmpd4XQzzA/1vz12kl9lzQu9dIA+5dy/Otu5C8gCrCSoi4Pz2/CWL7/nesySH3pe7WAk94knwGfaOsGcStiQeLWLnWlroUV6HmAgc4pUi6/Dlz8Uzt+xSD6oSUmFLVJGH6S8fPKr6av/85ZYbKIwFEGdNwkYkVEdMksJ+j70JrKUOH57LdvYM0nOyHv8mFgA0QUUe4n9w8jQ1ciiKZrKejzN3EVXknopHy4ul5dppm+9b2IsjaaxMp80GfFBCwWwJahLCJQ/7IlC8PTOdTnEolIQwaSYeH+8YKx/8Fh9/1o4oJ2s+VFtPL/FcbQll4pHzORZvxMNJQtOu4xCv1ypte05JGJfcL5nz34pK6H//7QYWwLzUZ/jbx94yeRYZ/HxJvJ9kjo5EFRFUJPToa0eOqbAibW2383o/sXK58tR5P38mH7T6jGjtpuNd7quIV1KaWUS+X/HPlHgj6W1pZLjyCBLB8pM8LwlLEwbTbUP9vfTm775uMez2D33HVFLZ+pxFQwc76fm7qLu1nl796b9Te32ZqWXCkvW048Py0L+IFm99B10+8CxdHR2/rjVv+7hJUBFPlFMv/cLCq0VEl633fZ1iMvJo6ba7OJxoD4cE2fd6mOp8TAvgjZiYGNNue/t4UdF0coKN6RhHOCZlLlFX6uvuprs/8zD1dnXS33/+PTp9cDeN6j4zueu30NJ8LpVtZTvf9QGToFKw/1V69r++T92cl0wzA+cx+/ijT5KIN9ffdT+d2PMPamDBxdoiYuPp3ezpIiahRr946JMcijRe2E7PXUkrt1xv01vGekxtv62tTYkq/ix8Glh07OCwQFuWEJZMD9/4HVunnDr2g72P0vn6s1TeWkoP/+tLdG3mdbQxfRsZ/A0UHRxL71z5brpzxd10pqZAea+crT3FQrdRgHHqArpGaWlppj1ZHwwEQAAEQAAEQGBhEjC7jczi+gf4WzcxH/YA0EKBbF0+OCjYdNhRO1OjebYhXgZ6QUWWd7GljX4/9i2+lBD+t3TzH3UTLV/Cdx7mB9EX+EHZWiiQ6zw2Jnho44iXxWoOwxGTMr+/sRJU5PgzhUWmb+Al/4bkJrFn55rNngMXeB2aiFHMuWM0YUgeULU1J4eE2Btqyscln4xmL43lmtH2tXfx5tlTVUNv2KnEI/zvZ68PMfHmkLATvaAix2U9P+f7qIWjiAAleWYcmYQMSTtHr7sXm79ptx7ryTPnqXqstPTn8leawmvEi+MLazmcjDvIfH/IFZO0e2A9hngUiXeFLUFF2oo48DO+jiYS3JiWbD2EaV8EEK2deHGUsUeHmHwG9d4kl8ZCdpI5JMyRiafPozw3ydOiN/lcH+Z8K2Li5SQi1kzZndkZygNJxpfwJ2tBRY6LB9BPOUxPLIa9e96Zk6m259I/x5/9iYWgInOXPCg1F40hY8HhsRQSGT9uSdFpyyg9f6c6Xn3hMMk41mFCfZ0tdPDpR0hEoUUsUuW//ZPjxrE+4Op8rMeRcFLNenpcL8M+HeNEJ6aS/1g1PPEq6WhuoMc+dheJOKIXVGS+l44foud+9UNt6uo9LiWdbnzPR9T2qTdfpz8+/lULQUVOSO6Tv/7su6qNeLXkrt+qtq3/yczLJ+8xr1ARZmwJKtKn/NJZevE3P7Hu7nC/p9fMOWQGf7frJ1HZVk5Pn3yKPvPcR+mnB35Ap2pO8O+dERbyvWhN8jr63Pav0A9v/y+6c+XdLLiYhTb9GPa2JSfPtduuVaflM3Tp8iV7TXEcBEAABEAABEBgnhNw/HQ3Q4vv4cR5WknlGP4jsrauetyVfH39KJJLL2u20MJ/5Nt97QFRY6C97+OHfAntkG/7JXTmr/ztvzN2vKGRznC4hLN2HXshaPZPzsdizyRXi+atIUlpbSU9lb4t/UYxTbYlTGaQH8zF40F/XM51sCeK2ETig2rk4j8iiGiWwWKTKzkvbuQcHhIeJPZMYbHdxLpSLlxysvwH528Rz4alHFYkXjszZcL2u8cK6Cc7tqhwmgc55Osh9tr4IgsqIqyImPHY8VPjRInJzkc+oyLeiJeTIwGsxSpxrHZ/xRNLkhRr1jFgzPMgnlHivWQvTEq8lyRXiS17raKaNrOnj5j8bGhilq22Uzn2rhyjqCWf3edLyuwOJT8LkrQ2jT9j62Nj6ZnLRXbbetoJCfcRAcWWNXGi2uTlW9SpoLBoFRqkb7dsx7tNu6de/qVp23pDhJWygtdp8ebbKTZjJfmwd6K1+KL1mcp8tDG0d+2hfoB/14zoPEG0886+T8c4KWOhP3JNyXXy+8ceou52swDtaC7i5SI5VHz4/8t2FmP+/MNv2KymJ2NUFl5gz5IB9hD1p/g02wJfcpbRY0bad7RO7++oXl3i7JAQg1zCptV11tBje75p85wzB6tYSLG2EfakOll1TL3CAsJoc8a1tDXjOg4zSqHIoCi6I+9ddPvyu9jD5Qy9UbybTlUbxRf9OKtXrTZ52sTGxNLy5ctVVcKamhp69rlnSb8+fT9sgwAIgAAIgAAIzH8C5ifLWVxrfUOtEkwkBCg2Jp4G+eGqmasdaBYQEEgZXA1B/mCUP3i9x/J5aOcXwrt4pOgfOPVrlodRyd8gOTokX4ez9q/yKmebqnZSzUazU03N2ua4d/05fR/rhpq3gnZc9kVUsa44JHk2xGzleNH6TvVdKthoJl4HUjlGPGYmY5JkV7NAXsfWscpN/LE1mbapD03KCg91KKpIYlMJSZqKlXFVJvF0+szqFSpvjOS8kRw9YpJHRXJ/OGvycyj5YWKCAiiafzZ9vc0Obtr6JL+PPbO+7/1j99f6uH5fRC971Z9OOxAG9bl24seqXtmbl6vHJZxHxDGxpt5+U8Uu2bd17zv451VMciI5EotUIw/6p6Ohwu5sejvM4mxg2Phv+MPi01XfoYFerviTpV7GwbRPDO+NwdKOiLdKOLeVCj+2bCrzsR5P+z/FXl4P6/b29qdjnCSdqLL3r39wKvGrNh/Jf5K53Ji0++BLf6XBMS9Q7bz+XcTd3s4OCouOpfBoY/Jy/XnZ1os593zma/T09x+mVv7/ejpML1558722Z/1DXMmr4YK901M+3sGVgP516SX1So/MpG0cHrQpfSsF+4XQioTV6tXR105PvPEdEk8XzfLX5NPq1avV7hCHMZ84eYIOHjpElZyTR9jCQAAEQAAEQAAEFi4Bt4gq8gdJXX0NJSWmKOEkJTmNEhKSqJ+T2UmYj1ZyWdqEc3lI8WqZqFLQfLuF7WPeGvbWpZ2Xb/UlF4V1KIStfpKMdTIWO/ZQKp4NnWNeBLb6S5iMXF/m4UhUEc8UvWmikfaundPaSd6YmTLxAtI8CBI5f8mTO7aqijMSjiKCw0V+VXFyVkcmCX41k3w1zloq5xOYDXuFPYgkv8oO9jjSBBXxnJBy1c6YJI2VPCW38UvurSOTJMHycGzr0UIvlsgY2v0df9/NXiuORBXts29rPuKlI9cTsU7KRs+ESRJjzSRvinggOWPanCb7c+jM2DPRprfDvqfCyLDRm0yuK94levPisE4tJMjXP4i2vu8b+tMOt8Ni0+yKKq7Ox9YFuzl3iXiZBLBAJuK+q+LKdIyj91QpeOMVW9O1eyx/x82mc1kr8ikxM8e0b2tDyiKL9ffa/t0mIUc3vfdj5MfiqYg1//Hb56mw4AidP7qfrpw6Rs02vEptXcfWMX04r6ckdZW8K/L6c8Hv6YYlt9C7Vr2XJLFtWGA4hfqbk9DKeq4UXSFJuBvE/y8mJyXRNRuuoQ3rN9Dp06fpxZdf4uqE9r94sMUDx0AABEAABEAABOYPgZl7ap2AUWNTPUlulVSOB5fQHsmvEhJsfthsYddj8WiJ5m/VxAbZLXohmSRjdWTtOpFD8jU4I6o06NyvHY2tnYsZK4ErD7G2Hpa1dvIu85UHb/FokAdsKdVrbdaHtNKW1mEeWk8v9ZhuPcr07Mv8Hj5ynKsorVCJUWVUeViWl5TmFRNR5feXClXCVnXA6p9E3cO1eBY5a7P5UC3zl2SymjfAH3hf4+toviKO/ZSFJhFWxOSb2Fa+xy0cdqMXSSSsRWsjHi22vrG1/hJXu/74+66dMTkx2Jxim+6zb6uBhBGJoKKVcLbVZirH9PddctOIt4qzNmr9Q+BsRze0G2Xx2xULjojjHCnequtQf8+4nCyOxhzo7bR72tX52BpQxBAx+cwG8u9PV/OqTMc4SVlL1Vwkcawkh3XW/PwDKHvlWlNzKcPsrLU21Nls2tZYT796+FN035e+TZK0VvKvSDlmeYlVXrlAr/7p13ThrQM2+zs6GKxLvq1xc9R+Ns75+/jTupSNtDVzB+XGLeffk8bflPJ7bHDE8m+Og4cOmqYkn5ud1++kt9/2dlqzZg0lJibS499/fEqhZKbBsQECIAACIAACIDDnCLhNVBFSHZ3tdPHyOf7mJ5gCJayAv/Hs5W/QurjywfDIsPqDV0tQO8T5GxaS+fE37Y7MTxeCoX3z76i9nLMOs3GmvXiL+I09IDlqr81niP8YHZkjD47yQCyldyWM55r4OE5uGsmleiNNuVxS+PjXuFyyJGS1lYi0b9jsefPVw29ZiA2OWM3WOfnD/1OrVpgEFbnuv6/K46o4R2yKXtq8JFfPw9esM4klUiHoOc4bYiuPyXc2b6B8rtYzmyYlxR2ZFp40pMvX4qj9ZM+JN4xm+6vr6LcXkKBS4yHvQwPm6ledTdX0+s8/oz/tEdvtHeaKP1IW11VRZarjiHARHGoMyys6fWxSbCLjElUuFekk5ZPPH33D6f7S3p6VnCugRz94Gy1du5lWbd2pqg1JyJBY6uLl9NFv/Sf9+cffordefcHeEDaPG1iAFROvoC5d+KV142C/YBY4Vlgfdnr/StMl6uQQH3smwsmS2FwWUq5TZZalhLNmbb2tdKB0H5dd3kPNPfY9tUR02b1nN0lJ7eXLlqtcK8tyl9G588bE1Np4eAcBEAABEAABEFgYBNwqqghiibMWEUVe1qYls5XjQ2N5CazbzNd9SSjqyMJ15xvtJO101N+Zc1LJRuYhHihSQlYq2dgzbb5N3Mfsb2CvtWcdr2SPFHlJwl/JeSFVj+5dkk1rxioffZAr/OytqlHJdfUzr+Fvu7UQIFl//SQ9gfRjzcT2vVwiO5/LUoud47CmFbyuXC5HLOv5b67kZM8kVEiSz4qJmOSobdwM5S2xNzc5HhFg/2dDhKSwMe+aRhbNZsJqxiorqblMooz3TMzFE8fs72pVFX18A4IowBDhiVOk0tJSWrd2nZpbSkoKh6Pa9tyYaPJTHSd5zEtFrlNdUjjR5SzOh+oSuV88doDeePZPFuensiNVh2RMeUl4VN6mHbTz7g9Q2pI8NextH/zUpEQVHxbnExMSVd/KqioO57X/JUmsIYE+te0LLk9fK6lsPUBMSBwnp91OW/gVE2IUiaSNlFM+U1tA+4v3qPfJlFc+ceKEElVknOho4+9a2YaBAAiAAAiAAAgsLAJuF1Uc4Y4ei/+WNh1d5m8WHfWZL+cmygcRyy7rYhLq4KynymTZiKiilaWV+egfJvVjiaAg+SLEGrjPXDYJSZHy0ZJb5ZGN62ldXIzyXEkLDVElcvVrk8o314wdiOJQKU8SVSSXyn1LjfkVJJHwf7BHzsPsdSNVmt6RnclrbKWj9Q365Zi2M8cEFTkgpZXtmYR5uUNUcfSzES05MlhYEbMub21vHVLmWTPJUTSR6X8O5L5Ply1dupTe/777LYZrbm6mH/34hxbHnNm5ytVOTCY8+HM9m9bVXEWRyUsoICRChQJZzGc2J2LnWkXFRaYz6enpdOz45LxEtM5THSdZl6S2uti+0KldT/8+rAvP8mdvz5ky8Sw5e2iv8ob52lMvUFBIKIWER1IAX7NfVybZ0fWTk5NNCeeLdewd9ZmOcwG+gbQhdZMSUxazd4oW3iNjiyfKmyV76c3SvSQeKq6Y/HxqZpilXFna9fAOAiAAAiAAAiDgOQQ8VlSRHCsR4VGKVG9fD3V3d3kOtVmYSW5EOIlwYuvbdvEi0Kr+lDtwo57qNMV7Q7PruVTyHy9f0XYt3iURqmaVMzgf7Rqz8S7u3VK6V0QVsSDO+2NtkkflndnGo2/LSHOpLLP1mNOxLyLXl7mMsnhtiOj2g5OnVa6TH586wwlrr1W5Rr7A5ZUf2HfApgimr1Q0oH84t5rcDakpKn+O1eEZ3702KYF+f9H2t/pbE+NN13f2Z0Of48YZkUjCf6S6UkZoKK1k8UrCxCZKamyalIMN+TY/RJd3Qpr2uej91Nc59pDInwERNsR7ZDatqfyCElW8+ecma/3NVPzWP2bz8hNeq6GhgTr5HobyPUxPS5+wvb0GUx1H81QZkeTt5SX2LmPzeGN1hel4AlfLm2nr7eqgpppK5a3S3tTgtKAi89IzLi4udjjV6vYK+vJLn3bYxtHJ1j7jZz0pLJm+edPj5Md5UzST0sqnak6osslSPtlWDiitrTPvMp5mXoschyVq7fAOAiAAAiAAAiAw/wi47a8AcSm2Z75crjQ7a4lyO5Y2jY22v1G3138+HJcHYin1a8vuZE8DzZ4vLtM2p/1dQj+0pKQ3paeQ/mFbu1iwrw/dmpmmdqVK0Asl5dopj36XB2HxtHBkyzhcRrPSjvEx+lJBSDxaxHbwg/6yKMehDnK9a+LNbufa2NP5Lp8bEVQkREZ8E54oOE1t/cakx5LM+Htcrlm8caQk8EPr85nB+J/Dyk6zmGYvX0o4h728Z4njSiPTuS79WFKtaVOCWTzRzomXyS3pqWp3kL9d/1dZpXbK4bt4nshnV+z6lCSTp4ujTr8+Z/QqEK+YDy/PnfCzJHNOH8sp4Wjc6TrX01ZvGio+x7nqRKYO07BxfvfTNNhn/Bzl3fA+8g8OdziqX5CBYjNXOWwz3SePnziuhkziSi6RnEvJVZvKOJqnSl1FCYmwMhmT8sc9nJdMLG/jdkrJyXXYXSr6LMnfaLNNGHuFBoc6vkepHPqTkm28RtmlszbHsXdw1SrjvRUh63LhZXvN1PGhkSGq76pz+TU4VpnKj3OlaIJKQ1c9/d/pP9Hnnv84PXngCTpXZxSaHU4EJ0EABEAABEAABEDASQJu81RJiEuiQM7H0NraTP1cBUhirAO4moEkrZWKP36+xqojvexe3N4xu9+yOsluxpvdkZXBoT2j9DwnCZXqOpH8oHwP58nYyQ9+YlIS+C07IRzTMTm5pggrEi4SxWEVT2zbTE+w10Nxe4d6YJcwkc+tWUnywCi2u7J6xkNgRASwVd6Xn22VebNwYSvnhnhs6KvN3JOTRfnshfJaRZUKcZFQHk1Akmo2dy/OIs3r4UpbO+mrLRmvZPz3v85coJ9dt1U9iH9/6yaVl0XGrJfcMvygLqWBk1nA2cSJcEWYEnvPv3YbO9v5dwsLBklWHgu2mpbx/T/Cwo7e3stCx6oYo4fXc5xg9kSDZbJFEYGeKSzi0KDFKrTrw8uX0q/OXdQPweWkW1X+GElS/G7+vEmC2tf53sp6JIHySk7o+1m+71LpSbjaEtssBpyBna+sX0M/OXWWjtTWqwTMIpJ9ZvUK5TUil5N7MFEFLW1anZyv6VVu/28syMhn+tucfFfW28Gff83ONLWYhBc5dppDqg7W1vFnJEEJZU/u2Ea/Zo6F/FmRcCIRt+LY0yyb89Pcwvd9DSfz/TknPC7nezYbVld4nFbd8hE1j3W3P8CiRii1VF6mwV7z9btaammmwnIGejro7Cv/Q+vu/DQFhcXQrQ8+Rade+iXV8rw0r5kAQySFx6dT+pqdlLb6Oqq+eIQaS8/MBh51jUOHD9H1111vZMT5VV57/TWXru3qOBJCoyWArS52LDTYm9hrz/yG7vzEF9UXEB975Kf08lNP0ukDu2mgr1d1CYuKpbjUDFpz7Q2Uv+MmunDsIJdIPjpuuDXbb6K3feABOrnvn3T0leeV18wAe4iK+QcG0TU3vp1uvu/j5MU//73dnfTP3/983Bj2DohglZlh/CLgyNEjLpevtje+veMjo8N0tOIQ50rZTZcaLvD/WUbh1F57V46P6pJhe+mSx7syFvqAAAiAAAiAAAjMXQJuE1UEmYFjs+Vlz9o72qiCS0xO1UXX3viefPyf5ZWUz4lS5eFeXvLgp5WulXmL98EPC9h9eYYX8efCYv6GPVQlPJWkrD/ZvkWJDyJQyEO3ZhIKYy8kQ2szHe957D3y2BYtk8n4ESXJ6jM37xp34v7X9o7LsSFhMiJSyUs4Srlgb34YDmfxSvNhEe7fPV4wbjztgISByHmpsiPigogQ8hJPid6hYRKPDr0586C/jb1e5DWR7ePkuXpRRRLrvocT7IqJ8PWUnRAZuaeruK0krhXhToSWQyxOaNbKn63fcCLbT7FIIQmKRTh7gKsGyXEpsy3eGfIz+SMWNUR4kspJs2kShib37MG1q2kk/6oSgMTzRrNLrW30x0u2Q9W0NtbvT/OYwkPEGeGoJSnW2r3rH69Rt1VyzZ+ePsdCHZGEI4kXynfHPpdyj2U+ws5d1lZbQsVHX6KcTW8n8QJZ+/Z/HzeVF75zL/W0N447Pl0Hio68xGJOGC3f+V7yDwqljfc8qIYWD5ZFHCohiWzdaZIPo7CwkCSXzfp1610WVVwdJ5m9MTVzVVR584W/0Optuyhj+WoyRETRvZ//pnqJF4t4pshLb9VFtvO2iMeML4vJG2+6Q72kT0dLkxJrRPwRkVBssL+Pnvr2l1QYkDrgxD+SEFj6S26Ww4cPO9FjeppUtpXTLw79ZHoGszOKvvpTSEiInVY4DAIgAAIgAAIgMN8JuO2vfsmTMjho/iZYD3qAH0rq6muorLx41r7V0l/fE7Zb+vvpK4eOqtwNMh+9oCLfhn92/yEq4gfnmTZ5kPzakWPqIVUrySxJaTVBRbw7pGqOlOl1RjCY6fk6O/4BFhHeqm80VfSRR4ZoFgzEy0W2h/lp+RX2Xvj0Gwdt5h3RX0cEiY/v3U/7q2tN3i5S9lcvqIg4I94TP2IhbCZMvJgeHMujIjk/Hucwn2F+iLFlIoh9n89LOJDY59asMuXo0dqLqCehQiKkiIlAEMfJikVQkRwkT/A6xDPJHXaWvUYefeuEEhZFBNMEFQnh2cNCk/zcCO/JmIiUn+J7/beiUhLPJM1rydEYwu8xFtREVNMnKRaxThNURKy7yCKPiFQSLjabdvzZ/6T9//MfJF4rnU1VNDxk+/ftTM3pKldVOff6H+jVn/4/aq64yF4xxs+jX2CIhaDS1VxDF/f9hS7seXqmpmJ33Nd2G71T4uLiaHHOYrvtJjrhyjjJY6E0MrY9sWOi6wrjn335Y/T8r39IfT3msD0RQjRBRSr5FJ0+Tn//r+/RUTtlkEvPn6KyC6ct/r+VkCARakQQETFlz19/T4/cf6saa6J5aee9+f+KzZs2q12plNPW3qadmhfvvZzzaHDsd01GeoYpZHleLA6LAAEQAAEQAAEQcJrAosTMvJl2dnA4XrlBDwAAQABJREFUmQD+Js3fz598OKGhiCwitkiZ5YVoUmlHPEHE5Nv4Zy4XqW15SJMyv/KgJ4LKZB8Y1SDT8I/8cZ0YHKQSdHKUDZV2dFINP2DPZU8ieShPYy8DCW8SYUIECalgVNvTYxIdJoNOGCVwWJtUCzLwN78SOtPEpX0lb4c+/GgyY7qzrR+7tKdyVYsU9lLqHR6hy21tKuRntuf0Lg7X+hCHKol96cARUy6bJJ6X/NzIPRORcaYqYTmzXskvZGQVokKA5L7X8c+Hu35enZnzbLbx4t/xoTGcmykunSsCeVEve8n0tDWo12zOw/paH/nwR2jlipVUWlZKP/lP1z0bpmsc6/k5u+/DIbNRCUkUnZhCBk7y3tXeQh3NjdRcV039OsHF0XiBIQaKT82kUBZUAoMN3L+B+9dQW2Mdi3KTEyrlOps3b6Z33/1uJTw8+p1HqcNGbipH85kL5z78oQ/TqpXGnDGFVwrp5MmTKglyL4dglZeXz4UlYI4gAAIgAAIgAAJTJOAzxf5T7t7P34DJC2afgHiASP4Gd5uIJyIO6EvKuntOU72+eDeIOCSv6TBhJIKMvOaDSU4fCSWSlyeaJ30eezjcS0KP5AUbT2CUE7G215Wq1/iz7jvywosv0PJly1XejyVLlnJIkGv5TaZrHFdJiOjRUFmmXq6O0cdV9souTo83nXip3HTDTWoqe/bumZeCiixO7ntOdg7ngwuiJYuXqJccb2lpoW89+i3ZhIEACIAACIAACMxzAm4XVeY5XywPBEAABEDAgwk0NTXRH//0R4qNiSV/qxxIk5n2dI0zmWt6ctvw8AiSxLQiNO97Y58nT3VKc5OcOl//5tdpw/oNlJGRQQZDKIWyd1/PPBHWpwQHnUEABEAABEBggRCAqLJAbjSWCQIgAAIgYJtAQYH9ZNS2e9g+Ol3j2B59bh1taWmmV159ZW5N2sXZSl6Vg4cOqpeLQ6AbCIAACIAACIDAHCbgtkS1c5gZpg4CIAACIAACIAACIAACIAACIAACIAACBFEFHwIQAAEQAAEQAAEQAAEQAAEQAAEQAAEQcIGA26v/uDDnedtFyhRnhYWq9TVyNZNGrh4CAwEQMJa7judEkGKSVLiXqzTBQAAEQAAEQAAEQAAEQAAEQMDdBCCquPsO4PogAAIgAAIgAAIgAAIgAAIgAAIgAAJzkgDCf+bkbcOkQQAEQAAEQAAEQAAEQAAEQAAEQAAE3E0Aooq77wCuDwIgAAIgAAIgAAIgAAIgAAIgAAIgMCcJQFSZk7cNkwYBEAABEAABEAABEAABEAABEAABEHA3AYgq7r4DuD4IgAAIgAAIgAAIgAAIgAAIgAAIgMCcJOAzJ2c9zyZ9y64dakXHjp+aZyvDckBg/hBYnLtyWhZz5dLZaRnHUwcBJ0+9M5gXCIAACIAACIAACIDATBCAp8pMUMWYIAACIAACIAACIAACIAACIAACIAAC854ARJV5f4uxQBAAARAAARAAARAAARAAARAAARAAgZkgAFFlJqhiTBAAARAAARAAARAAARAAARAAARAAgXlPAKLKvL/FWCAIgAAIgAAIgAAIgAAIgAAIgAAIgMBMEICoMhNUMSYIgAAIgAAIgAAIgAAIgAAIgAAIgMC8JwBRZd7fYiwQBEAABEAABEAABEAABEAABEAABEBgJgigpPJMUMWYIAACC5aAl5cXRUZGqPW3t3fQ8PDwgmUhC4+ICCdvb2/q7e3jV++CZoHFgwAIgAAIgAAIgAAIzD8C8FSZf/cUKwIBEHAjgdylS+iGXdfT5k0baXR01I0z8YxLp6amKB7X7dhGixYt8oxJYRYgAAIgAAIgAAIgAAIgME0EPMpTxd/Pj/ivbhoYGJim5WEYEJg7BH798Hby9rL90PmJ77xJQ8Nz8wF95R2fo4iUXJs34tyL/0mtFRdsnpuLBwMCAmjZsqVq6hcuXoSowiQuXy6knJxsCg0NpezsTCoqKpmLtxZzBgEQAAEQAAEQAAEQAAGbBKYsqiQnJdHinBzyE0GEraioiErKymxezNZBQ0gILcvNpZjoaPVHt7Tp6uqixuZm/mP8MnV0dtrqhmMgMO8IxEQE2hVV5vIX/H7BYRQQFm3zfnn5GH9v2Dw5Bw+uXJFHPj4+1N3dQ6Wl5XNwBdM/5YGBQbpypYiWL8ulFXnLqby8koaGhqb/QhgRBEAABEAABEAABEAABNxAwCVRRVy401JTlRgSHhZmMe3AwECLfUc78s3lzh07yLqPwWAgeSUnJtLe/fupra3N0TA4BwLzgsBDPz2qPLW0xdz3bzm0MidK252z75df/S35BASb5h+3dCOlb3y7aX++bISEBFNmZrpaTiGLCFevXp0vS5vyOgoLi/j/i6Xk7+9PSxbn0PkLF6c8JgYAARAAARAAARAAARAAAU8gMGlRJTszS/1xHMIeJlMx8VC54frr1R/ZMk55RQVVVlUpd/mU5GTKysxU53Zedx3t3rOH2js6pnI59AUBjydwubzdYo6d3YMW+3N1p7u5ymLqhrh0i/35spOVlalyhoiYUlFROV+WNS3rkJDO2rp6SkpMIOF04eIliE7TQhaDgAAIgAAIgAAIgAAIuJvApBPV5q9ZTZqgMsgu3OcvXOA/kM3fOjr73eySxUtMgkpJaSkdPnqUqmtq+A/vOnrr+HE1rsDx8/Wl3KXGHAXuhoXrgwAIgIAtAlLxJyszQ52qY/EAeaHGUyovr1AHg4ICKSkpcXwDHAEBEAABEAABEAABEACBOUhg0qKKrLG/f4BOnz1LL7z0Ep09f54GBif3jbo8gKSnpSpc/f39dKKgYBy6uvp607GUlBTyZXEFBgIgAAKeSEBEAgltEauotPTM8cT5umNONTW1NDIyoi6tCVDumAeuCQIgAAIgAAIgAAIgAALTSWDS4T8Fp09TWXm56Y9jVyYjyW21xLYinmh/aGtjieiyYd06bZd8vL0pLSWViktRNcIExU0bYSF+tHJxFKXGh/DLQKHBvtTQ2keV9d30xokaau2YuHLT6iXRlJ0SRhlJBgo3+FNlXReV1XTRqcJmamrrc7iyHesSKdDfhzo4NObwmXry9fGiZZkRlJcVSUszIqi9a4BKqjvplcOV1D9gfIBzOCCfXJEdSeuXx1JMZCBFhfpTT/8wtXUOUAXP663zjVTf3DvREOr8VNbl1AUm2Sg4wIdkThnJoZSRaCAvrixUVtNJJVWddPRcA42MOutXNskLz3Bzf0MkRWetIUNsOr9Saaivm7oayqmjroSaS07x1Z1bV2R6HkWmLqewpMU01N9N7VWXuP9p6m2rV9WKAkKNyXXrLhyccMyE+DjTqps5ybYrtjIygmICjcLM3pp6tYowP1+6nkNm0g3BZGBhuYXDaIo7uuiNugYaGBMobF0rwxBC2WEGSuMwy/jAAGrs66cKTp57trWN6nod/4xp43lz7qyNsTGUHWqgaJ5XCCfg7WTvxPaBISriBOKnW1qpe2hYaz7hu/yeb+X8WJKUPJbHldxcyDszITY0AAEQAAEQAAEQAAEQ8HACkxZVikumLmwkcgJazfQeKdoxCfcJ4wS4o6Oj/CBodKZJ5AcLiCoaIfe8X5ufQJ+4azmFBFl6DS3PMs7nfW9bTP84UEG/ee6SzQnKQ/6n7l1Bm1fFW5wXUUOsl8WMn/3veTp4qs7ivH7n/tuWUFRYgBJOjl9opG9+Yr0SRfRttq9NpF3XJNO3//sk1bfYF0RE0PnyB1bTchZk7NmH78il371YSM/uLbXXhKZjXXYHd/FEHjP9/H2rKDo8wGKEtbkxav9iaRs98YfT1Nzeb3He03dicvh+3/5p8tUlvpU5x+VuUlNvKj5J5174KQstXXaXIg/zS274IKVtuNWiTcLybTQ82EfH//h1SuNEunFLrlHn6y8emvDhX0QCMQn7kco/rtiupATKjzZ+FvfVNtCGmCj6RO5i8h37HaiNuYmvdVNyIn3+6AntkOndj9u+l8sW70yy/BlbGm5MKD7Ev1OfLi6lPSzaOLLFYaHq2rEsyNgyGX+Uc8c8UnCWijvts7bu28JCjIgqUiEpKjKSmltarJtgHwRAAARAAARAAARAAATmFIFJiyrTsbrAAPMf6vLNpd4kgW3esmXqkIQWrV65Um3r++jbY3t2CHzx/atJRBUx+XZZvEHEu6Srd1B5rGQmhVJkmD/lsreILQtiQeXHX9xC8dFB6nQre4JcKG6llo5+5bWSy94m0ubB+1dTfFQg/W23fRFDBmCnC5I5iSBTVNmhPDAMwX60ir1oZBzxpPnoO3LpURZWbJl4bXyJr6UJKiK+nLzURO2dgxQc5EOJMcG0JC2cxDPH38/b1hDq2HSvy+6FJnHizusy6ANvXzLmCUB0vriFymq72OPLS7FenBamvHv+80tb6XNPHKLGCbyDJnHpGW2auu4Wyr35o+oa8hlsr75MnbXFJCWbI1KXkXiWxGSvpc0f/SEd+c0XabDXdjn2FXd8lkRAERMRpa3iPHU311BofKYaZ+29D1N/p/MP+wH8+0yqlYmJaDAdtoxFkAeWGe/hMHsU1fb2Kq+QBM5HEuHvR4E+4z+Tcvyh1SsokduItXEp48vtHdTM4ZrxQQGUGx5OIb4+9MHF2RQbEEh/LimzOVUZ5zN5uSReMmJF7Bkjnik97JUi5+J5fBFdRMCxFnxsDqg7qOcTExsNUUXHBpsgAAIgAAIgAAIgAAJzk4BbRBV5CNFs0Cofy3oO+/HmcJ96DgsqvHLFJKro+2h98T47BERM0QQVCe/54R9P0zkWRPQmIsXt29NVGI3+uLZ927XpJkHlXFELffs3BdQ3YA4dyGcPioc+uEYJGHffmE2vH61WIT5af+v3DBZxkmKD6Xu/O0WHTpu/dY+PCqLvfuoa5aGxblmsalPTON5zQMKFNA+ZAwV19ASviZ/TLUxEiG289pGRUYvj+p3pXpd+bFe2U+JC6P3szSPeGOKF8qOnz7CoYnmvxIvn3+/JIwOHbn34zlx67H8KXLnUrPbx8Q+i7B3vUdccHRmis8/9hBouHzHNwduHBbV3fpFictYpcSV90x10Zc8fTOe1jbDEHJOg0t/RTCee+Rb1tNRopyk6czWtvvsrLLAYk86aTjjYECFYs14nQ2u09vbe35uTQcP8gfxLcRntrqmjEd2HM51LN9+WljKu671ZGSZBRTxR/lRSSoO6z64IIg8sX0pLWBC5JSWRDjc0qpAg64F2slegJqg8daWEvVrGe46JOHN9Yjz1Dpt/hq3HsbXfy+KQZnpu2jG8gwAIgAAIgAAIgAAIgMBcI+BSotqpLlLvdaIXVdLT0ig+Lo6GOfb+2IkTKtfKCLuri0FUmSp11/oHsJfGB29fqjpLDo6Hnjw6TlCRk6N87rl9ZfSd345/QBdvjtt3pKsxJM+JtaAiJwrYS+SP/7ii2sg137EzU207+ufF/RUWgoq0FY+T53keYqwrqFwrasfqn0zOM6LZPw5WjBNU5NwwP5DuO15Db7LoYstmal22ruXsMRFJvFngknv1+FMF4wQVGWf3W9X04v5yNeSmlXEkoUKebmnr32YK+Sk79KyFoCJzHxkepNN/+77JOyV13c3Kg8V6XZlb32k6dO6ln1oIKnKiufQ0lR9+ztTGmQ3/AH9Ts4HBiXMKmRo72EgJDqYfnL1Ir1ZzcledoCJdyjm86MkLly1653D+lM1xxhCkguZWeupKsYWgIo3Fc+XJ85epb3iEPb0WqTAhi0HGdtI4f4uYhAq9UWsWLMdOqzfJpfJiRbVNUUbfznp7gOegmb9OXNeO4R0EQAAEQAAEQAAEQAAE5hqBWRdV5Bt0rUqGJC6UvClikrh27Zo1avvcuXPU3WP0LhjkHAVi4r2CCkAKxaz+c21+osphIhfdww/jdRMkbe3pGxo3P/FC0fKw7D9Za+Ghom8sAsbgkPHzsJ2vO5G9fKDcZhPJF6JZJOdfsWUiiGiWzklcXbGZWpcrc5E+kvg3f6kxuarkpblS0WF3qGf3lJqEpPylxodxu4094ERCnjFc5+rVUao+vcfmjEZHhqnmzF51zts3gGIXb7BoJ94usYvXq2M9rbXUWn7B4ry2U3N2H29auS1pJ228a7/P5JReJLbR1OlDp1va6GJbu9Ptb01NNrV9hr1b7Fk7ewYeZA8VsaXhHMLD3ljWFsi/a8UktEfCjabT9HwCxqolTef4GAsEQAAEQAAEQAAEQAAEZpuA+clylq4sooq8xPSVH9asXq3EFsmxcpnDfjTTt5FvV2GzSyA5zvittVx134laly4ey1V1NDt9xX5llK7eISrl6jRL08MpgqvwSGWfoWGjyKL1194lqa29SkOSp0WzKM7zYsukWpFmt+/IoMLydpUnRjvmzPtMrMuZ69prI9WYNBNxaos+IfDYj472syftOnsGVc4YvdeO1t/T3gPCjMKPhOr0d9r/DLWUnaUMDv0RCwyPtVhGoBrDCKKtQgQV28JJX3sj9Xe0UECYUaCyGMTGjoS+aXaVPYSmw/bZ8RCxN3ZSsDFXUT8L1akcHiQvMVu/MrXZyu/TVPaIsU40W93Ty4KLMbHt3ZnpyutFvFymw0QU00z/WdSO4R0EQAAEQAAEQAAEQAAE5hqBWRdVxDNFvq0UzxSpACHVfaKjoygrI0OJLG8dO2Yhtmill0VcGbDKvzLXYM/F+SZy3hLNGhxU0tHa2HqPjTCLKu2coNaRSSljMXkYlMo19jxjHFWt0bxdZBx7SWaPnK1XZaAloW0CJ8+VJLo1TT10sYRFvXJ+lbVTVYNZeJGxrG0m1mV9jcnsS3JdzW7YmEzycsaEgSebX1AoefsaxbHBbsfeG4PdZi8lo4hiXllAmFlkGdC1M7cwbw30tDstqgxwIljNtN9X2r6r7039ZmFwojGk9HHMWChNAHuZfDrPGK43UT85L2KMtajyr6oaujYhTiWilWpEq6LWqzCfQk56W9LZTZf4vcPF38V6PlIpCQYCIAACIAACIAACIAACc53ArIsqAqyPHxi0P64lv8qGtesUx0uXL1Nbu/mhSb7JFOFFrH8SDxmqA/6ZFgKJ0cYHdcnR0cJJal2xmAhzCE5bl+NvvDVRRa4jniD2RBV7HizOzm9k5Cp985fH6YF3rzCFzCSxKCEvTYyobujhPC+FdORsg81hZ2JdNi/k5MHEGKO3gjSvqOtSJaqd6SoeQp5smpeKzHFgAlFFL5bo+0nfgNAoeVM22GM/NEoaDPY6Pm8cxfhvv04c8ONksNNhkxFVRFARYUVMEseKp4mzJrlRrK2hr58eP32ePpabQ/GBgWrsTEMIyUtMBO7LHZ30e05iO5lrSV8/P7PnGEQVIQIDARAAARAAARAAARCY6wTcIqqIQBIWakwUKmE/obzd1d1N5y5Y5jjw8zWW9BTIIsTAZp+AVqFHkp/6+Xqxt9DIpCfRr+sjIT2OTK6hmb6fdmw638XbRYSVFPbU2LA8VpVXXjZW2lmuI6FPD30on37x1wv0r0OV4y6tn58nrKuPkwBr9vuXCunExSZtd06/jwyaf/a9fMy/E2wtysvXLGqMWCWNHeo3ex5JfhVH5uNn9q5y1E7O9ekq/uiTcE/Uz9H5AV3VHkft5Fwfh/xoVs+CyCMFZ7Vdl9+vsGjy4FsFJAlw10RF8nsoZXHZaB/+PSBidy6HBz2ybjU9cvKMSpzr7IUCA80C63RVSnL22mgHAiAAAiAAAiAAAiAAAjNBwG2iiraY1JQUtXnsuLHaj3Zc3kVs0QyeKhqJ2X2XkJicVGN+BQl3mSgkxtbsmlr7TIcjOceJeFHYM8mlolmjrp92bCbeqzi/irz+zslbJT+GCCtS1nn1YqNnw/1conjfCc7loRMtZB6etq5aXenocIOZ40wwm80x9TlU/EMiHF7aP9h8vr/DmJBV69DPuVI0m3CcCa6jjSPvIgjL7yepUBYRab6+vs1MbksojlT0CfTxpjCdED3Va46yR0phe6d6yVj+HFqUzwLLOzNSKZ4T2Ppx6Oa92Rn0GHu1OGuREWY+Tc32c+M4Ox7agQAIgAAIgAAIgAAIgIC7CbhFVJE/ptNSU01rLy0ro4bG8SEWCfHxpjbN+APcxGI2N/QP6mlcJccVUaWxzSyq6JO72lpHXKTRg0DCe9q7XAs3sjWus8ekNPT54la6UHKcvvGxtSQVfqRSUFqCQSWz1Y8z0+uSZLyaSW4Yfa4Y7bj+vbrR7IkRZafqkb69s9vvv/+DFKf7WZR+L7/0Il26aOlZ5ux4wwPm8BSp0jORjQwNqFLJklvFnGzWdkJYfXLavg5LTx39fkiMUcy1dW3J3xIQGm3rlN1jjY1NlJqaQiGc+DWASyz36/Ks2O00jSfq+/oog8NzQv18VbiOdRnm6bjUAHvEHOF1nuNk4o9vyKdwzoslHiwSeGT7boy/ahTnaBGTECL8Th/PB0dAAARAAARAAARAAATmHgFzrMUszr2iosJUSlkS1546c8bm1TVRRf4ALy0vt9kGB2eWwKUyc+LPd+7MtFlNZKIZiBeIZjvW2i+VLFVotGpD1Zwklm+720w+c6cKzd+k60swa5Oa6XXVt5jFKE1s0q5t672kutNULWnXNcnkY6Ncrq1+Ex0L4JCNoKAgi5cPe0W4an3tZgE1MNxY1WeisbqbqlQTf0MkRaYvt9s8Ie9a0zmtj3ZA8q10NxvHiUzPG1cdSGsXl7uZJgoz0tpq7w0sNmgWFWXO3aIdm+l3CdcRkzLIkmR2Jk3ysJRywloxXw4Fkms6YxI2FBVpFFVaW9toyEY+F2fGQRsQAAEQAAEQAAEQAAEQ8CQCzv01PM0zlio+1TU1alSp/pOTnT3uChnp6aQ9nNQ3NFBvr/nb7XGNcWDGCJy50kIFl4wPjFkserxtW5rda8lD03rOTWJt59jzo7iqQx1enhVJSzPMIQBaW+5Kd7Foo9lz+8q0zRl5T4kLIW9vY3JPexfI1c2zlAULa5vpdVXWm8Okdl6TZH35cfuS5PfZvaXqeFxUIN1xXca4NtYH5H4Ygh3nKbHuM9X9npZaujpqzAOSuGIHC3UT/xoqP/qi6bIZG++w2ccQm0YxOWtVu57WWmoqOmHqo22UHXp2bHMRLdn1AVrkZSkO+QYaKHPznVpzp98rK6toZCy3SXLyxPfK6YGdbPh8eRX1cJJasTvTUyh0gjCgEF8flRfF1vBaOWZb5+SYiCjphmB1uo49ZAZZGHfGYmNjTAnKy8ornOmCNiAAAiAAAiAAAiAAAiDg8QS8DRGx35zMLEUEWbZ0KcXGxJhecbGxZOAkhsr4G375Vlt/vrmlZdwlJAeBCCfyIC5tR/iBoIeFE28eX0KD1q9bp8oti8fAyVOnVN6CcYPMkwM5melqJTW19R65oqLKDrp5S4rKN7KWw2HEa0Kq8nRz1RjxJgkL8SMRIL74vlW0IjuKXjti9AbQL6aNQ3muzTd6qWxbk0C1zT0qJ8kwV+ERAeBj71hO1455sUgeF0kOK2NbmwgF4jUiAsKrh8dfR9r7+XrTXbuMAo3kb7FVvedDdyylT961XAkKUv1GQm2kIpCYiAzv/bfFdONGY4iIrP/F/eXqnPU/07Uu63Flv7apl7aujld8F6eGU0QoV3nhnC/RnNsmnstAhxn8qIWT7ertSkUHXbcukYIDfWkV54RJTwwlCeHq7hti77CrJAl1k7lM9hYe99P3riDxPtpzrJo6e+xXAFq7br3553vsYpcuXaRGFjtdsdHhQfI3RFFYQhb5h4RTeMpSvtejajsoIp7k1d/BXkK6D0AviySxOeu4XyQFRSZQSFwaddaVkiSflXCd6Kx8WnPPQ6bSy4Wv/Q91NZSPm153czUl5G0jEU9CopMpPHkpcxlWv4dkjLxbP6nG7+fQId/AENW/5MD/8ftVioqx7wEigooh1EAR4eEUwmE4hYVFPH0bH2AeqaXZNrdNcTGUwLlKxJ5jkcR2b3V63D8ibEh4zmrOeRLIFdO2J8RT5+AQtfNLjouFcbhONs9RRJeP5i5WOViONY3/3fzI2tW0IzGemXA1oaERlQhXm0siz+9jSxerUCMZ8826BjrfZq7YJsfsccrLW0YREeE0zL/rj7513OStKH1smT1OttriGAiAAAiAAAiAAAiAAAi4i8Ckc6qIqLJq5Uq7843n3Avy0tulwsJxDxiNTU108PBh2rJpkxJPpArQ6lWrVDcRWsTkoeTosWNUW1en9vGPewiIyPHY/5yiB+7J4wd7f7p+Q5J6Sd4TqQ4UGmyuuCIChC07dr6RnmfvExFFAvy96csfWKMe8kXMCAkye0q0dPTTj58+q87ZGmc6j0ky17t2ZamXPP/KtUW0kONjH0HqYrHhe787ZfeyM7ku+fz/4m8X6GsfWauEpJs3p5C8NCuv7aJPf/+gtqvepTrTI78+SZ+/byVlJIXSppVx6iWCSnv3IEWwEKP9fFl0nOWdkjf/QpFpyyk4KomiMlaql34Ke594vxJM9MfOv/QzWvOur1BgRBzFLblGvYb6e8jHL8DC46Sq4DWqO39A39W0LR4yx5/+Bq1999coJCbV5rXPvfgkxS7ZoK5j6ujERnFxCQvFaSxc+VByUiJVsPfKbNrumjoysIfK7SyaiCeKlEQWkzLLXLNHiSjOzic5OIjuz8ki4iEkP0srl40O4nUFj5W4l3GKOrror2UVTg3pzUluU8Y8eCoqKjn0x76I59SAaAQCIAACIAACIAACIAACHkLAJU+V5cuWTWr65y9eHCeqyACdnZ3U2t5OUhHC318eZI3lOuVcV1cXHT95kh9MKmV3Xpune6oI/FoWVva8VU2RLKokxgSrfB0iQEgCVTERJQouN9H/vlZMDbpcIOrk2D+So0TyfuRlRVEge5vI/RavEjF56D/OJYC/9csT6lpjXca9TZenilQ2CfT3IalGJN4bIqKIB4wck+0RLmm7m9f7o6fP0ERViKZjXeMWOnZArv3myToKZW8gCVcysACliSLtXYM2Sz13sHjyOs9dRJkM9lQRxtLHuDZeHJskvT3BYV1/311CF0vbHIpY0+2pIteXMsk1Z/bSIm8f8uKXeIV46UJxyg4/R+LRorfBng6qObuPPVnilBgjYUPePiISGcOHBns76fzLP6eywxLio/lW6Ecwbkui3LrzbyoxRnKn+AWH8nz6qKX8LJUe/DvV8jUSV+6g4MhEkralh/6uOtrzwNCuICWCJcTFmKw2gErLyrVTFu/2PDCm4qmiXeBSewcVNLdSGnvLSCJZue8SrqPPeyJJbfexh8nu6nrqtCFuqJ9rFkHC/f3Ii/vLS8QUqfYjJjlVXqioot8XldgM/bHFKTMzg1JTkvlzNkpHjh6jQQ4BncjscZqoH86DAAiAAAiAAAiAAAiAwGwSWJSYmWf/6WMWZ+LPDwDR0dHqIUCqAw3wN6MLxW7ZtUMt9dhx+x4RnsRCHtQkZCc1PkQ95MuDfzWHmEhIjrMmHi/iSRHOYkElJ7KV/CETVbdxduzJtJMHyNSEEJJqOTKnPi6b3NjKD90ceiNhQZM1T1mXft4yJ7lXUnlJBJfmNhY0WCQTr5a5aiLEBEenkCE2lYb6uqmrsZz6O8eHsjizPgkfGh2WUDZzbpDNH/0hGeIyqLO+jI785gtqmMW59j30tOtIeMvNN92gdvfte5MkH5S1Xbl01vrQjOyLkCLhREnsdcKyIbXw79RmDrtsdrIyUQALK9I3gsUV8YCR0s3St57FI0d5VKw5iXfjrW+7hYJ5rMIrRVRQcNqp9c4WJ6cmg0YgAAIgAAIgAAIgAAIgYIfApMN/7Iwz5cOSvLamtnbK42CAmScgHhD1nFNFXq6aCDBtneaKKa6OM9V+I+whU1bTpV5THUv6e8q69Gsxzsl5wUvf11O3R0eGOWdKmXpNdY5Ssllvkrw2MMyYcLmvbXJ5jto4v4h4qGRmpNOKFcttiir6a83k9hB7hVR296iXK9fpHxmhkk5zsmRXxpA+mZnpSlAR75Tz5y+6Ogz6gQAIgAAIgAAIgAAIgIBHEvAYUcUj6WBSIAACC46AhP74BBir2zSXOudVoYd09uw56mExQ8yPPfCcCXXR959v2xLyc+7cBWppbV3wLObbvcV6QAAEQAAEQAAEQAAEiCCq4FMAAiCwoAgsvfFDKhdL9Zk91FFTZLH2uNxNtGTn/epYd3MV1ZzeY3HemZ2+vn46fwEeGRqr0tJybRPvIAACIAACIAACIAACIDDvCEBUmXe3FAsCARBwRMDHj/OMrN5Jyfk3qoS5PVyueXRokIKiEskvKFR1lQS1l/713xZ5VhyNiXMgAAIgAAIgAAIgAAIgAAILkwBElYV537FqEFiwBLoaK0gqCfkFh5E3l2MOjc+0YNFcXEAX/vkLlxPfWgyGHRAAARAAARAAARAAARAAgXlNAKLKvL69WBwIgIA1gYpjL5O8gqOSKCgygfyDw7kA81Xqaa7hVzUN9Xdbd8E+CIAACIAACIAACIAACIAACNgkAFHFJhYcBAEQmO8EelpYROEXDARAAARAAARAAARAAARAAARcJeDlakf0AwEQAAEQAAEQAAEQAAEQAAEQAAEQAIGFTACiykK++1g7CIAACIAACIAACIAACIAACIAACICAywQgqriMDh1BAARAAARAAARAAARAAARAAARAAAQWMgGIKgv57mPtIAACIAACIAACIAACIAACIAACIAACLhNYlJiZd9Xl3ugIAiAAAiAAAiAAAiAAAiAAAiAAAiAAAguUADxVFuiNx7JBAARAAARAAARAAARAAARAAARAAASmRgCiytT4oTcIgAAIgAAIgAAIgAAIgAAIgAAIgMACJQBRZYHeeCwbBEAABEAABEAABEAABEAABEAABEBgagQgqkyNH3qDAAiAAAiAAAiAAAiAAAiAAAiAAAgsUAIQVRbojceyQQAEQAAEQAAEQAAEQAAEQAAEQAAEpkYAosrU+KE3CIAACIAACIAACIAACIAACIAACIDAAiXgs0DX7bHL3rF9B4WEhFBXV5d6VVVXUVNTk8vzTU5OJl9fX2pva6e29jaXx0FHEAABEAABEAABEAABEAABEAABEAABSwIQVSx5uH1v3dp1lJqaaprH1atX6eKli/T0n56mnp4e03FnN/LX5NOunbuooaGBHvveYzQ6OupsV7QDARAAARAAARAAARAAARAAARAAARBwQMDbEBH7TQfncWqWCYhXSXNTM7W2tlJYWBj5+flRbEwsBQQE0IWLFyY9m+qaatq2dZsaS7xfKisrJz0GOoAACIAACIAACIAACIAACIAACIAACIwnMGVRJSwsnFKS0igmJo6io2KI2LOir693/JUmODJd40xwGY8/XVFRoTxTTp85TYcOHaKNGzeSv58/SRjPa6+/xnivTmoNQ0ND5O/vT1lZWZSWlk6HDx+m4eHhSY2BxiAAAiAAAiAAAiAAAiAAAiAAAiAAAuMJuJSodtGiRRQREUW5S/IoMz2HDIZQCgoMVi9fX7/xV7FzZLrGsTP8nD/c199H586dU+vw8vKisNAwl9b0xv43VNhPSHAwbd++3aUx0AkEQAAEQAAEQAAEQAAEQAAEQAAEQMCSwKRFlSj2RslduoLSUzM5JCXQcrRJ7E3XOJO45Jxs2tnZaZp3eES4aXsyG93d3cr7Rfr8//bOA77N8tr/xyvee9vxjB0nJM6AhDhxBgGStARogdJQZrnQC01T2tKW9t7bcgvcjn8pUEqhLR1QoGWUAiWUTDJJyE6cnXjGe+89kv85r/xKr2RJlmTLVuTf+Xycdz3z+0qK3p/Oc86ihYtIBBoYCIAACIAACIAACIAACIAACIAACIDAyAjY/XQ9OSFZWY4i3Q4MDFB1TSXV1FbZPYrRasfuji+zCrJ8R7VJdngBqXXU7cFDB5XdsLAwmjljpnoaWxAAARAAARAAARAAARAAARAAARAAAQcJOJT9p7+/j2rraqi+oVYRVmI4noojNlrtONL3RKtz8uRJEoFGAuEuXLiQjp84PtEQYL4gAAIgAAIgAAIgAAIgAAIgAAIgMKoE7BZVKipLqbGpYcSpeUernVGl4caNiaBSVl5G6WnplJmRqSwBQnplN77hmBoIgAAIgAAIgAAIgAAIgAAIgIDTCdi9/Ke+oW7EgorMarTacTqhce5Am+3Hw9NjRKORzEJikqY5OTl5RG2hMgiAAAiAAAiAAAiAAAiAAAiAAAhMdAJ2iyoTHdhYz7+jo0PfZUhIiH7fkZ2SCyX6ahlTMvT72AEBEAABEAABEAABEAABEAABEAABELCfAEQV+5mNaY2m5iZ9fynJKfp9R3aam5r11aKiovT72AEBEAABEAABEAABEAABEAABEAABELCfAEQV+5mNaY3CwkJqatIJKzk5OSNatqP1egkOCh7TeaAzEAABEAABEAABEAABEAABEAABEHA3AnYHqnU3AK4+Hwkw++dX/kxfuvVLlJqaSo9++1E6feY01dbWUldXFzU2NpKaLnm4uXR0GpYSBQUFDVcc10EABEAABEAABEAABEAABEAABEAABKwQgKhiBY6rXCotLaVnf/0sJSYmUu6iXJo/bz7NnDFTGV5+Qb7Nooo224+nF5yUXOX+YhwgAAIgAAIgAAIgAAIgAAIgAAKXJwGIKpfBfQsNDaUbV9+oiCmenp4kcVbO55+n9vZ2qqmtsXkGAQGB+rId7QavFf1J7IAACIAACIAACIAACIAACIAACIAACNhMAKKKzajGp6CHhwc98B8PUmqKLkjt1k+20kf//sihtNaBgQH6SYggAwMBEAABEAABEAABEAABEAABEAABEHCcAEQVx9mNSc201DS9oFJcUkwfrv/Q4X61KZm1WYUcbhAVQQAEQAAEQAAEQAAEQAAEQAAEQGACE0BgDRe/+drUx4cPHx7RaJOTkvX1i4qL9PvYAQEQAAEQAAEQAAEQAAEQAAEQAAEQsJ8ARBX7mY1pDa13SX1D/Yj6ThlcQiQBa4uKIKqMCCYqgwAIgAAIgAAIgAAIgAAIgAAITHgCEFVc/CUgMVVUG+gfUHft3ko7Kcm6uCxl5WXU09NjdxuoAAIgAAIgAAIgAAIgAAIgAAIgAAIgYCAAUcXAwq33MjMyKSBAF6j2wIEDbj1XTA4EQAAEQAAEQAAEQAAEQAAEQAAExoKA3YFqxeMhJjrOaGxBgcH6Y9mPjYnXH8tObV01Xbp0yejcaLVj1KgbHkgKZdVk2Y6jNm/ePKVqb28vHTx00NFmUA8EQAAEQAAEQAAEQAAEQAAEQAAEQGCQgEOiSkL8ZIsAg4NDSP60JqKKqYmoMhrtmLbrbsfBQQbBqrml2aHp+fj40JzZc5S6hw4fou7ubofaQSUQAAEQAAEQAAEQAAEQAAEQAAEQAAEDAYMbhOEc9lyIQHp6un40zc2OiSrz580nPz8/GhgYoG3btunbww4IgAAIgAAIgAAIgAAIgAAIgAAIgIDjBOz2VJElKEfzRr58ZLTacXzqrlkzKSmJggKDKDgkmGbPmk2TJ+u8ggoKCqivr8/uQXt5edHKFSuVers/3c1LsWrtbgMVQAAEQAAEQAAEQAAEQAAEQAAEQAAEhhKwW1QZ2gTOjCaBNbevoeTkZKMmJVPPex+8Z3TO1oOcBTkUERFBnZ2dtHHTRluroRwIgAAIgAAIgAAIgAAIgAAIgAAIgMAwBCCqDANorC83NTeRt483tbe1U2tbK5WVldG+ffuoq7vLoaHIkp+PN3xMF0ovKMKKQ42gEgiAAAiAAAiAAAiAAAiAAAiAAAiAwBACHgnpM43T8gwpghMgAAIgAAIgAAIgAAIgAAIgAAIgAAIgAAKmBBCo1pQIjkEABEAABEAABEAABEAABEAABEAABEDABgIQVWyAhCIgAAIgAAIgAAIgAAIgAAIgAAIgAAIgYEoAooopERyDAAiAAAiAAAiAAAiAAAiAAAiAAAiAgA0EIKrYAAlFQAAEQAAEQAAEQAAEQAAEQAAEQAAEQMCUAEQVUyI4BgEQAAEQAAEQAAEQAAEQAAEQAAEQAAEbCEBUsQESioAACIAACIAACIAACIAACIAACIAACICAKQGIKqZEcAwCIAACIAACIAACIAACIAACIAACIAACNhCAqGIDJBQBARAAARAAARAAARAAARAAARAAARAAAVMCEFVMieAYBEAABEAABEAABEAABEAABEAABEAABGwgAFHFBkgoAgIgAAIgAAIgAAIgAAIgAAIgAAIgAAKmBCCqmBLBMQiAAAiAAAiAAAiAAAiAAAiAAAiAAAjYQACiig2QUAQEQAAEQAAEQAAEQAAEQAAEQAAEQAAETAlAVDElgmMQAAEQAAEQAAEQAAEQAAEQAAEQAAEQsIEARBUbIKEICIAACIAACIAACIAACIAACIAACIAACJgSgKhiSgTHIAACIAACIAACIAACIAACIAACIAACIGADAW8byqAICIAACLgsAW9vb0pKSlLGV1lZST09PS47VgwMBEDAPgKBgYEUExNDdImo5EIJXbrEOzAQAAEQAAEQAAEQcCECEFVc6GZgKCAAAvYTuHb5tXTj6hupsbGRnvrpU/Y3gBogAAIuTWDtw2vJ19eXXnv9NTp0+JBLjxWDAwEQAAEQAAEQmHgEXEJU8fT0pEmTfMnL04t6erupv79/4t0JzHhMCUxLjaCfrVtsts/zpU30w9/sNnvtcjh58w/fIA8vL7NDXf//7qWL/X1mr12OJ0NCQmjF9SuUoW/avIkGBgbsnsYNa2ZRZnacUu/0kQra8t4pu9tABecRWHR9Bi35fJbZDvZvK6Qd/z5r9hpOGghExgbRHQ/nKCcO7Sqm/dsLDRfHYO9rP7yGAoImKT1tfvcknTlWaXOvHR0dtGv3LuV9ftONN1He8Tzq63OfzzCbQaAgCIAACIAACICAyxIYsagSGhpG0ZGx5OWte4irr6+lhsb6YSccGBBI4eFRFBYaTj4+PkblBwb6qaW1hSqryvnLU6/RNRyAwGgQmOTjSbGRAWabamjpMnv+cjkZGB5DHixQmjMP8jB3+rI9t/qG1cov2A0N9bT/wH6H5hHKr4O4yaFK3YriJofaQCXnEfD196EwC+9VvwDj/zucN4rLu2WfSV40OS1cmcT5E9VjPpmYhBAKCvFV+vUPtP+efbLtE1qyeAl/Zwin5dcsp81bNo/5HNAhCIAACIAACIAACFgi4JCo4uHhQWFhERQXE09+fv5Gbfv46H6NMjppcpCYkEQx0bpfhk0uKYdeXt4UER6pCC7lFaUs0tSZK4ZzIOAwgYKyZnr4p1uN6j/97aUUHDj869eokgsebHnp20T8HlVt9qr7KTZjrnroNtvIyCjKWaD79X3Hzp108eJFt5kbJmIgcGRPCRWdqdWfCI8KpDUPL9AfY8f9CXR2dtK+/fvommXX0PXXXU87d+1E7CT3v+2YIQiAAAiAAAhcNgTsFlUiI6MplsUUX16u46h5an5Fb29vo47Oduru7qI+XpbgO8mPIiOiKIA9WWRZUNLkFL7WyWU6HO0O9UBgCIHO7n46UWDsUdU/4B4P5fUXThvNt6ejxejYXQ5yFy1i7chDEVMOHznsLtPCPEwItDR2kfyp1tWJpR8qi4m0PXjooCKq+Pn50byr5tGevXsm0vQxVxAAARAAARAAARcmYHdK5ckJyXpBReIXVNdUUk1tlX1T5Oj9Tc2NdPb8KcovPKss82lsaqC2tlaqb6ilc/mn9UuI5KEpOTndvvZRGgRAwK0JeHHMGNVL5czZM9Te3u7W88XkQGCiEygrK6OamhoFw+Jc8/GwJjojzB8EQAAEQAAEQGB8CNgtqsgw+9mjROKdnDqTR1XVFcqxPcOvqCzj1IiF1NXVabFaBS/7UYNO+vn6kbe3/euwLTaOCyAAApc1geyZ2RQUFKTM4cjRI5f1XDB4EAAB2wio7/XExERKTkq2rRJKgQAIgAAIgAAIgICTCdi9/KeispTEq2Qk8QsuXhp+mcXAxQFlSVBgoO7BKcA/gFrb3HMZg7V7nBwXTLOnRlNaYiilJYQqoTIq6trpbHEjbdl3gbp7rWc78eUAhblzEikzKYwy+M+TPX/yOZ5IQVkT7c2rJFkGY8kCOUDkipwU5bLEIDnJy2VCOObIldNjaW5WNKVPDqOy6jbKO19Hmz4rsdTMkPNzp8VQ7uwEiuPYCFFh/ry0q48aWrqpsLyZPj1WQRW1tnkdzJ8RR5LFJzM5jMJD/KioooUKSpvpwKkqqmmwLNgNGdAonYjn+cjcMpPDaQoHPm1p76V8ziR0PL+Ojp27fOMChSdMoZj02RSWkE7BkYnU3lhFzZWFVFt8ghrLz9tEz5PjJE2ekUtRKVdQeGIGtdaWUV3JSao8u596O9soKXsJeXr5UE9HM1XnDy+STJs2Td9vUVGxfn+sdqLjgymd77XYuePMg19v4dGBNGV6DJ+PpuBQP6oua6HTRyup2MZ7H8Lvhamz4ig+KZRi+fXTxa+fKn7fVZQ0kQQXZQc/m2wqZzKSuCNiB3YUKvWC+P2xYHk6JaSEUWCwLzXzcprSggaSTDC9PbrPAAkmmsbva7GDu4roytxUmj4nnnr4M+L0kUo6eahcuXbl4lTK4j4k+GnB6Vr6bGu+xbFJxpesWfFKkNTQiAAlWKks5anh92p1easSK6W76/JeziM8M66IoRj+jI5NDFGy3DTVdypzPLa3lFqbDUuXFIBm/smcEUuJHEg2nj+jg/i1U1Peotz7/JM1ymvLTJUhp2Qc0+cmUFJ6BEVxtp9yft3Iay//hM67Y0gFKyf8+LM/Y2YsJfBnq4zJw9ODqvizteJCE78WKujigI0vRit9OHKpqKhIXy0rK4tKy0r1x9gBARAAARAAARAAgfEiYLeoUt8wdg+HlzRPESKyTCTz8fak+2+eSXevns6ppg1BR4XBfPnnGqJ1a+bSM28cos2fXZAzQywlPoT+7xu5lM5f9rWWww85YiKI/OilPSywNGsv6/fD+Uv69++dpxy/tekcNfDDwR/+53qK5Ic/1a7kB8svXDOFll6ZSE/9cZ9VkSeCH+yeWptLcwYf3NQ2tNtHvjKXXnznGP19g+U0qUH8hf+//uNqumZekrYqyVjEOvgh7RevHqRtB8buC/et12by/ZjDS+OMs+5cO183xg+2F9Dzbx6l3r7L53Xs4eFJM667k7JX3McPVQantpj0WTru/P48tf1NOr7pFbpkJUjspIBgWnrfkyzMDNbj2rFT5lDmwpuopaaEtrz4bVpw+/dokn8Q1RWftElUycjIUMYgy34k889YW+rUKPrifVcq3b726z1K9qB7HsllYcjwXs3gB+XcVZkkKWSHS/s7fU4C3f61+eRvEih55vzJSh8i3Lzz8gHqZKFlOMu5bgqLIQlKsYM7iyib25C2vX0Mr80Uvjp7QRLlrsykp7//sVI2LcswJ0nBu+RzU/VdzV2UQm++tI/k/MrbZurPy0N8ZEwgrf/bMf05deeubyykK65K5NhYBibqNSLd+6KxroP+9tu9VHnB/GeQobxr7s3OSaYv3DN3yH1LG8wAveq2bPrskwL66O9D+ciMRLy47YF5NHOe7j6rsxRhTqyHP8vee+UwHT9Qpl4yu41n8eO+by+m0AjDZ3M6C3xLORX1yYPltP2jM2brmTuZxn2v+c+ruS3j7GhZLPiJlZyvp7d+v88ozo25dpxxrrS0lAW8S0osJfkM2LJ1izO6QZsgAAIgAAIgAAIgYBcBu0UVu1ofQWGJpSLBasXkS1TnBApUGxrkSy/8YDl7O4Qp8+/mX5LPlDQqXhjyi6F4QUxlb4ggTieamRRuVlS5Ij2SXnhsOfn56m5xSWULe5TU00VmOSsjiqbwr49J7AXzxx+voO8+t5OOaLJrKJ2a/BPO6TCf+9413OckOnS6hspr2igxJojmXRGrfMEVgeNkYQO9udG8GCIPVk98fZFeUKlkb5vP+EGxkT1UJOPOZH5Ym8FjFo8T/8ExmwxBORTvmb/8ZJXSt5wQoeco/xpb19RJ09IiaFZmNEmZp7ivRPYceP3ftj9MmOtvuHPi+fPTdbksKukeirr4Xh0+U0Mlla0UGerPXkZRlBAdRF9cnkFTU8LpIc44dPHi+PzKO9xcTK/n3v0jSp61TDnd39PFninHqbm6hEJjkhWBxMcvkGZceydFJGbS9j/90LS6cuzjG0Cr1v2WgqN1fDpb6qm2MI89UlooOm0mRUyeStc88DN+8DY88JttSHMyJCSEs4fpBDR5yBpvS8mMpEUrMqmrs5cu5DdQe2u34pmRwPdbPsdW3Z5N+adqFI8Tc2NdeF0G3cwP5mLyWSdtlLMnmniXiNAhD7fi7fHIkyvohf/dSh1tPeaaMXtOHqzv+PoCZRwD/Repll+XXR29FMXv/ZBwf/L1M/9fwEIWZvZszicvFnevXpauiEXy8C/eKSLwiAgyhwUF8c5ZcO0U2vTPk9Rr4vUWxx438r7vZyGxmj0vGmraSUQUSYMcy14xMrYIrv/1H13LD+n76dThCrNzcNWTdzy8gERUEZP7VlHCXlYsUHcyX/FYEaFDvI/k9WHOJFX0N5+4niL4c1SsrbmbivizrLWpiyanhnO9KJIyX1mbo3CyJMyJZ8qDP1hGkwY/N8Wz6UJ+vSL0iOeUCHPBfK9tsSUswnz+y9nK64WnRMVna9ljpkV5HSTymKQvERQfeXIlvxa32OxFY0vftpTp4oD2tbW1FBsbS+lp/LpksXckXrO29IkyIAACIAACIAACIDAcAfPfqIerNQbXg4KClS9M0pVkB5IvrRPFHrptll5QOcVCxeO/20vVDcbZj0SIEM8IS1ykDVVQ+TsLHS+x94cW4f03z6AHb8mmSfzr9drb59CDT262infVwlSq5AciKSfLbFRbMDOennl0qfIl/Pbrp9I7m8/RgBnRYG5WjN6TZOv+UvrJH/YajUfaE++c665O5lg6lu+19CFijtgR/sL/g+d3GS1hysmOV0QOv0ne9NWbZtB6XsbQbMdDqNKwHf+sXpKuF1RkGdSTL+8zulcyp2/deSXdwqKKCF3i0fLu1vN29DA+RUXwUAWVzpY62vbyY7xkxyBgBEXE0fKv/ZKCoxIpPms+JUxboCzlMR2teKOogoos69n118dJBBrVZq64h2at/Kp6aNM2ilMpq9bU3KTuOrzd9fE5kmUaYs2NnXa3s2z1NEU0EU8OESxUE4+O5TdNVw4Xr5pKb/9hv3pJv5WH5hW3zlCO+1n0eJvFBXWZjZwUEePOtQtpGi/DEXFl6Q1ZtOHt4/r6w+2s/sps5f204e082retwGjZhiwFkrGbs08+OK33rhFvCSknD+3ysP7qs58qVc7w0qa1j19HXl6eNIW9xM4cqzRqqomXRB3aXULiLWPOw0ZEgwcfW6p40Ky+Y7ayxMjS55lRwy5wIGKKKqjI8h65b0Vnjb04RVDK5fs+fbbOM9B02LkrMvSCiqSMfu35PcpSK7WcLOO6+5uLlNfA8pun85KsYrOC2vW3zNALKlveO0nbPjQIySKaffXRJYoQorZraSvLvz73JZ2gIku03n55P4sqxnO6akkq3frVecoSpxvvnENvvLDXUnNG59/htry9dcJpJS+JHIk1NTUpooqvry8FBwdTS4vh/6ORtIu6IAACIAACIAACIOAoAYNPv6MtOKGe/LqbGG9Y2iEZhiaKZfGv2zfzL8NiZewNsvbnnxg9pKsc2vjh7ed/OUCvmfHEEG8N8SARO3qull5821hQkfOvfHiKdh/V/TI8nT08FnGMk+HsV68dMhJUpPz+k1UcB0V3f2IjAxSvDHPtiJeGav/8xHwMhj5+qNy4l5eD7De/nEk8UO5YpfOrF48QU0FF2l05xTgAAB3tSURBVN93oor+8M8TSlciKt11g+6hVu17NLcynofYvV9MYrg89vzuIfdK5vTs64fpdFGDUu5rLGTJ8iVXN1nyo9pnb/7cSFCR8+2N1fTp60+qRSh7paG8etLLexJNW3q7cihCyu6//q+RoCIXTm55nWqL8tQqNm3VALVSuKPDWGy0qQGTQvLLvggC8idxI+w1iUny1u+MBRVpY9u/TrPXis6rJH26bjmHadvyYK0u+dn50VkjQUXK9nHMpDd4eYzqnZLDXiFB7DVmq8WxV9urz+ymvVvyjQQVqS/eJiIEmTPxmFCthIUU1QrPGM5LfA3xfhGL4hgzpvaXp3fRzn+fNSuoSFkRaD7dlK9UE48XS4xM2x3vYxGXblijW8omsUVe/vmOIYKKjFE80nZvOEev/WbPkCGLmCZCm5i8fkwFFTkvcXQ2vav7LJM+l7GgZmriDSXii1gBe0NpBRU5J/FwXmexRgS74UwEOFm+JnOSJVmmgorUP8wi2Z7NOlF4Bi/tkqVCtpjEhlHfY9r02LbUNS3TofFa1X4WmJbDMQiAAAiAAAiAAAiMFQGXFFUSWFDx58C0Yo1N9Uqq5bECMt793LFqmuL1IeP4ywcnqX/A+pfhdl5yYGorF6boT/1re6F+33TnXxzEUrWVOYY66jntVgQeEVDMmXhoqBZlwc080M8gJEjAXEdsAXuhiIeOmMSRsRRkd+MeDr45GLtkuHk5Mg61zurFacpyJTl+df0pMncv5JosuVJjxMiSrRlTDJ4Wct3VzC8ojOIydfFC2urKqYaX65izpsoCaig7p1yKTMpSvFa05eKmXkV+wToxreTYNurrMe8FUnhgo7basPvaB6nOTvNtDtvIKBbI21dqVjiQB9nyokalJwlcay62iOrtIA/g4olgzkS4OPxpiXJJHq6nz000V8zsOVmqUzjM0j5zFWUJimodg8KQHGvPy8O3LHkSk9ggjlgpe+KpFs1Lki4Hm52TpCydkrEe/rRYWdZkbdzdHIjb1CTQryqmHfus1MhDRVv26J4LyvIpOTd7oW6pkfb6XM05ETzMmSxHGm5plQSjVcUZid9SNvi6NdfeTvbsUr0e1TrmyjnrnPY9Lx6tMBAAARAAARAAARAYbwLe4z0A0/7DwyI5XoLOy0JSLpeVm/daMK3nLscpg7/4ipiy1cFAq/GRgXocB09X6/dNdw5prkkmHmt2gWMxWLJ6zQNYtAVRpYhjuqi2hr1NThXW0zn+pdsek+w6qmnHrp5Tt638EHGeXcxnsnghcU1kCY54jIy2SUYm1SQOzPLBwLnsaGWwwQMJ+qvaVF52YUmgUsuM5zYwXPfLt4yhOv+w1aHIdRFUxAJ5SVBbfYW+fFCEYdmDxFGxZHUcq8Ue8/IyxF9xhXgKtZVtFoevZn4R7zvJ6qIVJaSSmqWnnoNGt1hZeiReCBJ0VFfHOICoctLCPwd2mBdqLBTXnxYPGdV6Nft9vf3qaWWrlvPzt/5fiSxDkeVLYezNFiDC6OB7RGKqqKaKDOqxq26jOQC4akcHl42px7Zuw6IM91DurSUTQUQ8ipIzIjmjlD8vofE08joRDx/VTJcfqedlW8hZmiQwsSWTGDCqSQwcNUCynFM/zuQ1rJp4TonHlGQHGmsbGDC8Nr00AbTHehzoDwRAAARAAARAAARUAta/CaulxmgbHBRCKclpSm+9fb1UWMwu61ayiozRsMa0m6Q43ZfbWn7AcjSgadzgF3aJbdLSrlt+YG4SIjSIACFpkuM0Qoy5sjVWHvh6NBltJJaJOdt1uJyKORaLCBGTOSaKBJtV0zGfZIHlBKdrluCu1iyOH8hUkxTM1qyBgz6KyXNALD/MlduYptlam6bXJNCvapK1yFZL5dTYrmyB4TpRU8bY1WZd+Opq1XliSFltPdPjrtYGOWXWuofpw7SSZPxRLSDA8JpQz4311locFlV0kDFNMskMJSlwJWaKWNswr2cJYqqaKsSox9a2jRwQ2hHr07yn+41EFcMDrbTb36cTK301nmja/iRV8LIbpympprXnze1LUNzLwaLidDGdZKwSeNcR097DYe/94GtDPstC+TNQAv6qJiKVmHiOtLcZXiPqdXXbPszrSwIXqzZvaRrJny2mFWNsKT8aZQIHA9hLW+0dBhaj0TbaAAEQAAEQAAEQAAFHCJh/AnakpRHWCfAPpLS0DGXpy8BAPxUWnac+FlYmkknK4YDBbBxV9Y59WRdesYMCSRNnIVHdtC1xbGzpUkSVqDA/8uaAk5aWG43U00PaffTZnfTD+6+mBTPjlOGIKCF/Ny7VxZC5UNXK8VCO004WYMyZOi+5JlmDrFkDz0s18cJxiqgSa3gQOa6JO6H2a2krmY9c2QLDdZl1ZIzdbQbRxNyYtdcDwwxijJQNCI3SV+lutxyrpL+vhx/OezhgqcGbR1/RzI6riSoDg8KCmaFaPaU+EEshrWhirpL2wVtbz1xZ7bmmeseWR11iQVY1bfBY088T9ZrGiUGtRhJ8drEmLbPE9xBPHfFyUNv3ZQ8XiQsipvWE0DfigjtRg+97Wf5k6nlk63DDWOhVbTjBw/Tea0UVNe2xBEiW8VgyyUhlzSRVtmqSqUmCE9ti4kkz1hYYaPDO0X4WjPU40B8IgAAIgAAIgAAIqARcQlTx9fWjKelTyYvTqopniniodHPqxIlmEnxVNWtphdUylrbSjtSXzD7D2SQf3UtARJMBJ3sFiffNo8/sIPHUWDwnQUmvnM1BddXArSnsVv+zdYvpaQ6I+8H2giFDl9TSqg03N9/BeUl5LVe1/mhstTFdvvOr7dSt+UV/NNofrzb6ew0PYJ4cbNaaeWmEEG09qdPbZRCPfPwMD5Gm7Xnw+957mH60dZqbDQJNSLBh2YK2zOWwLwFKVVM9VtRj0632uraeaTnT4z5NH6bXnHmczWl8VUFFljZ9/NZxOptXxSKv8YO/LGuRlMqXk/V06wQHCerq7cNLCx1432vvofcwn9M+mut9PcaeQr0yFl6GI+OwZsP1oU2HvfGdE0rabGvtjee14BCdmC3fFdraLC+9G88xom8QAAEQAAEQAIGJRcD6N7ExYDFp0iTKmJLFD1Xeyhfu4pICzuhheBgbgyG4TBfy8F83GJ9EGz/E3gFWD3q5yLIeiSdizSI5zoOYZK8xed6xVm1E10o4vsobH5+h7z23iz6/7j1a94ttdPC0Ia7A12+frYhCpp2o85LzkexZY83UeUmZap6bM6y02rBcKXyQozP6Ges2O5oM98I/JMJq9/6DgWilkLaeHEuGINX8QyLV3SFbCYyrrNMacsX8ibr6Ompt1bFPSrIcJ8J8bdc526x5XUogW2umva6tZ63OeF6bP5jBTASHv3D2Icn8YiqoyPgiNHGSxnO89vRdX234/0m7jMeeNiTdtGrBw3yWSSwe1ZoajD0Y1deCBDCWP0umff2YK1PHgchVCwq1zWNMLT+WW/mekBCfoHRZWlbG3qy2edSM5RjRFwiAAAiAAAiAwMQjYPlb2Biw8Pb2oYz0LPaomKR84S65UEStbYaApmMwBJfrQrLsSLDXcF4KJMuBGodx2zY3ARERrkjXPcTK0heJXWLOpH3fwZgO1SZf1s2Vd8Y5iRsjaZ/zflVHT39nKeVwhh/xXEnnVLCnNJlBpG+tODKc6BQ/GMBRPHBkiZMt1sHLE8LZ8UFSMdtipRqu0WEBVOVgfAXTvtatXUcJiYlGp9955206lnfM6JytB33dhgc470l+nAbXusu+VhwJ4uCz1ixQE4y2o9kgxkgdbTuhsalUdmK32aZCYoZmNTFbUHOysLCQ5s6dS5GRHMCTM4C0tZt/jWuquNyuCA6yFEZiq0jgUllCY0nY1AYkVR+kXW5CmgHFDwYwLS9upCYr74tITXwSTXWru92apSnWhASrjYzgonjeqCYpq2uHiQWlltVumzXLO4cTZtRgvpJNynSpkFackWVhlsaiDYyrHYe6X19lmFOohWDjatnx3E6ePJnUQNUFBfnjORT0DQIgAAIgAAIgAAJ6AtbdGPTFRn/Hy8ubBZWpJEt/xErLS6i5xXr8htEfheu1eEITm+Pu1dMdGqB4gqi2KidV3R2yXZGToj9XxEFkx9Mk7fCBkwbPhkAzKVqLNfNaaWVeU5PDSZYSiQkLSw+qpvOtHAxmG8PxDjzNBYkwqXBSc69uvTbD5Krjh/4B/hTEcQO0f/ILraPW3lilryoZeoazDvYwkRgnYonTF5KPr/mlO578Hk6etVQpd+niAEn6Za3VFZ/gOA+6JS7p81ZZ9EZJu2qFtppN+/maB6rU1FSb6rhiodoKncdNSJg/pU2LsTjEOTkG4almnN+rFgc5eEFSR/sH6lIsW1saI4Fp5y2xLSCqts+25i59muHhBAltvdHav1BgCLq8bHWWPU5W+iFoxY85Cw33Vl9gcCeBM4VFD2aEq2PxxvSzrKrUsBQu++rJptX1x9Yy/0ihCs7EJqKNmNwTVw0anJqSqoxR/ikoKNDvYwcEQAAEQAAEQAAExpPAuIgqnpwGcUp6Jvn76x7WyisuUGNj/XhycJm+/7bhjN475ZblGXqPE3MDFI+OuVlDH8Te31bA8T10D7M3sRt+mCadr9qO1L31ukzlULIE/WPrefWSU7apCSFKIFxrjc/KNAQ2zdc8LKh1jp6tpXMlOuFtTlY0ZWcYyqtlRAu5RyNGvbnxnHpp2K0q2gibZVdZfkBRG9p5pJzyztcph9cvSCbt+NUy2q0EAs6drXNd15539n5LTYm+i/T5n9PvW9oRQaXgs/XKZW9ff5qa+0WzRacsWE2+gbpMRkWHNlNPh7Ew19lSR8VHtih1gyLjadqS24a0I+mYk2dfM+T8cCeOHD3CabJ1rv+zZs0arrjLXt+90fC+k5TJIkiYWlxSKGXNjldOi5fE2WMGkcy0rCsci/eZukQmKT2C/AJ0Aovp2GS+9gTdVeuLsKCmsc6cGUshY+xZISmQz5/QCcASZHfhdZYFVQm+O22O7t6p45etpD+uKNFl1krjz7IUji1javJZtmz1NP1p7WtFPXlodwmpnjsihphjPWV6jD4YsFrPdCuBknd9rPusFK+oJZoAw6Zl1WMZd0CQ9ZhLatnR2s6ePVtpSpb/nT13drSaRTsgAAIgAAIgAAIgMCICXsHhMT+xpwX5khgbw0s0AoP1f5IKWfU4If7C68PLebTXOzuN14GnJKdTSLDuYaynp5t6enooiF34rf0Rf8Hs7bW+bMGeebhqWVmuImmQl14pbs6e9PncNOrjzDn1/OtsB7u9yxdtSX+cOyeRfvHIEurlzCMHTxk8PGReEpslNMiXZrLoEMCpTpfMnUxn2A1fMubI/RNPjp9/czGlDab2/Xh3MW3YUzIEicRkuX3FVOX8SV6Ko/Uk0RYWrxARFcT2cOyEc/yrp6mtWzOXvnvvVRTCX8Lb2nuVufQPZquQsT54SzbdtHSKUk3G+s5m82KIpFJWPWyu4z7LebmULAuS7EKy5Oc7d12lvy7LniToremvu6ZjU48vsAv8rddmcsBkD1o0KH74czam+KggSuQ00N4cmLKFx641mesXlk1RHoblXkkAXVlK1dHZJ28FEo+bjKQwpd3HH8qhxXMT6c2N1h8GchflUmiI7v2h9pV3PI8qqyrVQ7u2bfUV7FGyjCR2SWTSNJL4Jh5eXhQQFkNBkQl8PpxEANFaU1UhZS76Aok3SlzmlTwXznRSW0oSjFaElKmLbqYrb16rvJ7ES+XT158wCkyrttVac4EyF95EHiykxmfNV/qW2Bo+foGUwmJKzpe/z/Xa+LXurfTV2VxLRQc3qtUtbiWWQkx0DCXyMqnoqGjasXPHmKZfT0wNp+lzdQJZ3r4yFhEMyye0g56aHUfJU3QPzJ9tLSDTbClSbzoHbRZPlSjOwCLLScRrQLK5SHDaLF4Od++3cvXxMj76ex5pvRO0fan7s9mrJXowRe62f522+fU/OS2cBQDdnLavP6PPJuPPnwO5K3UC7IkD5UZLTERQkOVLMqbTRwyvzwh+v4hQIHNISoug4vP11M3vCTERUj6/ZhYtvSFLSSXtO5jxrPhcPRWdqVWnYXUr2WlmcjBcEaFmXJXIS9oGlAf8yOggiuS+JRBsr0lQV6sN2nmxvLiJFlyTrvSfNSteiQ3TUNuh3Df5vBEmqSwSr3loAaVPj6aDO4uH9CBChtwrsVkLkpRUybK0a4A/y0TYuOmuuaR6KMnr5IO/HhlyLwf4/wsRUlKnRinbqSwylbInjSwrE/ZX8OfNnd/IMfI8scS5jD/j5y5KUdrJuCKW4vlzq4777ZbMQiyUebNnkXjNSBDiLz0wXxF8DrOo02nymThkoqN0IiIigm75wi3KZ46838+fPz9KLaMZEAABEAABEAABEBgZAW97q8tDeUK85V/xgzkbh/xprbbO+KFfYqioJmJMfFyiemhxW11TSe2XYdwEixOycmHDnmKSQKsPfDFbCTS7lgO3yl87P0jIshQ17bKVJujV9adoCj+gzZ/BD3X8gPXHH69QvFfkC782s5CkApY0xmNhEsPl3tVXKH8yjrrmThYwPJXYMSIWiYmg9OOX9ugOzPz76bEKRZT4yudYHODYJ0+tzVW+8AsbEYFUk4C/T/5xn3JNPTfcVsSQ37+bR+vWzFHiqjx0m7EHxD+2nKdf//2IUTMFZc30Ix7vY/fNVzyC7r2R58d/vX0cL4PHJLFxtOZIjBxtfUf2L11i4e2952nZ/U8pYkZGzo0kf6o1VxXRx89+TT1Utt1tTbT/7adpwZe/RxKHZdbKryp/PR3NLKpwYNlBG2BvkUPvP28UlFa9JlsRdLb/8Qe05L4naJJ/kNKvtm+J97Lzz/9N16/9NWkzCWnbsLS/Z88eunr+1Szo+lJ2djYdOWJ8byzVc7Xz7/75IN3zSC5J7AwRCORPRBVfFkQlw4xqB7YXUd6+UvXQpbdb3z9FM65MIBFXplwRQ489fYMioIhQrHo3iKfGhneO04OPLbN7LscPlFH21UkKK+H2xfuuMmrjjRf20qnDFUbnRvNARI43fruXbr1/HkkQ2CsXpyp/soRGBB8RVVSTuDLmTIL3iveJeIVIbJg7v7FQ+byS+iJkqSZpm995+YDFz7IdH52lySzyZcyIVTxSvvV/KxXvFRFVhLcIL5vePUGrvpStNml2K0u1/vrcp/Tl/7yaJCaO+loUQaWjlX/44AC28v//eNm8q+Yp/UvWn717947XMNAvCIAACIAACIAACAwhMC7Lf4aMAieMCIjg8Pq/z9D9P9lEx/PrONUxn2CTZSmqoCLLe9bvKqQP+c+ctfFD2aPP7KQ/vX+C1FTEfpO89YJKD3+Blgw8637xiX65kbl2RuvcjkNltCevktQ0xPLdPCY8QBGPZF88TWQ+Dzyxmao0QRzN9f/bt4/RD36zW/Hekevya7UqqMgDgAgv9z2+kU4XGWIfmGvH3Lm3Np2jb/5yuzJWyYhki+08XE53/c/HtHV/KQlXMfFY0QoqLfzL8Ue7i+inf9pvS5OjXqa2KE8RTkqObFU8Ti7xg8lwdiFvO218/uvUWG7wGtIKKs1VxbT5hXVUeGCD1aZqCo/R5t9+ky4c28bBa3UCa2dLPZUc/YR2/Pm/qLm6WPFSkUZ6Oo2XEFlruLikmPLz85UiSxYvsVbUpa9Vl7XQC49vIREKLg56b8lDtSqoiNfBW7/bR+//9bDFB2tXm6B4ivz+Z9spb3+ZfmgiPoigIg/vsoTpT7/cyeKRzntFX8jGHfmMFOFEvDdkKY2IUGNtModf//cmOrr3gj6tsnhzqIKKjPHc8Wra+I8TFof28Vt59Nrze6iVPRHFdPFodIKKfJaJ8PIbfm2UFZkXZqSOiDCvPLub9m8vVAQUOefH/1eIoNLOYsib/NqRdNa2WHV5C734xCe09YNTeqYyJslQpAoq/SwYnzlaSe/+6aDVIMS29GdrGQlOu2jhIqX4oUOHqKl5qDekrW2hHAiAAAiAAAiAAAiMNgGPhPSZuif20W4Z7Y0aAUmLnBwXQmmJIYqnSjkHVL1Q1ap4QtjSiXi3yPIVWYbiwV+QC0qbeNlMO0lw2LE2WVqTlhjKGY4CKIq/qEvGHUmVLMt4Wh14MIrkZROZPK/wEF8q4qCfxRzEU7xExsuEdQL/ci5zlGVNtU2dSrpqyeokD0mXq/n4BVBYfDoFRyYqXinNvDyot8uQWtaeeUlb2oxEshTo9qc+VJo4u+tdOrL+dzY3J9lAvv/d7ysPfC++9CKdO28QgGxuxIUKSoDQGI4/JMuAZFlFdXkztTTalr3KhaZhNJTQCH9lTrLEqYo9u+TBXRWPjApexgciOIjHTAx/RgewINbEn2l1vJywjZcr2moiXMiSmyD+LKvhzzL5EwHDHhNRR+K8RPJSMvEE0gbEtacdtayMKZY/y2TJlnirNDd2KkvdrAUgVuuO5nbRokV0x5fvUJYAP/XTp6ilxXbxdTTHgbZAAARAAARAAARAwBwBiCrmqOAcCIDAmBGQYLWrHnlJ6e/Q+7+h83v/ZVffd915Fy24egEVFxfTc88/Z1ddFAYBEHBtAuKl8viPHqfw8HDasHGD8ufaI8boQAAEQAAEQAAEJhoBu2OqTDRAmC8IgIBzCUzNvUXpQJYkVRcctbuz9R+tp4YG3VKvgIAA6uy0bdmW3R2hAgiAwJgTCAsLp8/2fcZBei/R9h3bx7x/dAgCIAACIAACIAACwxGAp8pwhHAdBEBgRASue/gZqis6QUWHNhoFtPXw9KKZ199NM6+7W8kOVLDvIzrwT3iajAg2KoMACIAACIAACIAACIAACIwpAXiqjCludAYCE49AYFgsxa6YQzNX3EOSPai1rlzJ9BMSnaRkFhIibXzu+OZXJx4czBgEQAAEQAAEQAAEQAAEQOCyJgBR5bK+fRg8CLg+gfrS0+QXHK4IKJI9KFqTklmW/Jzd/U86vukVGujrcf3JYIQgAAIgAAIgAAIgAAIgAAIgoCGA5T8aGNgFARBwDgFPL28KT5hCAWEx5BcUxpmDOpTUzq11ZRBTnIMcrYIACIAACIAACIAACIAACIwBAYgqYwAZXYAACIAACIAACIAACIAACIAACIAACLgfAU/3mxJmBAIgAAIgAAIgAAIgAAIgAAIgAAIgAALOJwBRxfmM0QMIgAAIgAAIgAAIgAAIgAAIgAAIgIAbEoCo4oY3FVMCARAAARAAARAAARAAARAAARAAARBwPgGIKs5njB5AAARAAARAAARAAARAAARAAARAAATckABEFTe8qZgSCIAACIAACIAACIAACIAACIAACICA8wlAVHE+Y/QAAiAAAiAAAiAAAiAAAiAAAiAAAiDghgQgqrjhTcWUQAAEQAAEQAAEQAAEQAAEQAAEQAAEnE8AoorzGaMHEAABEAABEAABEAABEAABEAABEAABNyQAUcUNbyqmBAIgAAIgAAIgAAIgAAIgAAIgAAIg4HwCEFWczxg9gAAIgAAIgAAIgAAIgAAIgAAIgAAIuCEBiCpueFMxJRAAARAAARAAARAAARAAARAAARAAAecTgKjifMboAQRAAARAAARAAARAAARAAARAAARAwA0JQFRxw5uKKYEACIAACIAACIAACIAACIAACIAACDifAEQV5zNGDyAAAiAAAiAAAiAAAiAAAiAAAiAAAm5IAKKKG95UTAkEQAAEQAAEQAAEQAAEQAAEQAAEQMD5BCCqOJ8xegABEAABEAABEAABEAABEAABEAABEHBDAhBV3PCmYkogAAIgAAIgAAIgAAIgAAIgAAIgAALOJwBRxfmM0QMIgAAIgAAIgAAIgAAIgAAIgAAIgIAbEoCo4oY3FVMCARAAARAAARAAARAAARAAARAAARBwPgGIKs5njB5AAARAAARAAARAAARAAARAAARAAATckABEFTe8qZgSCIAACIAACIAACIAACIAACIAACICA8wlAVHE+Y/QAAiAAAiAAAiAAAiAAAiAAAiAAAiDghgQgqrjhTcWUQAAEQAAEQAAEQAAEQAAEQAAEQAAEnE8AoorzGaMHEAABEAABEAABEAABEAABEAABEAABNyQAUcUNbyqmBAIgAAIgAAIgAAIgAAIgAAIgAAIg4HwCEFWczxg9gAAIgAAIgAAIgAAIgAAIgAAIgAAIuCEBiCpueFMxJRAAARAAARAAARAAARAAARAAARAAAecT+P/hcNPHmeA/KgAAAABJRU5ErkJggg==;fillColor=#FFFFFF;" vertex="1" parent="1">
          <mxGeometry x="240" y="100" width="390" height="202.56" as="geometry" />
        </mxCell>
        <mxCell id="mRLStcjiZI1eSVTFfSAN-9" value="code" style="text;html=1;strokeColor=none;fillColor=none;align=center;verticalAlign=middle;whiteSpace=wrap;rounded=0;" vertex="1" parent="1">
          <mxGeometry x="384" y="60" width="60" height="30" as="geometry" />
        </mxCell>
      </root>
    </mxGraphModel>
  </diagram>
</mxfile>
